<svg width="4096" height="3072" viewBox="0 0 4096 3072" fill="none" xmlns="http://www.w3.org/2000/svg">
<rect width="4096" height="3072" fill="white"/>
<path d="M2043.73 1014.77L2044.18 967.345L2033.69 967.117H2032.1L1914.45 965.977L1913.76 1030.05M2043.73 1014.77L2043.5 1026.4V1031.41M2043.73 1014.77L2044.18 963.013L2044.41 947.281L2044.64 922.2L2045.09 884.351L2045.32 859.727V854.027L1915.81 852.659L1915.59 858.131L1914.9 935.88L1914.67 946.825L1914.45 961.645L1913.76 1030.05M2043.5 1031.41L2032.78 1031.19L2007.93 1030.96L1966.43 1030.5M2043.5 1031.41L1966.43 1030.5M1966.43 1030.5L1943.63 1030.27L1913.76 1030.05M1966.43 1030.5L1913.76 1030.05M2297.05 1821.22H2295.23L2295.91 1938.41L2375.03 1937.96M2297.05 1821.22H2321.9L2334.44 1820.99L2374.34 1820.76M2297.05 1821.22L2374.34 1820.76M2374.34 1820.76L2375.03 1937.96M2375.03 1937.96L2294.31 1938.41L2295.22 2080.69L2375.94 2080L2375.03 1937.96ZM1592.06 1954.15L1591.15 1803.89H1588.87L1553.76 1804.12L1510.44 1804.58V1817.12L1511.35 1954.6M1592.06 1954.15L1511.35 1954.6M1592.06 1954.15L1668.22 1953.69L1669.13 2084.34L1512.26 2085.48L1511.35 1954.6M2767.42 1591.62L2767.65 1705.4H2847.22V1591.62M2767.42 1591.62H2847.22M2767.42 1591.62V1475.8L2846.99 1475.57L2847.22 1591.62M1260.77 2124.01L1236.15 2124.24L1228.17 2124.47L1167.29 2125.15M1260.77 2124.01L1261.91 2185.57L1262.14 2211.34H1261.23M1260.77 2124.01L1167.29 2125.15M1261.23 2211.34L1219.96 2212.02L1168.66 2212.7M1261.23 2211.34L1168.66 2212.7M1168.66 2212.7L1167.29 2125.15M1492.2 2914.5V2920.2L1580.9 2920.43V2914.73M1492.2 2914.5V2904.93L1492.66 2830.14V2801.87M1492.2 2914.5L1580.9 2914.73M1492.2 2914.5L1492.66 2801.87M1492.66 2801.87L1492.89 2762.65L1581.58 2763.11V2770.4M1492.66 2801.87L1492.89 2759.69L1581.58 2760.14V2770.4M1581.58 2770.4V2782.94L1581.35 2799.13M1581.58 2770.4L1581.35 2799.13M1581.35 2799.13V2802.78M1581.35 2802.78L1580.9 2914.73M1581.35 2802.78V2830.82L1580.9 2914.73M1509.52 1656.61L1509.29 1628.33M1509.52 1656.61H1524.57L1536.2 1656.38L1587.95 1656.15L1587.04 1508.4L1508.61 1508.86M1509.52 1656.61H1520.92L1520.24 1545.57V1520.03L1520.01 1508.63L1508.61 1508.86M1509.29 1628.33L1508.84 1520.03L1508.61 1508.86M1509.29 1628.33L1508.61 1508.86M1167.28 1581.36V1580.45L1166.14 1492.9M1167.28 1581.36H1168.42L1260.53 1580.22L1259.39 1491.53H1259.16L1166.14 1492.9M1167.28 1581.36L1166.14 1492.9M2840.39 2919.29L2912.67 2919.06H2918.59L2931.36 2918.83M2840.39 2919.29L2839.93 2862.06V2824.9L2839.48 2770.63V2737.34L2839.25 2709.98M2840.39 2919.29L2931.36 2918.83M2839.25 2709.98L2922.24 2709.75H2930.22M2839.25 2709.98L2930.22 2709.75M2930.22 2709.75V2715.91L2930.45 2730.27V2763.33L2930.68 2788.19V2800.95M2930.22 2709.75L2930.68 2800.95M2930.68 2800.95V2809.39L2930.91 2824.44V2849.75L2931.13 2865.94V2896.03L2931.36 2918.83M2930.68 2800.95L2931.36 2918.83M2905.58 1773.34L2907.63 1685.79M2905.58 1773.34L2905.81 1780.18M2905.58 1773.34V1774.71L2905.81 1780.18M2907.63 1685.79L2953.69 1686.25H2958.25M2907.63 1685.79L2958.25 1686.25M2958.25 1686.25H2968.96M2968.96 1686.25L3112.15 1687.16M2968.96 1686.25L3098.7 1687.16H3112.15M3112.15 1687.16L3113.52 1763.31L3113.75 1772.89M3112.15 1687.16L3113.75 1772.89M3113.75 1772.89V1787.71L3097.78 1787.48M3097.78 1787.48L2970.1 1788.16L2905.81 1788.39M3097.78 1787.48L2905.81 1788.39M2905.81 1788.39V1780.18M2839.24 2709.98L2914.02 2709.75H2930.21M2839.24 2709.98L2839.01 2659.59V2655.26L2838.78 2620.6V2595.3L2877.54 2595.07L2896.01 2594.84H2910.6L2935.46 2625.39L2972.17 2625.16L2972.39 2676.47H2930.44V2677.83M2839.24 2709.98L2930.21 2709.75M2930.44 2677.83V2679.89L2930.21 2685.81V2709.75M2930.44 2677.83L2930.21 2709.75M3061.08 2918.38L3118.08 2917.92L3116.48 2619.01L3010.01 2619.46H2976.72L2972.16 2619.69V2625.16L2972.39 2676.46H2933.85H2930.43V2679.88L2930.21 2685.81V2703.6V2704.74V2709.75V2715.91M3061.08 2918.38L3060.62 2725.26M3061.08 2918.38L3060.85 2757.86L3060.62 2725.26M3061.08 2918.38L2971.02 2918.6L2951.41 2918.83M3061.08 2918.38L3060.85 2786.82V2773.59L3060.62 2717.05M3061.08 2918.38L2951.41 2918.83M3061.08 2918.38L3060.62 2717.05M3060.62 2725.26V2717.05M3060.62 2717.05V2715.91H2992.91H2971.25H2930.21M2930.21 2715.91L2930.43 2730.27V2742.81M2930.21 2715.91L2930.43 2742.81M3113.76 1787.71L3097.8 1787.48L2970.12 1788.16L2905.82 1788.39L2897.61 1788.62H2879.37V1862.04L2879.6 1872.98H2906.05H2970.57H3114.21M3113.76 1787.71V1791.58L3113.99 1796.14M3113.76 1787.71L3113.99 1796.14M3113.99 1796.14L3114.21 1872.98M3113.99 1796.14V1804.81L3114.21 1872.98M3112.84 1580.22L3113.07 1554.46L3113.3 1541.69L3113.53 1486.97L3059.03 1486.74L3016.17 1486.51L2993.14 1486.28H2989.04L2974.9 1486.06H2972.62L2972.16 1549.67V1560.39L2971.94 1579.31L3112.84 1580.22ZM3112.84 1580.22L2972.62 1579.31L2972.39 1601.65V1619.21L2971.94 1686.24L3112.16 1687.15L3112.84 1599.37V1580.22ZM1340.35 1522.76L1339.44 1373.88L1423.57 1373.19L1424.48 1522.31M1340.35 1522.76L1424.48 1522.31M1340.35 1522.76L1339.21 1522.76V1528.24L1340.12 1664.81L1408.98 1664.35L1425.39 1664.13L1424.71 1550.12L1424.48 1522.31M1340.35 1522.76L1364.29 1522.54L1424.48 1522.31M1587.04 1508.4L1520.01 1508.63L1520.24 1520.03V1528.01L1520.92 1656.61H1524.57L1536.2 1656.38H1564.7L1579.06 1656.15H1587.96L1587.04 1508.4ZM1587.04 1508.4L1508.61 1508.86L1507.7 1362.02L1586.13 1361.57L1587.04 1508.4ZM2930.43 2742.81L2930.66 2800.95M2930.43 2742.81V2763.33L2930.66 2788.19V2800.95M2951.41 2918.83H2931.35M2931.35 2918.83L2931.12 2896.03V2874.83M2931.35 2918.83L2931.12 2874.83M2931.12 2874.83L2930.66 2800.95M2931.12 2874.83V2865.94L2930.89 2849.75V2824.44L2930.66 2809.39V2800.95M1025.01 2309.15L1234.32 2306.19L1246.86 2305.96L1270.57 2305.73M1025.01 2309.15L1270.57 2305.73M1025.01 2309.15H1022.5L1014.06 2309.38H1012.7L1011.1 2214.98L1168.65 2212.7M1168.65 2212.7L1250.28 2211.56L1261.22 2211.34H1269.2M1168.65 2212.7L1269.2 2211.34M1269.2 2211.34V2219.77M1269.2 2219.77L1269.43 2230.49L1270.8 2305.73M1269.2 2219.77L1270.8 2305.73M1270.8 2305.73H1270.57M2295.23 2080.69L2135.85 2081.6L2135.4 1974.67L2294.54 1973.76M2295.23 2080.69L2294.54 1973.76M2295.23 2080.69L2375.94 2080.01L2370.24 1137.44L2292.95 1137.89L2296.37 1706.53L2296.82 1802.98L2297.05 1814.15V1821.22H2295.23L2295.91 1938.42H2294.32V1953.69L2294.54 1973.76M2908.77 1485.83L2908.55 1540.55L2908.32 1558.79V1579.08M2908.77 1485.83L2908.32 1579.08M2908.77 1485.83H2928.84L2961.21 1486.06H2972.39M2972.39 1486.06H2972.62L2972.16 1560.38L2971.93 1579.31H2960.76L2908.32 1579.08M2972.39 1486.06L2974.9 1486.06L2989.03 1486.28H2993.14L3016.16 1486.51L3059.03 1486.74L3113.52 1486.97L3112.84 1580.22L2908.32 1579.08M1663.89 1213.36L1663.2 1125.81L1506.34 1126.72L1506.79 1214.27M1663.89 1213.36L1506.79 1214.27M1663.89 1213.36L1665.71 1507.94L1666.4 1655.69L1669.13 2084.34L1512.27 2085.48L1510.44 1817.12V1804.58H1506.57L1506.34 1656.6H1509.53L1509.3 1628.33L1506.79 1214.27M2142.01 2332.86L2142.92 2243.03L2225.92 2243.72L2225 2333.55M2142.01 2332.86L2225 2333.55M2142.01 2332.86L2141.1 2424.98L2224.09 2425.66L2225 2334.69L2225 2333.55M2899.44 2337.65L2967.61 2337.42L2967.39 2246.45L2899.21 2246.68M2899.44 2337.65L2899.21 2246.68M2899.44 2337.65L3115.59 2336.97L3115.13 2245.99L2899.21 2246.68M999.486 1615.79L999.714 1625.6L999.943 1638.59L1000.4 1668.23M999.486 1615.79L1000.4 1668.23M999.486 1615.79L999.03 1584.1H999.943L1015.45 1583.87M1015.45 1583.87L1057.86 1583.19L1058.77 1643.15V1647.03L1059 1667.32L1000.4 1668.23M1015.45 1583.87L1166.84 1581.59H1168.44L1168.67 1582.28L1169.81 1665.73L1000.4 1668.23M1582.26 2617.19L1643.36 2617.41L1671.41 2617.64M1582.26 2617.19L1581.8 2715.23V2732.78L1581.57 2733.92V2750.8H1600.95L1645.19 2751.02H1670.72V2746.24L1670.95 2727.54L1671.41 2617.64M1582.26 2617.19V2581.85L1636.52 2582.07H1671.41V2617.64M1397.8 300.433V299.521L1358.81 299.293L1304.54 299.065V296.785L1305 212.651L1305.23 154.51L1327.8 154.738L1371.35 154.966H1398.48M1397.8 300.433L1411.02 300.661H1421.74M1397.8 300.433L1405.55 300.661H1421.74M1398.48 154.966L1444.54 155.194H1484.89M1398.48 154.966L1438.61 155.194H1484.89M1484.89 155.194L1503.13 155.422L1575.87 155.65V160.21L1575.64 195.095V201.935L1575.18 301.345L1484.21 300.889M1484.21 300.889H1470.3L1421.74 300.661M1484.21 300.889H1480.79L1421.74 300.661M1372.5 1164.34L1377.74 1155L1390.51 1198.77M1383.21 1200.83L1397.8 1196.49M1360.85 1303.42L1365.87 1294.08L1380.46 1289.74L1389.81 1294.76L1392.09 1302.06L1386.84 1311.63L1372.25 1315.74L1367.23 1325.31L1371.34 1339.68L1400.52 1331.24M1366.11 1447.3L1371.12 1437.95L1385.71 1433.62L1395.06 1438.86L1397.34 1446.16L1392.1 1455.51L1384.8 1457.56M1392.1 1455.5L1401.45 1460.74L1403.73 1467.81L1398.49 1477.39L1383.89 1481.49L1374.55 1476.48M1395.07 1602.79L1365.89 1611.46L1379.34 1575.89L1392.11 1619.44M1376.36 1763.77L1385.7 1768.78L1400.3 1764.68L1405.31 1755.1L1401.21 1740.74L1391.63 1735.49L1369.97 1741.88L1365.64 1727.28L1394.82 1718.85M1372.5 1903.99L1394.39 1897.6L1403.74 1902.85L1406.02 1910.14L1400.77 1919.49L1386.18 1923.82L1376.83 1918.58L1370.45 1896.69L1380.71 1878L1388 1875.72M1363.59 2012.06L1392.77 2003.4L1383.65 2053.56M1590.46 2046.26L1580.88 2041.24L1578.83 2033.95L1584.08 2024.6M1584.08 2024.6L1598.44 2020.27L1603.68 2010.92L1601.63 2003.62L1592.06 1998.38L1577.69 2002.71L1572.45 2012.06L1574.5 2019.36L1584.08 2024.6ZM1598.44 2020.27L1608.02 2025.51L1610.07 2032.81L1604.83 2042.16L1590.46 2046.26M1630.36 1902.62L1637.66 1900.57L1647.92 1881.87L1641.53 1859.98L1632.18 1854.74L1617.59 1859.07L1612.35 1868.42L1614.4 1875.71L1623.98 1880.96L1645.64 1874.57M1600.95 1725.01L1605.96 1715.66L1618.73 1759.21M1611.66 1761.48L1626.02 1757.15M1606.2 1565.4L1611.44 1556.06L1624.21 1599.83M1616.91 1601.88L1631.5 1597.55M1635.37 1556.96L1640.38 1547.62L1653.38 1591.17M1646.1 1593.45L1660.47 1589.12M1595.47 1423.81L1600.72 1414.46L1613.48 1458.01M1606.2 1460.29L1620.56 1455.96M1624.66 1415.38L1629.68 1406.03L1644.27 1401.7L1653.62 1406.71L1655.9 1414.01L1650.65 1423.59L1636.06 1427.69L1631.05 1437.27L1635.15 1451.63L1664.34 1443.19M1591.84 1274.93L1597.08 1265.58L1609.85 1309.13M1602.55 1311.4L1617.14 1307.07M1621.01 1266.49L1626.03 1257.14L1640.62 1252.81L1650.19 1257.82L1652.25 1265.12L1647 1274.69L1639.71 1276.75M1647 1274.7L1656.58 1279.71L1658.63 1287.01L1653.39 1296.36L1639.02 1300.69L1629.45 1295.44M1558.78 1168.45L1564.02 1159.1L1576.79 1202.87M1569.49 1204.93L1584.08 1200.6M1623.29 1173.23L1594.34 1181.9L1607.56 1146.33L1620.33 1190.1M1518.41 1864.09L1523.65 1854.74L1536.42 1898.29M1529.14 1900.57L1543.73 1896.24M1556.04 1884.84L1565.39 1889.85L1579.98 1885.52L1585.23 1876.17L1580.9 1861.58L1571.55 1856.56L1549.66 1862.95L1545.33 1848.36L1574.51 1839.92M1513.84 1727.06L1519.08 1717.48L1531.85 1761.26M1524.58 1763.31L1539.17 1758.98M1547.36 1732.98L1569.02 1726.6L1578.6 1731.85L1580.65 1739.14L1575.63 1748.49L1561.04 1752.59L1551.46 1747.58L1545.08 1725.69L1555.57 1706.99L1562.64 1704.71M1525.71 1584.55L1530.96 1575.2L1543.72 1618.75M1536.42 1621.03L1551.01 1616.7M1552.61 1568.82L1581.79 1560.16L1572.67 1610.32M1511.57 1427.92L1516.81 1418.57L1529.58 1462.12M1522.28 1464.39L1536.87 1460.06M1558.77 1453.68L1549.2 1448.43L1547.15 1441.14L1552.39 1431.79M1552.39 1431.79L1566.75 1427.46L1572 1418.11L1569.95 1410.81L1560.37 1405.8L1545.78 1409.9L1540.76 1419.48L1542.81 1426.77L1552.39 1431.79ZM1566.76 1427.46L1576.33 1432.7L1578.38 1440L1573.14 1449.35L1558.78 1453.68M1515 1287.69L1520.24 1278.34L1533.01 1322.12M1525.71 1324.17L1540.3 1319.84M1562.18 1313.46L1569.48 1311.41L1579.74 1292.48L1573.35 1270.82L1564 1265.58L1549.41 1269.91L1544.17 1279.26L1546.22 1286.55L1555.8 1291.8L1577.46 1285.41M1881.86 2030.08L1886.87 2020.73L1901.46 2016.4L1910.81 2021.64L1913.09 2028.94L1907.85 2038.28L1893.26 2042.62L1888.24 2051.96L1892.57 2066.56L1921.53 2057.89M1766.47 2012.97L1771.71 2003.63L1786.31 1999.29L1795.65 2004.54L1797.71 2011.61L1792.69 2021.18L1778.1 2025.29L1772.85 2034.86L1777.19 2049.23L1806.37 2040.79M1810.25 2000.2L1815.27 1990.86L1828.03 2034.4M1820.76 2036.46L1835.35 2032.35M1758.95 1879.13L1764.19 1869.79L1778.78 1865.45L1788.13 1870.7L1790.18 1877.99L1785.17 1887.34L1770.57 1891.67L1765.33 1901.02L1769.66 1915.61L1798.85 1907.18M1802.74 1866.37L1807.76 1857.02L1822.35 1852.69L1831.7 1857.93L1833.98 1865.23L1828.73 1874.58L1814.14 1878.91L1809.13 1888.26L1813.23 1902.85L1842.42 1894.41M1758.28 1747.57L1763.29 1738.23L1777.89 1733.89L1787.23 1739.14L1789.51 1746.43L1784.27 1755.78L1769.68 1760.11L1764.66 1769.46L1768.77 1784.06L1797.95 1775.39M1801.83 1734.81L1807.07 1725.46L1821.67 1721.13L1831.01 1726.37L1833.07 1733.67L1828.05 1743.02L1820.76 1745.07M1828.03 1743.02L1837.38 1748.26L1839.43 1755.33L1834.42 1764.91L1819.83 1769.01L1810.25 1763.99M1757.37 1615.11L1762.61 1605.76L1777.2 1601.43L1786.55 1606.67L1788.6 1613.97L1783.59 1623.32L1768.99 1627.65L1763.75 1637L1768.08 1651.59L1797.04 1642.93M1836.49 1615.79L1807.53 1624.23L1820.76 1588.66L1833.53 1632.44M1754.16 1341.96L1759.18 1332.61L1773.77 1328.28L1783.12 1333.52L1785.4 1340.82L1780.15 1350.17L1765.56 1354.27L1760.55 1363.85L1764.65 1378.44L1793.84 1369.78M1806.38 1358.37L1815.73 1363.39L1830.32 1359.06L1835.34 1349.71L1831.01 1335.12L1821.66 1330.1L1799.77 1336.48L1795.67 1321.89L1824.62 1313.46M1754.85 1209.26L1760.09 1199.68L1774.68 1195.58L1784.03 1200.6L1786.08 1207.89L1781.07 1217.24L1766.48 1221.57L1761.23 1230.92L1765.56 1245.51L1794.75 1237.08M1802.72 1210.85L1824.61 1204.47L1833.96 1209.71L1836.24 1217.01L1830.99 1226.36L1816.4 1230.69L1807.05 1225.45L1800.67 1203.79L1810.93 1184.86L1818.23 1182.81M2169.13 2020.5L2174.15 2011.15L2188.74 2006.81L2198.09 2012.06L2200.37 2019.35L2195.12 2028.7L2180.53 2033.04L2175.52 2042.38L2179.62 2056.98L2208.81 2048.54M2210.64 2000.43L2239.59 1992L2230.7 2042.16M2296.83 2005.68L2301.84 1996.33L2316.44 1992L2326.01 1997.24L2328.06 2004.54L2322.82 2013.88L2308.46 2018.22L2303.21 2027.57L2307.54 2042.16L2336.5 2033.49M2358.37 2027.11L2349.02 2022.1L2346.74 2014.8L2351.99 2005.22M2351.99 2005.22L2366.58 2001.12L2371.59 1991.77L2369.54 1984.47L2360.19 1979.23L2345.6 1983.56L2340.36 1992.91L2342.64 2000.21L2351.99 2005.22ZM2366.58 2001.12L2375.93 2006.14L2377.98 2013.43L2372.96 2023.01L2358.37 2027.11M2295.23 1874.58L2300.24 1865.23L2314.83 1860.89L2324.41 1865.91L2326.46 1873.21L2321.22 1882.78L2306.85 1886.89L2301.61 1896.46L2305.94 1910.83L2334.9 1902.39M2356.79 1896.01L2364.09 1893.96L2374.35 1875.03L2367.96 1853.14L2358.61 1848.13L2344.02 1852.23L2338.78 1861.81L2341.06 1869.1L2350.41 1874.12L2372.29 1867.74M2298.66 1765.13L2303.9 1755.78L2318.49 1751.45L2327.84 1756.47L2329.89 1763.77L2324.88 1773.34L2317.58 1775.39M2324.87 1773.34L2334.22 1778.36L2336.27 1785.66L2331.25 1795L2316.66 1799.34L2307.31 1794.09M2302.29 1647.03L2307.3 1637.68L2321.89 1633.35L2331.24 1638.59L2333.52 1645.89L2328.28 1655.24L2320.98 1657.29M2328.28 1655.23L2337.62 1660.48L2339.9 1667.55L2334.66 1677.12L2320.07 1681.23L2310.72 1676.21M2345.83 1634.26L2351.08 1624.91L2363.84 1668.46M2356.57 1670.74L2371.16 1666.41M2297.28 1538.5L2302.52 1529.15L2317.11 1524.82L2326.46 1530.06L2328.51 1537.36L2323.5 1546.71L2316.2 1548.76M2323.49 1546.7L2332.84 1551.95L2334.89 1559.02L2329.88 1568.59L2315.28 1572.7L2305.94 1567.68M2341.05 1525.73L2346.06 1516.38L2360.66 1512.05L2370.23 1517.29L2372.28 1524.59L2367.04 1533.94L2352.68 1538.27L2347.43 1547.62L2351.76 1562.21L2380.72 1553.54M2296.83 1428.83L2301.84 1419.48L2316.44 1415.15L2325.78 1420.39L2327.84 1427.69L2322.82 1437.04L2315.52 1439.09M2322.82 1437.04L2332.17 1442.05L2334.45 1449.35L2329.21 1458.93L2314.62 1463.03L2305.27 1458.01M2340.36 1416.06L2345.6 1406.71L2359.97 1402.38L2369.54 1407.62L2371.59 1414.92L2366.35 1424.27L2359.05 1426.32M2366.35 1424.27L2375.93 1429.28L2377.98 1436.58L2372.74 1446.16L2358.37 1450.26L2348.8 1445.24M2294.31 1296.36L2299.56 1287.01L2314.15 1282.68L2323.5 1287.69L2325.55 1294.99L2320.53 1304.56L2313.24 1306.62M2320.53 1304.57L2329.88 1309.58L2331.93 1316.88L2326.92 1326.23L2312.32 1330.56L2302.98 1325.31M2373.43 1296.81L2344.47 1305.25L2357.7 1269.91L2370.47 1313.46M2292.71 1178.94L2297.72 1169.59L2312.31 1165.26L2321.66 1170.5L2323.94 1177.8L2318.7 1187.14L2311.4 1189.2M2318.7 1187.15L2328.05 1192.39L2330.33 1199.46L2325.09 1209.04L2310.49 1213.14L2301.15 1208.12M2344.7 1195.35L2354.27 1200.37L2368.87 1196.26L2373.88 1186.69L2369.55 1172.32L2360.2 1167.08L2338.31 1173.46L2334.21 1158.87L2363.17 1150.44M2477.4 2005.22L2482.65 1995.87L2497.24 1991.54L2506.59 1996.56L2508.64 2003.85L2503.62 2013.43L2496.33 2015.48M2503.62 2013.43L2512.97 2018.44L2515.02 2025.74L2510.01 2035.09L2495.41 2039.42L2486.07 2034.17M2525.28 2007.05L2547.17 2000.66L2556.52 2005.68L2558.8 2012.97L2553.55 2022.32L2538.96 2026.65L2529.61 2021.41L2523.23 1999.75L2533.49 1980.83L2540.78 1978.77M2480.14 1885.52L2485.39 1876.17L2499.98 1871.84L2509.33 1877.08L2511.38 1884.38L2506.36 1893.73L2499.07 1895.78M2506.36 1893.73L2515.71 1898.97L2517.76 1906.27L2512.75 1915.62L2498.15 1919.95L2488.81 1914.71M2521.63 1865.46L2550.81 1857.02L2541.69 1907.18M2476.27 1766.28L2481.29 1756.7L2495.88 1752.6L2505.23 1757.61L2507.51 1764.91L2502.26 1774.48L2494.97 1776.54M2502.24 1774.48L2511.59 1779.49L2513.87 1786.79L2508.63 1796.14L2494.03 1800.47L2484.69 1795.23M2537.81 1787.71L2528.46 1782.46L2526.18 1775.17L2531.42 1765.82M2531.42 1765.82L2546.02 1761.49L2551.03 1752.14L2548.98 1744.84L2539.63 1739.83L2525.04 1743.93L2519.8 1753.51L2522.08 1760.8L2531.42 1765.82ZM2546.02 1761.49L2555.37 1766.73L2557.42 1774.03L2552.4 1783.38L2537.81 1787.71M2474.2 1655.01L2479.44 1645.66L2494.04 1641.33L2503.38 1646.57L2505.44 1653.87L2500.42 1663.21L2493.12 1665.27M2500.42 1663.22L2509.76 1668.46L2511.82 1675.53L2506.8 1685.1L2492.21 1689.21L2482.86 1684.19M2535.99 1676.44L2543.05 1674.39L2553.54 1655.69L2547.16 1633.8L2537.58 1628.56L2522.99 1632.89L2517.97 1642.24L2520.02 1649.53L2529.37 1654.78L2551.26 1648.39M2506.12 1548.53L2476.94 1556.97L2490.16 1521.4L2502.93 1565.18M2507.5 1300.69L2478.54 1309.12L2491.77 1273.55L2504.53 1317.33M2515.7 1274.47L2520.95 1265.12L2533.72 1308.67M2526.41 1310.95L2541 1306.61M2540.1 1190.79L2510.91 1199.23L2524.36 1163.66L2537.13 1207.44M2548.3 1164.57L2553.32 1155.22L2567.91 1150.89L2577.26 1156.14L2579.54 1163.43L2574.29 1172.78L2559.7 1177.11L2554.68 1186.46L2559.02 1201.05L2587.97 1192.39M2574.76 1307.53L2545.81 1316.19L2559.03 1280.62L2571.8 1324.17M2582.97 1281.54L2588.21 1272.19L2602.8 1267.86L2612.15 1273.1L2614.2 1280.17L2609.19 1289.75L2601.89 1291.8M2609.18 1289.75L2618.53 1294.76L2620.58 1302.06L2615.57 1311.41L2600.98 1315.74L2591.63 1310.72M2579.78 1441.6L2550.6 1450.03L2563.82 1414.69L2576.59 1458.24M2623.32 1428.83L2594.37 1437.26L2607.59 1401.92L2620.36 1445.47M2571.56 1529.38L2542.38 1537.81L2555.6 1502.24L2568.6 1546.02M2588.21 1532.34L2597.56 1537.36L2612.15 1533.26L2617.39 1523.91L2613.06 1509.31L2603.71 1504.07L2581.82 1510.45L2577.49 1495.86L2606.68 1487.43M2583.65 1656.6L2554.47 1665.27L2567.69 1629.7L2580.46 1673.25M2595.95 1645.2L2617.84 1638.82L2627.19 1643.83L2629.24 1651.13L2624.22 1660.48L2609.63 1664.81L2600.28 1659.57L2593.9 1637.91L2604.16 1618.98L2611.45 1616.93M2587.3 1773.8L2558.12 1782.23L2571.57 1746.66L2584.34 1790.44M2593.46 1740.28L2622.41 1731.85L2613.29 1782.01M2582.74 1887.8L2553.56 1896.23L2566.78 1860.67L2579.55 1904.44M2608.73 1895.78L2599.38 1890.76L2597.1 1883.47L2602.35 1874.12M2602.35 1874.12L2616.94 1869.79L2621.95 1860.44L2619.9 1853.14L2610.55 1847.9L2595.96 1852.23L2590.72 1861.58L2593 1868.88L2602.35 1874.12ZM2616.94 1869.79L2626.29 1875.03L2628.34 1882.33L2623.32 1891.68L2608.73 1895.78M2593.69 2017.99L2564.73 2026.42L2577.95 1990.85L2590.72 2034.63M2619.91 2026.2L2627.2 2023.92L2637.46 2005.22L2631.08 1983.33L2621.73 1978.09L2607.14 1982.42L2601.89 1991.77L2604.17 1999.07L2613.52 2004.31L2635.41 1997.93M2783.15 1209.26L2790.21 1213.14L2800.93 1209.95L2804.81 1202.88L2801.61 1191.93L2794.55 1188.06L2778.36 1193.07L2775.17 1182.13L2796.83 1175.75M2807.77 1172.55L2829.65 1166.17L2822.81 1203.56M1966.89 1912.88L1969.4 1908.32L1975.78 1929.98M1972.14 1931.12L1979.44 1929.06M1966.22 1824.41L1968.96 1819.63L1976.03 1817.57L1980.82 1820.08L1981.96 1823.73L1979.22 1828.29L1972.15 1830.57L1969.42 1835.13L1971.7 1842.43L1986.06 1838.32M1970.54 1745.3L1973.28 1740.51L1980.35 1738.46L1985.14 1740.96L1986.28 1744.61L1983.77 1749.4L1980.12 1750.31M1983.78 1749.4L1988.34 1751.91L1989.48 1755.56L1986.97 1760.34L1979.67 1762.4L1974.89 1759.89M1972.82 1600.06L1977.61 1602.57L1984.68 1600.51L1987.42 1595.73L1985.14 1588.43L1980.58 1585.92L1969.63 1589.11L1967.58 1581.82L1981.94 1577.49M1985.35 1672.33L1970.76 1676.66L1977.38 1658.88L1983.76 1680.77M1972.82 1519.8L1983.76 1516.61L1988.32 1519.12L1989.46 1522.77L1986.95 1527.55L1979.65 1529.61L1974.87 1527.1L1971.68 1516.15L1976.92 1506.81L1980.57 1505.66M1968.49 1422.67L1983.09 1418.57L1978.53 1443.42M1981.04 1367.04L1976.25 1364.53L1975.34 1360.88L1977.84 1356.32M1977.84 1356.32L1985.14 1354.04L1987.65 1349.48L1986.74 1345.84L1981.95 1343.1L1974.65 1345.38L1972.14 1349.94L1973.05 1353.59L1977.84 1356.32ZM1985.13 1354.04L1989.92 1356.78L1990.83 1360.43L1988.32 1364.99L1981.03 1367.04M1977.39 1285.64L1981.03 1284.5L1986.05 1275.15L1982.86 1264.21L1978.3 1261.7L1971 1263.75L1968.49 1268.54L1969.4 1272.19L1974.19 1274.7L1985.14 1271.51M1962.57 1191.02L1965.08 1186.23L1971.46 1208.12M1967.8 1209.26L1975.1 1206.98M2190.35 1196.72L2192.86 1192.16L2199.24 1213.82M2195.58 1214.96L2202.88 1212.91M2204.94 1192.61L2207.44 1187.83L2213.83 1209.72M2210.17 1210.63L2217.46 1208.58M2189.44 1274.93L2191.94 1270.37L2198.33 1292.25M2194.67 1293.16L2201.97 1291.11M2204.03 1270.82L2206.53 1266.03L2213.83 1263.98L2218.39 1266.49L2219.53 1270.14L2217.02 1274.92L2209.73 1276.98L2207.22 1281.76L2209.27 1289.06L2223.86 1284.73M2185.78 1353.13L2188.29 1348.34L2194.68 1370.23M2191.02 1371.14L2198.32 1369.09M2200.37 1348.8L2202.88 1344.01L2210.18 1341.96L2214.96 1344.47L2215.88 1348.12L2213.37 1352.9L2209.72 1353.82M2213.36 1352.9L2218.15 1355.41L2219.06 1359.06L2216.55 1363.85L2209.25 1365.9L2204.47 1363.39M2187.37 1432.02L2189.88 1427.46L2196.26 1449.35M2192.62 1450.26L2199.92 1448.21M2219.75 1434.53L2205.16 1438.86L2211.77 1421.07L2218.15 1442.73M2184.87 1513.87L2187.38 1509.09L2193.77 1530.97M2190.1 1532.11L2197.4 1529.83M2203.79 1524.13L2208.35 1526.64L2215.65 1524.59L2218.16 1520.03L2216.11 1512.73L2211.32 1510L2200.6 1513.19L2198.32 1505.89L2212.91 1501.79M2187.83 1591.85L2190.57 1587.06L2196.95 1608.95M2193.31 1609.86L2200.61 1607.81M2204.7 1594.81L2215.41 1591.62L2220.2 1594.13L2221.34 1597.78L2218.6 1602.57L2211.54 1604.62L2206.75 1602.11L2203.56 1591.17L2208.8 1581.82L2212.22 1580.68M2185.1 1676.44L2187.83 1671.65L2194.22 1693.54M2190.57 1694.68L2197.64 1692.4M2198.55 1668.46L2213.14 1664.13L2208.58 1689.21M2186.01 1754.19L2188.52 1749.63L2194.9 1771.51M2191.26 1772.43L2198.56 1770.38M2209.49 1767.18L2204.7 1764.68L2203.56 1761.03L2206.3 1756.24M2206.3 1756.24L2213.6 1754.19L2216.11 1749.4L2214.96 1745.75L2210.41 1743.24L2203.11 1745.29L2200.37 1750.08L2201.51 1753.73L2206.3 1756.24ZM2213.6 1754.19L2218.16 1756.7L2219.3 1760.34L2216.8 1764.9L2209.5 1767.18M2182.82 1833.08L2185.33 1828.29L2191.72 1850.18M2188.06 1851.32L2195.36 1849.04M2206.3 1845.85L2209.95 1844.94L2214.96 1835.36L2211.77 1824.42L2207.21 1821.91L2199.91 1824.19L2197.41 1828.75L2198.32 1832.4L2203.11 1834.91L2214.05 1831.71M2185.56 1912.65L2188.07 1907.87L2195.37 1905.81L2199.93 1908.32L2201.07 1911.97L2198.56 1916.76L2191.26 1918.81L2188.75 1923.6L2190.81 1930.89L2205.4 1926.56M2788.85 1321.44L2795.92 1325.31L2806.86 1322.12L2810.74 1315.05L2807.54 1304.11L2800.48 1300.23L2784.06 1305.02L2780.87 1294.08L2802.76 1287.69M2818.49 1300.92L2834.91 1296.13L2841.98 1300.01L2843.57 1305.48L2839.7 1312.55L2828.75 1315.74L2821.69 1311.86L2816.9 1295.45L2824.65 1281.31L2830.12 1279.72M2787.49 1438.17L2794.33 1442.05L2805.27 1438.86L2809.15 1431.79L2805.96 1420.85L2798.89 1416.97L2782.7 1421.76L2779.51 1410.81L2801.17 1404.43M2820.09 1428.6L2827.16 1432.48L2838.1 1429.28L2841.98 1422.22L2838.78 1411.27L2831.72 1407.39L2815.3 1412.18L2812.11 1401.24L2834 1394.85M2784.98 1556.51L2792.04 1560.39L2802.99 1557.2L2806.86 1550.13L2803.67 1539.18L2796.6 1535.31L2780.19 1540.1L2777 1529.15L2798.88 1522.77M2838.09 1535.08L2816.21 1541.46L2826.24 1514.79L2835.81 1547.62M2784.75 1670.97L2791.82 1674.85L2802.76 1671.65L2806.64 1664.59L2803.44 1653.64L2796.38 1649.77L2779.96 1654.55L2776.77 1643.61L2798.66 1637.23M2810.97 1639.5L2814.85 1632.43L2825.79 1629.24L2832.86 1633.12L2834.45 1638.59L2830.58 1645.66L2825.11 1647.25M2830.58 1645.66L2837.65 1649.53L2839.25 1655.01L2835.37 1662.07L2824.43 1665.27L2817.36 1661.39M2786.35 1779.27L2793.42 1783.15L2804.37 1779.96L2808.24 1772.89L2805.05 1761.94L2797.98 1758.07L2781.57 1762.86L2778.38 1751.91L2800.26 1745.53M2812.8 1747.81L2816.67 1740.74L2827.62 1737.55L2834.69 1741.42L2836.28 1746.89L2832.41 1753.96L2821.46 1757.15L2817.59 1764.22L2820.78 1775.17L2842.67 1768.78M2783.37 1893.73L2790.44 1897.6L2801.16 1894.41L2805.03 1887.34L2801.84 1876.4L2794.77 1872.52L2778.58 1877.31L2775.39 1866.36L2797.05 1859.98M2809.59 1862.26L2813.47 1855.19L2823.04 1888.03M2817.59 1889.62L2828.53 1886.43M2794.1 2018.9L2801.17 2022.78L2812.11 2019.58L2815.99 2012.51L2812.8 2001.57L2805.73 1997.92L2789.31 2002.71L2786.12 1991.77L2808.01 1985.38M2273.34 2374.13L2275.85 2369.35L2283.14 2367.29L2287.7 2369.8L2288.84 2373.45L2286.33 2378.24L2279.04 2380.29L2276.53 2385.08L2278.58 2392.37L2293.17 2388.04M2295 2367.75L2297.74 2362.96L2304.12 2384.85M2300.46 2385.99L2307.75 2383.71M2273.34 2289.32L2275.85 2284.53L2283.14 2282.48L2287.93 2284.99L2288.84 2288.63L2286.33 2293.42L2279.04 2295.47L2276.53 2300.26L2278.58 2307.56L2293.17 2303.23M2295 2282.93L2297.74 2278.14L2305.03 2276.09L2309.59 2278.6L2310.74 2282.25L2308.23 2287.04L2300.93 2289.09L2298.42 2293.88L2300.47 2301.17L2315.07 2296.84M2165.95 2379.83L2168.68 2375.05L2175.75 2372.99L2180.54 2375.5L2181.68 2379.15L2178.94 2383.94L2171.87 2385.99L2169.14 2390.78L2171.42 2398.07L2185.78 2393.74M2187.83 2373.45L2190.34 2368.66L2197.64 2366.61L2202.43 2369.12L2203.57 2372.76L2200.83 2377.55L2197.18 2378.46M2200.82 2377.55L2205.6 2380.06L2206.75 2383.71L2204.01 2388.5L2196.71 2390.55L2192.15 2388.04M2169.36 2288.86L2171.86 2284.07L2179.16 2282.02L2183.95 2284.53L2185.09 2288.18L2182.35 2292.96L2175.06 2295.02L2172.55 2299.8L2174.6 2307.1L2189.19 2302.77M2209.04 2289.09L2194.45 2293.42L2201.06 2275.63L2207.44 2297.52M2041.68 2331.72L2044.42 2327.16L2051.71 2324.88L2056.28 2327.39L2057.42 2331.04L2054.91 2335.83L2047.61 2337.88L2044.88 2342.67L2047.16 2349.96L2061.52 2345.63M2067.91 2339.93L2072.46 2342.44L2079.76 2340.39L2082.5 2335.6L2080.22 2328.3L2075.66 2325.79L2064.71 2328.99L2062.43 2321.69L2077.03 2317.36M1895.08 2327.85L1897.82 2323.29L1905.11 2321.01L1909.67 2323.74L1910.81 2327.39L1908.3 2331.95L1901.01 2334.23L1898.27 2338.79L1900.55 2346.09L1915.14 2341.99M1919.02 2328.76L1929.96 2325.57L1934.75 2328.3L1935.89 2331.95L1933.15 2336.51L1925.86 2338.79L1921.3 2336.06L1918.11 2325.11L1923.12 2315.76L1926.77 2314.62M1781.08 2369.34L1783.58 2364.78L1790.88 2362.5L1795.67 2365.24L1796.81 2368.89L1794.07 2373.45L1786.78 2375.73L1784.27 2380.29L1786.55 2387.58L1800.91 2383.25M1801.83 2359.31L1816.42 2355.21L1811.86 2380.06M1777.87 2282.48L1780.61 2277.69L1787.91 2275.64L1792.46 2278.14L1793.61 2281.79L1791.1 2286.58L1783.8 2288.63L1781.06 2293.42L1783.34 2300.72L1797.94 2296.38M1808.65 2293.19L1804.09 2290.68L1802.95 2287.03L1805.46 2282.25M1805.46 2282.25L1812.76 2280.19L1815.49 2275.41L1814.35 2271.76L1809.56 2269.25L1802.27 2271.3L1799.76 2276.09L1800.9 2279.74L1805.46 2282.25ZM1812.77 2280.19L1817.56 2282.7L1818.7 2286.35L1815.96 2291.14L1808.67 2293.19M1666.39 2374.36L1668.9 2369.57L1676.19 2367.52L1680.98 2370.03L1681.89 2373.68L1679.38 2378.47L1672.09 2380.52L1669.58 2385.31L1671.63 2392.37L1686.22 2388.27M1697.17 2385.08L1700.82 2383.94L1705.83 2374.59L1702.64 2363.64L1698.08 2361.14L1690.78 2363.19L1688.28 2367.98L1689.19 2371.62L1693.98 2374.13L1704.92 2370.94M1669.57 2282.93L1672.08 2278.14L1679.37 2276.09L1684.16 2278.6L1685.3 2282.25L1682.57 2287.03L1678.92 2288.17M1682.57 2287.04L1687.36 2289.54L1688.5 2293.19L1685.77 2297.98L1678.47 2300.03L1673.91 2297.52M1899.41 2759.69L1898.72 2916.1L1762.15 2915.64L1762.83 2758.78L1763.06 2731.42V2730.73L1899.41 2732.1V2759.69ZM1401.44 2619.69L1401.22 2627.67L1400.08 2914.05L1310.24 2913.59L1310.47 2851.34V2841.54L1310.7 2812.58V2789.78L1311.15 2696.76V2683.99L1311.38 2652.52V2627.22L1311.61 2619.24L1401.44 2619.69ZM2552.18 1707.22L2622.63 1706.77L2623.31 1822.82L2552.86 1823.05H2551.72L2551.04 1707.22H2552.18ZM2374.34 1820.77L2297.04 1821.22L2296.36 1706.54L2373.65 1706.08L2374.34 1820.77ZM2373.65 1706.08L2296.36 1706.54L2295.67 1592.76L2372.97 1592.31L2373.65 1706.08ZM2370.7 1221.57L2293.41 1222.03L2292.96 1137.89L2370.25 1137.44L2370.7 1221.57ZM1985.59 2088.67L1844.69 2089.58L1844 1980.37L1984.91 1979.46L1985.59 2088.67ZM1844.69 2089.59L1758.28 2090.04L1757.37 1953.7L1843.78 1953.01L1844.01 1980.37L1844.69 2089.59ZM1843.78 1943.43L1757.37 1944.12L1756.46 1812.56L1842.87 1812.1L1843.78 1943.43ZM1422.87 1227.73L1338.51 1228.18L1338.05 1126.49L1422.19 1126.04L1422.87 1227.73ZM1756.45 1812.56L1755.77 1676.21L1842.18 1675.53L1842.86 1812.1L1756.45 1812.56ZM2549.67 1480.81L2621.27 1480.36L2621.95 1592.99L2551.5 1593.45H2546.94L2546.25 1480.81H2549.67ZM2615.8 1221.12L2616.71 1366.81H2595.28L2549 1367.04H2546.72L2545.81 1221.57L2582.06 1221.35L2606.68 1221.12H2615.8ZM1342.17 1822.59L1341.26 1675.76L1425.39 1675.3L1426.3 1822.14L1342.17 1822.59ZM999.016 1495.41L1035.95 1494.72L1259.17 1491.53H1259.4L1259.17 1481.04L1258.03 1400.56L997.648 1404.43L999.016 1495.41ZM1001.98 1404.2L1001.52 1376.62L1000.61 1312.09L1165.46 1309.81L1166.37 1381.86L1166.6 1396L1166.82 1401.92L1146.99 1402.15L1001.98 1404.2ZM1166.84 1401.92L1166.61 1395.99L1166.38 1381.86L1165.47 1309.81L1256.67 1308.44L1258.04 1400.55L1216.77 1401.01L1190.1 1401.46L1166.84 1401.92ZM999.466 1312.09L997.87 1216.55H999.011L1164.09 1214.27L1165.45 1309.81L1008.59 1312.09H999.466ZM1899.42 2734.15L2032.57 2734.84L2032.34 2753.08V2797.77L2031.66 2916.78L1898.73 2916.1L1899.42 2759.69V2734.15ZM2847.44 1932.71L2767.87 1932.94L2767.64 1819.17H2847.44V1932.71ZM2767.64 1819.17V1705.4H2847.22L2847.44 1819.17H2767.64ZM2351.08 2335.83L2350.4 2426.8L2224.08 2425.66L2224.99 2334.69L2351.08 2335.83ZM2141.1 2424.98L1989.93 2423.38L1991.53 2241.43L2142.92 2243.03L2141.1 2424.98ZM2624.91 2078.64L2556.74 2079.1L2555.83 1937.96L2624 1937.51L2624.91 2078.64ZM2553.55 1937.96H2555.83L2556.75 2079.1L2479.22 2079.55L2478.54 1938.42L2553.55 1937.96ZM2580.47 2762.19L2579.78 2919.06L2481.97 2918.6L2482.65 2761.74L2580.47 2762.19ZM2839.93 2824.9V2862.06L2840.38 2919.29L2754.88 2919.74H2744.85L2744.62 2911.76V2887.14L2744.4 2862.06V2825.35L2839.93 2824.9ZM2372.98 1592.31L2295.69 1592.76L2295 1477.85L2372.3 1477.39L2372.98 1592.31ZM2372.29 1477.39L2295 1477.85L2294.31 1365.21L2371.61 1364.76L2372.29 1477.39ZM2815.54 802.27L2816.68 931.777L2818.73 1012.26L2724.34 1014.77L2718.64 805.69L2815.54 802.27ZM1795.21 667.523L1795.67 656.35L2018.66 671.627L2017.74 706.511L2017.51 720.647L2014.55 835.106L1787 819.373L1789.74 768.756L1792.25 719.963L1795.21 667.523ZM1167.29 2125.15L1168.66 2212.71L1011.11 2214.99L1009.74 2127.43L1167.29 2125.15ZM1171.61 2033.04L1263.95 2031.67L1265.09 2123.79L1167.28 2125.16L1166.14 2033.04H1171.61ZM1170.24 1943.2L1171.61 2033.04H1166.13L1007.9 2035.32L1006.53 1945.48L1062.16 1944.8L1170.24 1943.2ZM1166.15 2033.04L1167.29 2125.15L1009.74 2127.43L1007.91 2035.32L1166.15 2033.04ZM1171.4 1943.2L1170.03 1849.95L1264.43 1848.58L1265.79 1941.83L1171.4 1943.2ZM1915.6 858.133L1914.91 935.882L1914.69 946.827L1914.46 961.647L1913.77 1033.47L1720.43 1031.42L1722.25 856.081L1745.28 856.537L1915.6 858.133ZM2621.96 1592.99L2622.64 1706.77L2552.19 1707.22L2551.51 1593.45L2621.96 1592.99ZM2546.95 1593.45H2551.51L2552.2 1707.22H2551.06L2476.95 1707.68L2476.27 1593.9L2546.95 1593.45ZM2476.26 1593.9L2475.58 1481.27L2546.26 1480.81L2546.95 1593.45L2476.26 1593.9ZM2616.71 1366.81L2620.58 1366.58L2621.27 1480.35L2549.67 1480.81L2548.99 1367.04L2595.27 1366.81H2616.71ZM2474.88 1367.49L2474.2 1222.03L2545.79 1221.57L2546.71 1367.04L2474.88 1367.49ZM2294.77 854.939L2291.81 1030.5L2240.28 1029.59L2180.09 1028.68L2181.91 855.395L2294.77 854.939ZM2963.27 1227.27L3092.1 1226.81H3115.58L3114.9 1305.02H3102.58L2940.7 1303.65H2919.5L2919.95 1227.27H2963.27ZM1763.07 2730.73V2731.41L1762.84 2758.77L1670.73 2758.32V2746.23L1670.96 2727.54L1671.41 2594.61L1763.53 2594.84L1763.07 2730.73ZM1492.88 2755.13V2759.69L1492.65 2801.87L1492.2 2914.5L1400.09 2914.05L1400.77 2754.9L1492.88 2755.13ZM2839.46 2752.16L2743.93 2752.62V2763.11L2744.15 2809.62L2744.38 2822.85V2825.35L2839.91 2824.9L2839.46 2770.63V2752.16ZM1841.26 1539.18L1842.17 1675.53L1755.76 1676.21L1754.85 1539.64L1841.26 1539.18ZM3108.51 747.781L3110.79 1052.4L2972.17 1053.53L2969.89 748.693L3108.51 747.781ZM2851.33 1247.11H2767.2V1364.3H2851.56L2851.33 1354.5V1247.11ZM2371.6 1364.76L2294.31 1365.21L2293.4 1222.03L2370.69 1221.57L2371.6 1364.76ZM1802.97 633.094L1809.13 535.509L1945.25 543.945L1939.32 641.53L1802.97 633.094ZM2035.07 853.803L2045.33 854.031V859.732L2045.1 884.356L2044.64 922.204L2044.42 947.285L2044.19 963.017V967.349L2033.7 967.121L2001.55 966.894L1914.45 965.982V961.649L1914.68 952.301V946.829L1914.91 935.885L1915.59 858.135L1915.82 852.663L2035.07 853.803ZM2391.2 852.204L2418.56 852.66L2416.97 963.469L2416.74 968.486L2416.51 988.094L2415.83 1032.33L2291.79 1030.5L2294.76 854.94V850.835L2391.2 852.204ZM2627.64 807.971L2630.61 914.22V914.676L2631.29 943.405L2541.46 945.685L2540.77 913.08L2540.09 894.384L2537.81 810.478L2627.64 807.971ZM1493.55 2605.1L1492.87 2755.13L1400.75 2754.9L1401.21 2627.67L1401.44 2619.69V2593.24L1493.55 2593.7V2605.1ZM2483.55 2591.19L2483.32 2598.03V2626.99L2481.96 2918.6L2393.26 2918.38L2394.63 2624.93V2604.41L2394.86 2590.73L2483.55 2591.19ZM2483.33 2598.03L2581.15 2598.49V2626.53L2580.92 2668.94L2483.11 2668.48L2483.33 2626.99V2598.03ZM2580.91 2668.94L2580.45 2762.2L2482.64 2761.74L2483.09 2668.49L2580.91 2668.94ZM1076.09 1760.35L1074.49 1668.23L1099.11 1667.78L1139.02 1667.32L1140.16 1667.09H1143.8L1167.97 1666.64H1169.8L1261.91 1665.5V1677.58L1262.14 1680.32L1262.59 1716.12L1263.28 1757.61V1757.84H1254.61L1242.53 1758.07L1215.85 1758.52H1205.82L1200.8 1758.75H1187.58L1175.72 1758.98H1173.22L1166.15 1759.21L1143.8 1759.44L1136.05 1759.66L1087.03 1760.35H1076.09ZM1261.91 1665.5L1169.8 1666.64L1168.43 1581.36L1260.54 1580.22L1261.91 1665.5ZM2718.63 805.693L2724.33 1014.77L2633.36 1017.28L2631.31 943.407L2630.62 914.679V914.222L2627.66 807.973L2718.63 805.693ZM2926.56 2061.31L3114.44 2060.4V2076.13L3114.89 2153.65L2983.56 2154.11H2979L2971.48 2154.33H2926.56L2907.86 2154.56H2903.76L2903.53 2061.31H2926.56ZM1270.58 2305.73L1272.17 2305.5L1273.31 2378.01V2379.6L1273.54 2397.62V2402.18L1118.04 2401.72H1085.44L1031.17 2401.49H1014.3V2400.81L1013.84 2381.43V2373.45L1013.16 2338.79L1012.7 2309.61V2309.38H1014.07L1022.51 2309.15H1025.01L1270.58 2305.73ZM2537.83 810.481L2540.11 894.387L2540.79 913.083L2541.48 945.688L2443.89 948.423L2443.21 929.044V923.799L2440.24 813.217L2537.83 810.481ZM2125.6 2753.3L2124.92 2917.24L2031.66 2916.78L2032.35 2797.77V2753.08L2125.6 2753.3ZM2126.27 2589.59L2125.81 2742.13L2125.58 2753.3L2032.33 2753.07L2032.56 2734.83L2033.01 2589.14L2095.94 2589.59H2126.27ZM1762.15 2915.64L1670.04 2915.19L1670.72 2758.32L1762.84 2758.78L1762.15 2915.64ZM1273.3 2490.87L1273.98 2587.31L1184.15 2586.86L1173.89 2587.08L1173.66 2496.57V2490.87H1273.3ZM1273.54 2402.18L1273.32 2490.87H1173.68L1119.87 2491.1H1084.76L1085.44 2401.72H1118.04L1273.54 2402.18ZM1076.08 1760.34H1087.02L1136.04 1759.66L1143.8 1759.43L1166.14 1759.2L1173.21 1758.97H1175.72L1187.57 1758.75H1200.8L1205.81 1758.52H1215.85L1242.52 1758.06L1254.61 1757.83H1263.27V1761.94L1263.5 1774.71V1786.11L1264.41 1848.58L1170.02 1849.95L1113.7 1850.63L1108.46 1850.86L1074.71 1851.32H1074.03L1072.89 1760.57H1073.34L1076.08 1760.34ZM1274 2587.31H1288.13L1311.62 2587.54V2619.24L1311.39 2627.22V2652.52L1311.16 2683.99V2696.76L1310.71 2789.78V2812.58L1310.48 2841.54V2851.34L1105.73 2849.98L1105.96 2838.12L1106.41 2741.22H1109.83L1130.58 2741.45H1164.33L1183.71 2741.67V2709.75L1184.16 2586.86L1274 2587.31ZM2847.66 2078.41H2767.86V1932.95L2847.44 1932.72L2847.66 2078.41ZM1074.03 1851.32H1074.71L1108.46 1850.86L1113.7 1850.63L1170.02 1849.95L1171.39 1943.2H1170.25L1062.17 1944.8L1006.54 1945.48V1935.68L1006.31 1921.32L1006.09 1903.08L1005.63 1883.92V1877.31L1005.17 1852.23L1029.34 1852L1036.64 1851.77L1074.03 1851.32ZM3114.22 1872.98V1967.14L2998.85 1967.37H2906.05V1872.98H3114.22ZM2619.68 1221.12L2619.45 1204.7L2619.23 1141.54L2473.53 1142.45L2474.21 1222.03L2582.06 1221.34L2606.68 1221.12H2619.68ZM2972.17 1053.53L3110.8 1052.39L3112.62 1226.82H3092.1L2963.28 1227.27H2923.84L2923.38 1180.07L2922.01 1054.44L2972.17 1053.53ZM2845.64 1247.1H2767.2L2766.98 1137.89H2845.64V1247.1ZM1524.58 1656.61L1536.21 1656.38L1587.96 1656.15L1588.88 1803.9L1553.76 1804.12L1510.44 1804.58H1506.57L1506.34 1656.61H1524.58ZM1426.3 1822.14L1427.21 1958.48L1343.08 1958.94L1342.17 1822.59L1426.3 1822.14ZM998.337 1495.4H999.021L1035.96 1494.72L1166.15 1492.89L1167.29 1581.59L999.933 1584.09L974.168 1584.32L972.8 1495.63L998.337 1495.4ZM1600.95 2750.8L1646.32 2751.02H1670.72V2758.32L1670.03 2915.19H1650.88L1580.88 2914.73L1581.34 2820.79V2799.13L1581.57 2782.94V2750.8H1600.95ZM3113.76 1473.06L3113.53 1486.97L3069.76 1486.74H3046.96L3042.4 1486.51H3016.18L2993.15 1486.28H2984.71L2974.91 1486.05H2972.4L2973.31 1394.85L2975.36 1395.08L3034.87 1395.54H3050.38L3114.22 1395.99L3113.99 1408.53L3113.76 1460.97V1473.06ZM982.84 758.266L1047.36 758.494V753.934H1049.64L1241.85 754.846L1242.08 663.872L1046.45 662.96L982.84 662.732H974.859L974.403 758.266H982.84ZM1046.9 844.91L1047.13 785.173L1047.36 758.496V753.936H1049.64L1238.43 754.848L1237.97 845.821L1046.9 844.91ZM2181.9 855.396L2181.22 917.413L2180.76 964.61L2180.08 1028.68L2179.85 1032.78L2043.51 1031.41V1026.4L2043.73 1014.77L2044.19 963.014L2044.42 947.281L2044.65 922.201L2045.1 884.352L2045.33 859.728V854.028L2144.97 854.94L2181.9 855.396ZM2875.28 749.376L2969.9 748.692L2971.26 930.638L2816.68 931.779L2815.54 802.273L2867.98 801.816L2867.52 749.604L2875.28 749.376ZM2838.79 2620.6L2839.02 2655.26V2659.59L2839.25 2709.98L2839.48 2737.34V2752.16L2743.94 2752.62V2730.5L2743.71 2723.43L2743.49 2643.17L2743.26 2595.75V2585.49L2838.79 2585.03V2620.6ZM3115.82 2432.5L3116.27 2528.04L2994.06 2528.26L2976.5 2528.49H2971.94L2895.56 2528.72L2895.34 2433.19L3115.82 2432.5ZM3116.26 2528.04L3116.49 2619.01L3010.01 2619.47H2976.72L2972.16 2619.69L2971.94 2528.49H2976.49L2994.05 2528.26L3116.26 2528.04ZM2899.43 2337.65L3115.58 2336.96L3115.81 2432.5L2895.33 2433.18L2894.87 2337.65H2899.43ZM2967.59 2337.42L2967.37 2246.45L3115.11 2245.99L3115.57 2336.97L2967.59 2337.42ZM2907.86 2154.56L2926.56 2154.33H2971.48L2979 2154.11H2983.56L3114.89 2153.65L3115.12 2245.76L2899.2 2246.68L2898.97 2194.69V2187.85L2898.74 2168.7V2154.56H2907.86ZM3114.2 1967.15L3114.43 2060.4H3085.25L3043.3 2060.63L2990.4 2060.86H2981.96L2971.02 2061.08V1967.37H2998.83L3114.2 1967.15ZM2940.7 1303.65L3102.58 1305.02H3114.89L3114.21 1395.99L3004.31 1395.31L2975.35 1395.08L2973.3 1394.85L2918.58 1394.62L2919.26 1331.92V1324.4L2919.49 1303.65H2940.7ZM2623.32 1822.82L2624 1937.5L2555.83 1937.96H2553.55L2552.87 1823.04L2623.32 1822.82ZM2551.72 1823.04H2552.86L2553.55 1937.96L2478.53 1938.41L2477.85 1823.5L2551.72 1823.04ZM2551.04 1707.22L2551.73 1823.04L2477.85 1823.5L2476.94 1707.67L2551.04 1707.22ZM2394.64 2604.41V2624.94L2393.27 2918.38L2304.58 2917.92L2305.26 2762.19L2305.95 2643.63V2603.96L2394.64 2604.41ZM2304.56 2917.92L2214.73 2917.46L2215.41 2761.74L2305.25 2762.19L2304.56 2917.92ZM2305.94 2643.63L2305.25 2762.2L2215.42 2761.74L2215.65 2742.36L2216.1 2618.33V2596.89L2305.94 2597.12V2643.63ZM2215.66 2742.36L2215.43 2761.74L2214.75 2917.47L2124.91 2917.24L2125.6 2753.31L2125.82 2742.13L2215.66 2742.36ZM2216.11 2590.05L2126.28 2589.59L2125.82 2742.13L2215.66 2742.36L2216.11 2618.32V2590.05ZM2847 1364.3H2767.2V1382.31L2767.42 1386.64V1475.79L2847 1475.57V1364.3ZM1839.68 1270.82L1753.27 1271.27L1752.36 1132.42L1838.77 1131.96L1839.68 1270.82ZM1422.88 1227.73L1423.56 1373.19L1339.43 1373.88L1338.52 1228.18L1422.88 1227.73ZM1084.76 2491.1L1014.31 2491.32L1014.53 2588L1036.88 2587.77H1051.47L1173.91 2587.09L1173.68 2496.57V2490.87L1119.87 2491.1H1084.76ZM1665.72 1507.95L1587.05 1508.4L1586.14 1361.57L1664.8 1361.11L1665.72 1507.95ZM1840.36 1407.17L1841.27 1539.18L1757.14 1539.64L1756.23 1407.62L1840.36 1407.17ZM1586.13 1361.56L1507.7 1362.02L1506.79 1214.27L1585.45 1213.82L1586.13 1361.56ZM1427.9 2085.93L1343.77 2086.39L1343.09 1958.94L1427.22 1958.48L1427.9 2085.93ZM1592.06 1954.15L1591.15 1803.9L1667.31 1803.44L1668.22 1953.7L1592.06 1954.15ZM1666.38 1655.69L1667.29 1803.44L1591.14 1803.89H1588.85L1587.94 1656.15L1666.38 1655.69ZM1666.4 1655.69L1587.96 1656.15L1587.05 1508.4L1665.71 1507.95L1666.4 1655.69ZM1492.87 2755.13L1493.1 2725.94L1493.55 2605.1L1582.25 2605.56L1581.79 2719.33V2732.78L1581.56 2733.92V2762.88L1492.87 2762.65V2755.13ZM1991.51 2241.43L1989.92 2423.38L1838.52 2422.01L1839.43 2325.34L1840.35 2240.06L1991.51 2241.43ZM1754.16 2324.65L1755.07 2239.38L1840.35 2240.06L1839.44 2325.34L1754.16 2324.65ZM1839.43 2325.34L1838.52 2422.01L1753.25 2421.33L1754.16 2330.35V2324.65L1839.43 2325.34ZM1625.35 2238.02L1755.08 2239.38L1754.17 2324.66V2330.36L1624.44 2328.99L1625.35 2238.02ZM1623.75 2419.96L1624.43 2328.98L1754.16 2330.35L1753.25 2421.33L1623.75 2419.96ZM2351.08 2335.82L2225 2334.68V2333.54L2225.91 2243.71L2351.99 2244.85L2351.08 2335.82ZM1058.75 1647.03L1058.98 1667.32L1169.79 1665.73L1169.56 1650.45L1168.65 1582.28L1168.42 1581.59H1166.82L1057.84 1583.19L1058.75 1647.03ZM1037.77 2716.82L1036.86 2603.96L1173.43 2603.05L1174.35 2739.4L1037.77 2740.31V2716.82ZM1046.9 568.571L1047.13 477.597L1075.18 477.825L1144.94 478.054L1144.72 569.027L1046.9 568.571ZM1047.58 403.035V386.618L1092.5 386.846H1095.23L1146.53 387.074L1146.08 478.048L1075.17 477.82L1047.12 477.592L1047.58 403.035ZM2972.63 1579.31L2971.95 1686.25H2958.27L2907.65 1685.79L2908.33 1579.08L2972.63 1579.31ZM1843.78 1943.43V1953.01L1757.37 1953.69V1944.12L1843.78 1943.43ZM1242.29 590.23L1242.06 659.316L1046.43 658.632L1046.66 647.004L1046.89 590.459V568.57L1144.7 569.026H1150.18L1203.76 569.254H1208.54L1235.22 569.482H1242.52V584.759L1242.29 590.23ZM1582.24 2581.84L1636.51 2582.07H1671.39V2617.64L1643.35 2617.41H1607.09L1582.24 2617.18V2581.84ZM1600.04 1339.91L1586.13 1340.13L1585.45 1224.99V1213.82L1663.88 1213.36L1664.34 1289.97L1664.57 1339.68H1647.01L1600.04 1339.91ZM1199.44 478.276L1240.48 478.504H1251.88L1251.42 569.477H1235.23L1150.19 569.022H1144.72V556.482L1144.94 491.956V478.048H1146.08L1199.44 478.276ZM1146.07 478.048L1146.3 424.01L1146.53 390.494H1172.98L1240.92 390.722V401.438L1240.47 478.504L1146.07 478.048ZM1072.66 295.873L1146.99 296.101L1146.53 387.075L999.697 386.619L986.245 386.391L986.701 295.417L1072.66 295.873ZM1292 296.786L1266.47 296.558L1072.66 295.874L1073.12 153.6L1305.23 154.512L1305 212.653L1304.54 296.786H1292ZM1782.89 156.563L1782.66 161.122V209.915L1782.2 306.589L1663.87 306.133L1664.32 180.275L1664.55 160.666V156.106L1782.89 156.563ZM1575.87 155.652L1664.57 156.108V160.668L1664.34 180.277V204.217L1663.88 303.854L1575.19 303.626L1575.64 195.097L1575.87 155.652ZM1829.87 317.081L1829.64 355.841L1970.77 356.298L1971 311.608L1971.46 195.099V157.25L1807.3 156.566H1782.9L1782.67 161.125V209.919L1782.22 306.592L1829.87 306.82V317.081ZM991.266 1216.79L991.038 1193.98L989.898 1123.53L1253.7 1119.66L1255.29 1212.91L1164.09 1214.28L1122.14 1214.73L1003.81 1216.56H997.877L991.266 1216.79ZM996.731 1123.53L995.135 1018.87H996.276L1155.65 1016.37V1024.35L1157.25 1121.02L1136.5 1121.25L996.731 1123.53ZM1157.24 1121.02L1155.65 1016.37L1252.32 1015L1253.69 1119.66L1157.24 1121.02ZM1957.77 1156.59L2003.15 1157.05L2002.46 1236.62L1957.09 1236.39L1957.77 1156.59ZM1957.08 1236.39L2002.46 1236.62L2001.77 1316.19L1956.4 1315.96L1957.08 1236.39ZM1956.41 1315.96L2001.79 1316.19L2001.1 1395.99L1955.73 1395.54L1956.41 1315.96ZM1955.73 1395.54L2001.11 1395.99L2000.42 1475.57L1954.82 1475.11L1955.73 1395.54ZM1954.81 1475.11L2000.42 1475.57L1999.73 1555.14L1954.13 1554.69L1954.81 1475.11ZM1954.12 1554.68L1999.72 1555.14L1999.04 1634.71L1953.44 1634.26L1954.12 1554.68ZM1953.43 1634.26L1999.03 1634.72L1998.35 1714.29L1952.75 1713.83L1953.43 1634.26ZM1952.76 1713.83L1998.37 1714.29L1997.68 1793.86L1952.08 1793.41L1952.76 1713.83ZM1952.07 1793.41L1997.68 1793.86L1996.99 1873.44L1951.39 1873.21L1952.07 1793.41ZM1951.39 1873.21L1996.99 1873.44L1996.08 1953.01L1950.71 1952.78L1951.39 1873.21ZM2182.59 1158.64L2227.97 1159.1L2227.28 1238.67L2181.91 1238.22L2182.59 1158.64ZM2181.9 1238.22L2227.28 1238.67L2226.59 1318.24L2181.22 1317.79L2181.9 1238.22ZM2181.21 1317.79L2226.59 1318.24L2225.9 1397.82L2180.53 1397.59L2181.21 1317.79ZM2180.55 1397.59L2225.92 1397.82L2225.24 1477.39L2179.86 1477.16L2180.55 1397.59ZM2179.85 1477.16L2225.23 1477.39L2224.54 1557.19L2179.17 1556.74L2179.85 1477.16ZM2179.17 1556.74L2224.55 1557.19L2223.86 1636.77L2178.26 1636.31L2179.17 1556.74ZM2178.25 1636.31L2223.85 1636.77L2223.17 1716.34L2177.57 1715.88L2178.25 1636.31ZM2177.56 1715.88L2223.16 1716.34L2222.48 1795.91L2176.88 1795.46L2177.56 1715.88ZM2176.89 1795.46L2222.49 1795.91L2221.81 1875.49L2176.21 1875.03L2176.89 1795.46ZM2176.2 1875.03L2221.81 1875.49L2221.12 1955.06L2175.52 1954.6L2176.2 1875.03ZM1341.24 1675.76V1664.81H1340.1V1660.93L1339.19 1528.24V1522.76H1340.33V1503.61L1338.51 1228.18L1338.05 1126.49L1422.19 1126.04L1422.87 1227.73L1423.55 1373.19L1427.2 1958.48L1427.89 2085.93L1343.75 2086.39L1343.07 1958.94L1341.24 1675.76ZM1843.78 1953.01L1843.33 1872.3L1842.87 1812.1L1842.19 1675.53L1841.5 1563.81L1841.28 1539.18L1840.36 1407.17L1839.68 1270.82L1838.77 1131.97L1752.36 1132.42L1752.81 1214.96L1753.27 1271.28L1753.95 1407.85L1755.78 1676.21L1756.46 1812.56L1758.06 2048.09L1758.28 2090.04L1844.7 2089.59L1985.6 2088.67L1984.92 1979.46L1844.01 1980.37L1843.78 1953.01ZM2478.55 1938.42L2479.23 2079.55L2624.93 2078.64L2619.68 1221.12L2619.45 1204.7L2619.23 1141.54L2473.53 1142.46L2474.21 1222.03L2474.9 1367.5L2476.95 1707.68L2477.86 1823.51L2478.55 1938.42ZM2767.89 1932.95V2078.41H2847.69L2847.46 1932.72V1819.17L2847.23 1705.4V1591.62L2847 1475.57V1364.3H2851.56L2851.34 1354.5V1247.11H2845.64V1137.9H2766.98L2767.2 1247.11V1382.32L2767.43 1386.65V1591.62L2767.66 1705.4V1819.17L2767.89 1932.95ZM1757.37 1953.69L1756.46 1812.56L1842.87 1812.1L1843.78 1953.01L1757.37 1953.69ZM3112.85 1580.22L3112.17 1687.15L2968.98 1686.24H2958.27L2907.65 1685.79L2908.33 1579.08L3112.85 1580.22ZM1010.41 2127.43L1009.27 2037.6L1166.14 2035.32L1167.28 2125.15L1010.41 2127.43ZM1582.25 2605.55L1581.79 2719.33V2732.78L1581.56 2733.92V2760.14L1492.87 2759.69V2755.13L1493.55 2605.1L1582.25 2605.55ZM1647.92 1750.77L1638.57 1745.75L1630.14 1716.57L1635.15 1707.22L1642.45 1704.94L1651.8 1710.18L1660.46 1739.14L1655.22 1748.72L1647.92 1750.77ZM1943.42 2051.5L1934.07 2046.49L1925.41 2017.3L1930.65 2007.96L1937.95 2005.9L1947.3 2010.92L1955.73 2040.1L1950.72 2049.45L1943.42 2051.5ZM2360.44 1786.57L2350.87 1781.32L2342.43 1752.37L2347.67 1742.79L2354.74 1740.74L2364.32 1745.98L2372.76 1774.94L2367.51 1784.51L2360.44 1786.57ZM2532.11 1556.74L2522.76 1551.49L2514.1 1522.31L2519.34 1512.96L2526.64 1510.91L2535.99 1515.92L2544.43 1545.11L2539.41 1554.46L2532.11 1556.74ZM1986.05 1203.79L1981.26 1201.28L1976.93 1186.69L1979.67 1182.13L1983.32 1180.99L1987.88 1183.49L1992.21 1198.09L1989.7 1202.87L1986.05 1203.79ZM2216.33 1923.37L2211.54 1920.86L2207.21 1906.27L2209.94 1901.48L2213.59 1900.57L2218.15 1903.08L2222.48 1917.67L2219.97 1922.23L2216.33 1923.37ZM2833.77 2013.2L2826.71 2009.32L2820.32 1987.66L2824.2 1980.6L2829.67 1979L2836.74 1982.88L2843.12 2004.54L2839.25 2011.6L2833.77 2013.2ZM1700.35 2293.65L1695.79 2291.14L1691.46 2276.55L1693.96 2271.76L1697.61 2270.85L1702.4 2273.36L1706.5 2287.95L1704 2292.51L1700.35 2293.65Z" stroke="black" stroke-width="1.68723" stroke-linecap="round" stroke-linejoin="round" fill="none"/>
<!-- Block 1 - Start -->
<g name="2009">
<rect x="0.503005" y="0.49773" width="84.229" height="101" transform="matrix(0.99999 -0.00452114 0.00601982 0.999982 1338 1125.56)" fill="#46E488"/>
<rect x="0.503005" y="0.49773" width="84.229" height="101" transform="matrix(0.99999 -0.00452114 0.00601982 0.999982 1338 1125.56)" stroke="black" fill="none"/>
<text transform="matrix(0.99999 -0.00452114 0.00601982 0.999982 1370.29 1155.41)" fill="black" xml:space="preserve" style="white-space: pre" font-family="Arial" font-size="36" letter-spacing="0em"><tspan x="0.375" y="33.3047">1</tspan></text>
</g>
<g name="2010">
<rect x="0.503005" y="0.49773" width="84.229" height="144" transform="matrix(0.99999 -0.00452114 0.00601982 0.999982 1338.46 1227.55)" fill="#46E488"/>
<rect x="0.503005" y="0.49773" width="84.229" height="144" transform="matrix(0.99999 -0.00452114 0.00601982 0.999982 1338.46 1227.55)" stroke="black" fill="none"/>
<text transform="matrix(0.99999 -0.00452114 0.00601982 0.999982 1370.89 1278.91)" fill="black" xml:space="preserve" style="white-space: pre" font-family="Arial" font-size="36" letter-spacing="0em"><tspan x="0.375" y="33.3047">2</tspan></text>
</g>
<g name="2011">
<rect x="0.503005" y="0.49773" width="84.229" height="148" transform="matrix(0.99999 -0.00452114 0.00601982 0.999982 1339.11 1372.55)" fill="#46E488"/>
<rect x="0.503005" y="0.49773" width="84.229" height="148" transform="matrix(0.99999 -0.00452114 0.00601982 0.999982 1339.11 1372.55)" stroke="black" fill="none"/>
<text transform="matrix(0.99999 -0.00452114 0.00601982 0.999982 1371.55 1425.9)" fill="black" xml:space="preserve" style="white-space: pre" font-family="Arial" font-size="36" letter-spacing="0em"><tspan x="0.375" y="33.3047">3</tspan></text>
</g>
<g name="2012">
<rect x="0.503005" y="0.49773" width="84.229" height="153" transform="matrix(0.99999 -0.00452114 0.00601982 0.999982 1339.79 1521.55)" fill="#46E488"/>
<rect x="0.503005" y="0.49773" width="84.229" height="153" transform="matrix(0.99999 -0.00452114 0.00601982 0.999982 1339.79 1521.55)" stroke="black" fill="none"/>
<text transform="matrix(0.99999 -0.00452114 0.00601982 0.999982 1372.24 1577.4)" fill="black" xml:space="preserve" style="white-space: pre" font-family="Arial" font-size="36" letter-spacing="0em"><tspan x="0.375" y="33.3047">4</tspan></text>
</g>
<g name="2013">
<rect x="0.503005" y="0.49773" width="84.229" height="146" transform="matrix(0.99999 -0.00452114 0.00601982 0.999982 1340.48 1675.55)" fill="#46E488"/>
<rect x="0.503005" y="0.49773" width="84.229" height="146" transform="matrix(0.99999 -0.00452114 0.00601982 0.999982 1340.48 1675.55)" stroke="black" fill="none"/>
<text transform="matrix(0.99999 -0.00452114 0.00601982 0.999982 1372.92 1727.9)" fill="black" xml:space="preserve" style="white-space: pre" font-family="Arial" font-size="36" letter-spacing="0em"><tspan x="0.375" y="33.3047">5</tspan></text>
</g>
<g name="2014">
<rect x="0.503005" y="0.49773" width="84.229" height="135" transform="matrix(0.99999 -0.00452114 0.00601982 0.999982 1341.15 1822.55)" fill="#46E488"/>
<rect x="0.503005" y="0.49773" width="84.229" height="135" transform="matrix(0.99999 -0.00452114 0.00601982 0.999982 1341.15 1822.55)" stroke="black" fill="none"/>
<text transform="matrix(0.99999 -0.00452114 0.00601982 0.999982 1373.55 1869.4)" fill="black" xml:space="preserve" style="white-space: pre" font-family="Arial" font-size="36" letter-spacing="0em"><tspan x="0.375" y="33.3047">6</tspan></text>
</g>
<g name="2015">
<rect x="0.503005" y="0.49773" width="84.229" height="127" transform="matrix(0.99999 -0.00452114 0.00601982 0.999982 1341.76 1958.55)" fill="#46E488"/>
<rect x="0.503005" y="0.49773" width="84.229" height="127" transform="matrix(0.99999 -0.00452114 0.00601982 0.999982 1341.76 1958.55)" stroke="black" fill="none"/>
<text transform="matrix(0.99999 -0.00452114 0.00601982 0.999982 1374.14 2001.4)" fill="black" xml:space="preserve" style="white-space: pre" font-family="Arial" font-size="36" letter-spacing="0em"><tspan x="0.375" y="33.3047">7</tspan></text>
</g>
<g name="2016">
<rect x="0.503546" y="0.497183" width="157" height="131" transform="matrix(0.999984 -0.00560869 0.00710736 0.999975 1510.95 1954.44)" fill="#46E488"/>
<rect x="0.503546" y="0.497183" width="157" height="131" transform="matrix(0.999984 -0.00560869 0.00710736 0.999975 1510.95 1954.44)" stroke="black" fill="none"/>
<text transform="matrix(0.999984 -0.00560869 0.00710736 0.999975 1579.77 1999.05)" fill="black" xml:space="preserve" style="white-space: pre" font-family="Arial" font-size="36" letter-spacing="0em"><tspan x="0.375" y="33.3047">8</tspan></text>
</g>
<g name="2017">
<rect x="0.503546" y="0.497183" width="78" height="147" transform="matrix(0.999984 -0.00560869 0.00710736 0.999975 1589.12 1806)" fill="#46E488"/>
<rect x="0.503546" y="0.497183" width="78" height="147" transform="matrix(0.999984 -0.00560869 0.00710736 0.999975 1589.12 1806)" stroke="black" fill="none"/>
<text transform="matrix(0.999984 -0.00560869 0.00710736 0.999975 1618.5 1858.83)" fill="black" xml:space="preserve" style="white-space: pre" font-family="Arial" font-size="36" letter-spacing="0em"><tspan x="0.375" y="33.3047">9</tspan></text>
</g>
<g name="2018">
<rect x="0.503546" y="0.497183" width="78" height="147" transform="matrix(0.999984 -0.00560869 0.00710736 0.999975 1588.29 1658)" fill="#46E488"/>
<rect x="0.503546" y="0.497183" width="78" height="147" transform="matrix(0.999984 -0.00560869 0.00710736 0.999975 1588.29 1658)" stroke="black" fill="none"/>
<text transform="matrix(0.999984 -0.00560869 0.00710736 0.999975 1607.67 1710.89)" fill="black" xml:space="preserve" style="white-space: pre" font-family="Arial" font-size="36" letter-spacing="0em"><tspan x="0.25" y="33.3047">10</tspan></text>
</g>
<g name="2019">
<rect x="0.503546" y="0.497183" width="78" height="147" transform="matrix(0.999984 -0.00560869 0.00710736 0.999975 1587.46 1510)" fill="#46E488"/>
<rect x="0.503546" y="0.497183" width="78" height="147" transform="matrix(0.999984 -0.00560869 0.00710736 0.999975 1587.46 1510)" stroke="black" fill="none"/>
<text transform="matrix(0.999984 -0.00560869 0.00710736 0.999975 1606.84 1562.89)" fill="black" xml:space="preserve" style="white-space: pre" font-family="Arial" font-size="36" letter-spacing="0em"><tspan x="0.25" y="33.3047">11</tspan></text>
</g>
<g name="2020">
<rect x="0.503546" y="0.497183" width="78" height="147" transform="matrix(0.999984 -0.00560869 0.00710736 0.999975 1586.63 1362.01)" fill="#46E488"/>
<rect x="0.503546" y="0.497183" width="78" height="147" transform="matrix(0.999984 -0.00560869 0.00710736 0.999975 1586.63 1362.01)" stroke="black" fill="none"/>
<text transform="matrix(0.999984 -0.00560869 0.00710736 0.999975 1606.01 1414.9)" fill="black" xml:space="preserve" style="white-space: pre" font-family="Arial" font-size="36" letter-spacing="0em"><tspan x="0.25" y="33.3047">12</tspan></text>
</g>
<g name="2021">
<rect x="0.503546" y="0.497183" width="78" height="147" transform="matrix(0.999984 -0.00560869 0.00710736 0.999975 1585.8 1214.01)" fill="#46E488"/>
<rect x="0.503546" y="0.497183" width="78" height="147" transform="matrix(0.999984 -0.00560869 0.00710736 0.999975 1585.8 1214.01)" stroke="black" fill="none"/>
<text transform="matrix(0.999984 -0.00560869 0.00710736 0.999975 1605.18 1266.9)" fill="black" xml:space="preserve" style="white-space: pre" font-family="Arial" font-size="36" letter-spacing="0em"><tspan x="0.25" y="33.3047">13</tspan></text>
</g>
<g name="2022">
<rect x="0.503546" y="0.497183" width="157" height="87" transform="matrix(0.999984 -0.00560869 0.00710736 0.999975 1506.31 1126.45)" fill="#46E488"/>
<rect x="0.503546" y="0.497183" width="157" height="87" transform="matrix(0.999984 -0.00560869 0.00710736 0.999975 1506.31 1126.45)" stroke="black" fill="none"/>
<text transform="matrix(0.999984 -0.00560869 0.00710736 0.999975 1564.97 1149.12)" fill="black" xml:space="preserve" style="white-space: pre" font-family="Arial" font-size="36" letter-spacing="0em"><tspan x="0.25" y="33.3047">14</tspan></text>
</g>
<g name="2023">
<rect x="0.503546" y="0.497183" width="78" height="147" transform="matrix(0.999984 -0.00560869 0.00710736 0.999975 1510.12 1806.44)" fill="#46E488"/>
<rect x="0.503546" y="0.497183" width="78" height="147" transform="matrix(0.999984 -0.00560869 0.00710736 0.999975 1510.12 1806.44)" stroke="black" fill="none"/>
<text transform="matrix(0.999984 -0.00560869 0.00710736 0.999975 1529.5 1859.33)" fill="black" xml:space="preserve" style="white-space: pre" font-family="Arial" font-size="36" letter-spacing="0em"><tspan x="0.25" y="33.3047">15</tspan></text>
</g>
<g name="2024">
<rect x="0.503546" y="0.497183" width="78" height="147" transform="matrix(0.999984 -0.00560869 0.00710736 0.999975 1509.29 1658.45)" fill="#46E488"/>
<rect x="0.503546" y="0.497183" width="78" height="147" transform="matrix(0.999984 -0.00560869 0.00710736 0.999975 1509.29 1658.45)" stroke="black" fill="none"/>
<text transform="matrix(0.999984 -0.00560869 0.00710736 0.999975 1528.67 1711.33)" fill="black" xml:space="preserve" style="white-space: pre" font-family="Arial" font-size="36" letter-spacing="0em"><tspan x="0.25" y="33.3047">16</tspan></text>
</g>
<g name="2025">
<rect x="0.503546" y="0.497183" width="78" height="147" transform="matrix(0.999984 -0.00560869 0.00710736 0.999975 1508.46 1510.45)" fill="#46E488"/>
<rect x="0.503546" y="0.497183" width="78" height="147" transform="matrix(0.999984 -0.00560869 0.00710736 0.999975 1508.46 1510.45)" stroke="black" fill="none"/>
<text transform="matrix(0.999984 -0.00560869 0.00710736 0.999975 1527.84 1563.34)" fill="black" xml:space="preserve" style="white-space: pre" font-family="Arial" font-size="36" letter-spacing="0em"><tspan x="0.25" y="33.3047">17</tspan></text>
</g>
<g name="2026">
<rect x="0.503546" y="0.497183" width="78" height="147" transform="matrix(0.999984 -0.00560869 0.00710736 0.999975 1507.63 1362.45)" fill="#46E488"/>
<rect x="0.503546" y="0.497183" width="78" height="147" transform="matrix(0.999984 -0.00560869 0.00710736 0.999975 1507.63 1362.45)" stroke="black" fill="none"/>
<text transform="matrix(0.999984 -0.00560869 0.00710736 0.999975 1527.01 1415.34)" fill="black" xml:space="preserve" style="white-space: pre" font-family="Arial" font-size="36" letter-spacing="0em"><tspan x="0.25" y="33.3047">18</tspan></text>
</g>
<g name="2027">
<rect x="0.503546" y="0.497183" width="78" height="147" transform="matrix(0.999984 -0.00560869 0.00710736 0.999975 1506.8 1214.45)" fill="#46E488"/>
<rect x="0.503546" y="0.497183" width="78" height="147" transform="matrix(0.999984 -0.00560869 0.00710736 0.999975 1506.8 1214.45)" stroke="black" fill="none"/>
<text transform="matrix(0.999984 -0.00560869 0.00710736 0.999975 1526.18 1267.34)" fill="black" xml:space="preserve" style="white-space: pre" font-family="Arial" font-size="36" letter-spacing="0em"><tspan x="0.25" y="33.3047">19</tspan></text>
</g>
<g name="2028">
<rect x="0.500761" y="0.499999" width="145" height="109" transform="matrix(1 0 0.00152217 0.999999 1839.04 1980)" fill="#46E488"/>
<rect x="0.500761" y="0.499999" width="145" height="109" transform="matrix(1 0 0.00152217 0.999999 1839.04 1980)" stroke="black" fill="none"/>
<text transform="matrix(1 0 0.00152217 0.999999 1891.59 2014)" fill="black" xml:space="preserve" style="white-space: pre" font-family="Arial" font-size="36" letter-spacing="0em"><tspan x="0.25" y="33.3047">20</tspan></text>
</g>
<g name="2029">
<rect x="0.500761" y="0.499999" width="86" height="135.857" transform="matrix(1 0 0.00152217 0.999999 1752 1953.14)" fill="#46E488"/>
<rect x="0.500761" y="0.499999" width="86" height="135.857" transform="matrix(1 0 0.00152217 0.999999 1752 1953.14)" stroke="black" fill="none"/>
<text transform="matrix(1 0 0.00152217 0.999999 1775.07 2000.57)" fill="black" xml:space="preserve" style="white-space: pre" font-family="Arial" font-size="36" letter-spacing="0em"><tspan x="0.25" y="33.3047">21</tspan></text>
</g>
<g name="2030">
<rect x="0.500761" y="0.499999" width="86" height="135.857" transform="matrix(1 0 0.00152217 0.999999 1752 1816.29)" fill="#46E488"/>
<rect x="0.500761" y="0.499999" width="86" height="135.857" transform="matrix(1 0 0.00152217 0.999999 1752 1816.29)" stroke="black" fill="none"/>
<text transform="matrix(1 0 0.00152217 0.999999 1775.07 1863.71)" fill="black" xml:space="preserve" style="white-space: pre" font-family="Arial" font-size="36" letter-spacing="0em"><tspan x="0.25" y="33.3047">22</tspan></text>
</g>
<g name="2031">
<rect x="0.500761" y="0.499999" width="86" height="135.857" transform="matrix(1 0 0.00152217 0.999999 1752 1679.43)" fill="#46E488"/>
<rect x="0.500761" y="0.499999" width="86" height="135.857" transform="matrix(1 0 0.00152217 0.999999 1752 1679.43)" stroke="black" fill="none"/>
<text transform="matrix(1 0 0.00152217 0.999999 1775.07 1726.86)" fill="black" xml:space="preserve" style="white-space: pre" font-family="Arial" font-size="36" letter-spacing="0em"><tspan x="0.25" y="33.3047">23</tspan></text>
</g>
<g name="2032">
<rect x="0.500761" y="0.499999" width="86" height="135.857" transform="matrix(1 0 0.00152217 0.999999 1752 1542.57)" fill="#46E488"/>
<rect x="0.500761" y="0.499999" width="86" height="135.857" transform="matrix(1 0 0.00152217 0.999999 1752 1542.57)" stroke="black" fill="none"/>
<text transform="matrix(1 0 0.00152217 0.999999 1775.07 1590)" fill="black" xml:space="preserve" style="white-space: pre" font-family="Arial" font-size="36" letter-spacing="0em"><tspan x="0.25" y="33.3047">24</tspan></text>
</g>
<!-- Empty -->
<rect x="0.500761" y="0.499999" width="86" height="135.857" transform="matrix(1 0 0.00152217 0.999999 1752 1405.71)" fill="#AEAEAE"/>
<rect x="0.500761" y="0.499999" width="86" height="135.857" transform="matrix(1 0 0.00152217 0.999999 1752 1405.71)" stroke="black" fill="none"/>
<!-- Empty -->
<g name="2033">
<rect x="0.500761" y="0.499999" width="86" height="135.857" transform="matrix(1 0 0.00152217 0.999999 1752 1268.86)" fill="#46E488"/>
<rect x="0.500761" y="0.499999" width="86" height="135.857" transform="matrix(1 0 0.00152217 0.999999 1752 1268.86)" stroke="black" fill="none"/>
<text transform="matrix(1 0 0.00152217 0.999999 1775.07 1316.29)" fill="black" xml:space="preserve" style="white-space: pre" font-family="Arial" font-size="36" letter-spacing="0em"><tspan x="0.25" y="33.3047">25</tspan></text>
</g>
<g name="2034">
<rect x="0.500749" y="0.499999" width="86" height="135.857" transform="matrix(1 0 0.0014987 0.999999 1752 1132)" fill="#46E488"/>
<rect x="0.500749" y="0.499999" width="86" height="135.857" transform="matrix(1 0 0.0014987 0.999999 1752 1132)" stroke="black" fill="none"/>
<text transform="matrix(1 0 0.0014987 0.999999 1775.07 1179.43)" fill="black" xml:space="preserve" style="white-space: pre" font-family="Arial" font-size="36" letter-spacing="0em"><tspan x="0.25" y="33.3047">26</tspan></text>
</g>
<g name="2035">
<rect x="0.500761" y="0.499999" width="159" height="106" transform="matrix(1 0 0.00152217 0.999999 2135 1974)" fill="#46E488"/>
<rect x="0.500761" y="0.499999" width="159" height="106" transform="matrix(1 0 0.00152217 0.999999 2135 1974)" stroke="black" fill="none"/>
<text transform="matrix(1 0 0.00152217 0.999999 2194.55 2006.5)" fill="black" xml:space="preserve" style="white-space: pre" font-family="Arial" font-size="36" letter-spacing="0em"><tspan x="0.25" y="33.3047">27</tspan></text>
</g>
<g name="2036">
<rect x="0.500765" y="0.499999" width="86" height="142" transform="matrix(1 0 0.00153015 0.999999 2295 1938)" fill="#46E488"/>
<rect x="0.500765" y="0.499999" width="86" height="142" transform="matrix(1 0 0.00153015 0.999999 2295 1938)" stroke="black" fill="none"/>
<text transform="matrix(1 0 0.00153015 0.999999 2318.08 1988.5)" fill="black" xml:space="preserve" style="white-space: pre" font-family="Arial" font-size="36" letter-spacing="0em"><tspan x="0.25" y="33.3047">28</tspan></text>
</g>
<g name="2037">
<rect x="0.500726" y="0.499999" width="86" height="116" transform="matrix(1 0 0.0014517 0.999999 2295.04 1821)" fill="#46E488"/>
<rect x="0.500726" y="0.499999" width="86" height="116" transform="matrix(1 0 0.0014517 0.999999 2295.04 1821)" stroke="black" fill="none"/>
<text transform="matrix(1 0 0.0014517 0.999999 2318.09 1858.5)" fill="black" xml:space="preserve" style="white-space: pre" font-family="Arial" font-size="36" letter-spacing="0em"><tspan x="0.25" y="33.3047">29</tspan></text>
</g>
<g name="2038">
<rect x="0.500726" y="0.499999" width="86" height="114" transform="matrix(1 0 0.0014517 0.999999 2295 1706)" fill="#46E488"/>
<rect x="0.500726" y="0.499999" width="86" height="114" transform="matrix(1 0 0.0014517 0.999999 2295 1706)" stroke="black" fill="none"/>
<text transform="matrix(1 0 0.0014517 0.999999 2318.05 1742.5)" fill="black" xml:space="preserve" style="white-space: pre" font-family="Arial" font-size="36" letter-spacing="0em"><tspan x="0.25" y="33.3047">30</tspan></text>
</g>
<g name="2039">
<rect x="0.500726" y="0.499999" width="86" height="113" transform="matrix(1 0 0.0014517 0.999999 2295 1592)" fill="#46E488"/>
<rect x="0.500726" y="0.499999" width="86" height="113" transform="matrix(1 0 0.0014517 0.999999 2295 1592)" stroke="black" fill="none"/>
<text transform="matrix(1 0 0.0014517 0.999999 2318.05 1628)" fill="black" xml:space="preserve" style="white-space: pre" font-family="Arial" font-size="36" letter-spacing="0em"><tspan x="0.25" y="33.3047">31</tspan></text>
</g>
<g name="2040">
<rect x="0.500726" y="0.499999" width="86" height="114" transform="matrix(1 0 0.0014517 0.999999 2295 1477)" fill="#46E488"/>
<rect x="0.500726" y="0.499999" width="86" height="114" transform="matrix(1 0 0.0014517 0.999999 2295 1477)" stroke="black" fill="none"/>
<text transform="matrix(1 0 0.0014517 0.999999 2318.05 1513.5)" fill="black" xml:space="preserve" style="white-space: pre" font-family="Arial" font-size="36" letter-spacing="0em"><tspan x="0.25" y="33.3047">32</tspan></text>
</g>
<g name="2041">
<rect x="0.500726" y="0.499999" width="86" height="111" transform="matrix(1 0 0.0014517 0.999999 2295 1365)" fill="#46E488"/>
<rect x="0.500726" y="0.499999" width="86" height="111" transform="matrix(1 0 0.0014517 0.999999 2295 1365)" stroke="black" fill="none"/>
<text transform="matrix(1 0 0.0014517 0.999999 2318.05 1400)" fill="black" xml:space="preserve" style="white-space: pre" font-family="Arial" font-size="36" letter-spacing="0em"><tspan x="0.25" y="33.3047">33</tspan></text>
</g>
<g name="2042">
<rect x="0.500726" y="0.499999" width="86" height="142" transform="matrix(1 0 0.0014517 0.999999 2294.96 1222)" fill="#46E488"/>
<rect x="0.500726" y="0.499999" width="86" height="142" transform="matrix(1 0 0.0014517 0.999999 2294.96 1222)" stroke="black" fill="none"/>
<text transform="matrix(1 0 0.0014517 0.999999 2318.03 1272.5)" fill="black" xml:space="preserve" style="white-space: pre" font-family="Arial" font-size="36" letter-spacing="0em"><tspan x="0.25" y="33.3047">34</tspan></text>
</g>
<g name="2043">
<rect x="0.500765" y="0.499999" width="86" height="84" transform="matrix(1 0 0.00153015 0.999999 2295 1137)" fill="#46E488"/>
<rect x="0.500765" y="0.499999" width="86" height="84" transform="matrix(1 0 0.00153015 0.999999 2295 1137)" stroke="black" fill="none"/>
<text transform="matrix(1 0 0.00153015 0.999999 2318.03 1158.5)" fill="black" xml:space="preserve" style="white-space: pre" font-family="Arial" font-size="36" letter-spacing="0em"><tspan x="0.25" y="33.3047">35</tspan></text>
</g>
<g name="2044">
<rect x="0.501046" y="0.499999" width="71.8977" height="141" transform="matrix(1 -1.45359e-10 0.00209252 0.999998 2474 1938)" fill="#46E488"/>
<rect x="0.501046" y="0.499999" width="71.8977" height="141" transform="matrix(1 -1.45359e-10 0.00209252 0.999998 2474 1938)" stroke="black" fill="none"/>
<text transform="matrix(1 -1.45359e-10 0.00209252 0.999998 2490.05 1988)" fill="black" xml:space="preserve" style="white-space: pre" font-family="Arial" font-size="36" letter-spacing="0em"><tspan x="0.25" y="33.3047">36</tspan></text>
</g>
<g name="2045">
<rect x="0.501046" y="0.499999" width="71.8977" height="114" transform="matrix(1 -1.45359e-10 0.00209252 0.999998 2474 1823)" fill="#46E488"/>
<rect x="0.501046" y="0.499999" width="71.8977" height="114" transform="matrix(1 -1.45359e-10 0.00209252 0.999998 2474 1823)" stroke="black" fill="none"/>
<text transform="matrix(1 -1.45359e-10 0.00209252 0.999998 2490.03 1859.5)" fill="black" xml:space="preserve" style="white-space: pre" font-family="Arial" font-size="36" letter-spacing="0em"><tspan x="0.25" y="33.3047">37</tspan></text>
</g>
<g name="2046">
<rect x="0.501046" y="0.499999" width="71.8977" height="115" transform="matrix(1 -1.45359e-10 0.00209252 0.999998 2474 1707)" fill="#46E488"/>
<rect x="0.501046" y="0.499999" width="71.8977" height="115" transform="matrix(1 -1.45359e-10 0.00209252 0.999998 2474 1707)" stroke="black" fill="none"/>
<text transform="matrix(1 -1.45359e-10 0.00209252 0.999998 2490.03 1744)" fill="black" xml:space="preserve" style="white-space: pre" font-family="Arial" font-size="36" letter-spacing="0em"><tspan x="0.25" y="33.3047">38</tspan></text>
</g>
<g name="2047">
<rect x="0.501046" y="0.499999" width="71.8977" height="112" transform="matrix(1 -1.45359e-10 0.00209252 0.999998 2474 1594)" fill="#46E488"/>
<rect x="0.501046" y="0.499999" width="71.8977" height="112" transform="matrix(1 -1.45359e-10 0.00209252 0.999998 2474 1594)" stroke="black" fill="none"/>
<text transform="matrix(1 -1.45359e-10 0.00209252 0.999998 2490.02 1629.5)" fill="black" xml:space="preserve" style="white-space: pre" font-family="Arial" font-size="36" letter-spacing="0em"><tspan x="0.25" y="33.3047">39</tspan></text>
</g>
<g name="2048">
<rect x="0.501046" y="0.499999" width="71.8977" height="112" transform="matrix(1 -1.45359e-10 0.00209252 0.999998 2474 1481)" fill="#46E488"/>
<rect x="0.501046" y="0.499999" width="71.8977" height="112" transform="matrix(1 -1.45359e-10 0.00209252 0.999998 2474 1481)" stroke="black" fill="none"/>
<text transform="matrix(1 -1.45359e-10 0.00209252 0.999998 2490.02 1516.5)" fill="black" xml:space="preserve" style="white-space: pre" font-family="Arial" font-size="36" letter-spacing="0em"><tspan x="0.25" y="33.3047">40</tspan></text>
</g>
<g name="2049">
<rect x="0.500749" y="0.499999" width="71.8977" height="147" transform="matrix(1 -2.02954e-10 0.0014987 0.999999 2474 1221)" fill="#46E488"/>
<rect x="0.500749" y="0.499999" width="71.8977" height="147" transform="matrix(1 -2.02954e-10 0.0014987 0.999999 2474 1221)" stroke="black" fill="none"/>
<text transform="matrix(1 -2.02953e-10 0.0014987 0.999999 2490.03 1274)" fill="black" xml:space="preserve" style="white-space: pre" font-family="Arial" font-size="36" letter-spacing="0em"><tspan x="0.25" y="33.3047">41</tspan></text>
</g>
<g name="2050">
<rect x="0.500749" y="0.499999" width="145" height="79" transform="matrix(1 -2.02954e-10 0.0014987 0.999999 2474 1142)" fill="#46E488"/>
<rect x="0.500749" y="0.499999" width="145" height="79" transform="matrix(1 -2.02954e-10 0.0014987 0.999999 2474 1142)" stroke="black" fill="none"/>
<text transform="matrix(1 -2.02953e-10 0.0014987 0.999999 2526.53 1161)" fill="black" xml:space="preserve" style="white-space: pre" font-family="Arial" font-size="36" letter-spacing="0em"><tspan x="0.25" y="33.3047">42</tspan></text>
</g>
<g name="2051">
<rect x="0.500691" y="0.499999" width="72.1587" height="147" transform="matrix(1 -2.19943e-10 0.00138293 0.999999 2546.9 1221)" fill="#46E488"/>
<rect x="0.500691" y="0.499999" width="72.1587" height="147" transform="matrix(1 -2.19943e-10 0.00138293 0.999999 2546.9 1221)" stroke="black" fill="none"/>
<text transform="matrix(1 -2.19943e-10 0.00138293 0.999999 2563.05 1274)" fill="black" xml:space="preserve" style="white-space: pre" font-family="Arial" font-size="36" letter-spacing="0em"><tspan x="0.25" y="33.3047">43</tspan></text>
</g>
<!-- Empty -->
<rect x="0.501046" y="0.499999" width="71.8977" height="111" transform="matrix(1 -1.45359e-10 0.00209252 0.999998 2474 1369)" fill="#AEAEAE"/>
<rect x="0.501046" y="0.499999" width="71.8977" height="111" transform="matrix(1 -1.45359e-10 0.00209252 0.999998 2474 1369)" stroke="black" fill="none"/>
<!-- Empty -->
<g name="2052">
<rect x="0.500965" y="0.499999" width="72.1587" height="111" transform="matrix(1 -1.57527e-10 0.00193089 0.999998 2546.9 1369)" fill="#46E488"/>
<rect x="0.500965" y="0.499999" width="72.1587" height="111" transform="matrix(1 -1.57527e-10 0.00193089 0.999998 2546.9 1369)" stroke="black" fill="none"/>
<text transform="matrix(1 -1.57527e-10 0.00193089 0.999998 2563.04 1404)" fill="black" xml:space="preserve" style="white-space: pre" font-family="Arial" font-size="36" letter-spacing="0em"><tspan x="0.25" y="33.3047">44</tspan></text>
</g>
<g name="2053">
<rect x="0.500965" y="0.499999" width="72.1587" height="112" transform="matrix(1 -1.57527e-10 0.00193089 0.999998 2546.9 1481)" fill="#46E488"/>
<rect x="0.500965" y="0.499999" width="72.1587" height="112" transform="matrix(1 -1.57527e-10 0.00193089 0.999998 2546.9 1481)" stroke="black" fill="none"/>
<text transform="matrix(1 -1.57527e-10 0.00193089 0.999998 2563.05 1516.5)" fill="black" xml:space="preserve" style="white-space: pre" font-family="Arial" font-size="36" letter-spacing="0em"><tspan x="0.25" y="33.3047">45</tspan></text>
</g>
<g name="2054">
<rect x="0.500965" y="0.499999" width="72.1587" height="112" transform="matrix(1 -1.57527e-10 0.00193089 0.999998 2546.9 1594)" fill="#46E488"/>
<rect x="0.500965" y="0.499999" width="72.1587" height="112" transform="matrix(1 -1.57527e-10 0.00193089 0.999998 2546.9 1594)" stroke="black" fill="none"/>
<text transform="matrix(1 -1.57527e-10 0.00193089 0.999998 2563.05 1629.5)" fill="black" xml:space="preserve" style="white-space: pre" font-family="Arial" font-size="36" letter-spacing="0em"><tspan x="0.25" y="33.3047">46</tspan></text>
</g>
<g name="2055">
<rect x="0.500965" y="0.499999" width="72.1587" height="115" transform="matrix(1 -1.57527e-10 0.00193089 0.999998 2546.9 1707)" fill="#46E488"/>
<rect x="0.500965" y="0.499999" width="72.1587" height="115" transform="matrix(1 -1.57527e-10 0.00193089 0.999998 2546.9 1707)" stroke="black" fill="none"/>
<text transform="matrix(1 -1.57527e-10 0.00193089 0.999998 2563.05 1744)" fill="black" xml:space="preserve" style="white-space: pre" font-family="Arial" font-size="36" letter-spacing="0em"><tspan x="0.25" y="33.3047">47</tspan></text>
</g>
<g name="2056">
<rect x="0.500965" y="0.499999" width="72.1587" height="114" transform="matrix(1 -1.57527e-10 0.00193089 0.999998 2546.9 1823)" fill="#46E488"/>
<rect x="0.500965" y="0.499999" width="72.1587" height="114" transform="matrix(1 -1.57527e-10 0.00193089 0.999998 2546.9 1823)" stroke="black" fill="none"/>
<text transform="matrix(1 -1.57527e-10 0.00193089 0.999998 2563.05 1859.5)" fill="black" xml:space="preserve" style="white-space: pre" font-family="Arial" font-size="36" letter-spacing="0em"><tspan x="0.25" y="33.3047">48</tspan></text>
</g>
<g name="2057">
<rect x="0.500965" y="0.499999" width="72.1587" height="141" transform="matrix(1 -1.57527e-10 0.00193089 0.999998 2546.9 1938)" fill="#46E488"/>
<rect x="0.500965" y="0.499999" width="72.1587" height="141" transform="matrix(1 -1.57527e-10 0.00193089 0.999998 2546.9 1938)" stroke="black" fill="none"/>
<text transform="matrix(1 -1.57527e-10 0.00193089 0.999998 2563.07 1988)" fill="black" xml:space="preserve" style="white-space: pre" font-family="Arial" font-size="36" letter-spacing="0em"><tspan x="0.25" y="33.3047">49</tspan></text>
</g>
<g name="2058">
<rect x="0.500749" y="0.499999" width="79" height="145" transform="matrix(1 -2.02954e-10 0.0014987 0.999999 2767 1933)" fill="#46E488"/>
<rect x="0.500749" y="0.499999" width="79" height="145" transform="matrix(1 -2.02954e-10 0.0014987 0.999999 2767 1933)" stroke="black" fill="none"/>
<text transform="matrix(1 -2.02953e-10 0.0014987 0.999999 2786.58 1985)" fill="black" xml:space="preserve" style="white-space: pre" font-family="Arial" font-size="36" letter-spacing="0em"><tspan x="0.25" y="33.3047">50</tspan></text>
</g>
<g name="2059">
<rect x="0.500749" y="0.499999" width="79" height="113" transform="matrix(1 -2.02954e-10 0.0014987 0.999999 2767 1819)" fill="#46E488"/>
<rect x="0.500749" y="0.499999" width="79" height="113" transform="matrix(1 -2.02954e-10 0.0014987 0.999999 2767 1819)" stroke="black" fill="none"/>
<text transform="matrix(1 -2.02953e-10 0.0014987 0.999999 2786.55 1855)" fill="black" xml:space="preserve" style="white-space: pre" font-family="Arial" font-size="36" letter-spacing="0em"><tspan x="0.25" y="33.3047">51</tspan></text>
</g>
<g name="2060">
<rect x="0.500749" y="0.499999" width="79" height="113" transform="matrix(1 -2.02954e-10 0.0014987 0.999999 2767 1705)" fill="#46E488"/>
<rect x="0.500749" y="0.499999" width="79" height="113" transform="matrix(1 -2.02954e-10 0.0014987 0.999999 2767 1705)" stroke="black" fill="none"/>
<text transform="matrix(1 -2.02953e-10 0.0014987 0.999999 2786.55 1741)" fill="black" xml:space="preserve" style="white-space: pre" font-family="Arial" font-size="36" letter-spacing="0em"><tspan x="0.25" y="33.3047">52</tspan></text>
</g>
<g name="2061">
<rect x="0.500749" y="0.499999" width="79" height="112" transform="matrix(1 -2.02954e-10 0.0014987 0.999999 2767 1592)" fill="#46E488"/>
<rect x="0.500749" y="0.499999" width="79" height="112" transform="matrix(1 -2.02954e-10 0.0014987 0.999999 2767 1592)" stroke="black" fill="none"/>
<text transform="matrix(1 -2.02953e-10 0.0014987 0.999999 2786.55 1627.5)" fill="black" xml:space="preserve" style="white-space: pre" font-family="Arial" font-size="36" letter-spacing="0em"><tspan x="0.25" y="33.3047">53</tspan></text>
</g>
<g name="2062">
<rect x="0.500749" y="0.499999" width="79" height="115" transform="matrix(1 -2.02954e-10 0.0014987 0.999999 2767 1476)" fill="#46E488"/>
<rect x="0.500749" y="0.499999" width="79" height="115" transform="matrix(1 -2.02954e-10 0.0014987 0.999999 2767 1476)" stroke="black" fill="none"/>
<text transform="matrix(1 -2.02953e-10 0.0014987 0.999999 2786.56 1513)" fill="black" xml:space="preserve" style="white-space: pre" font-family="Arial" font-size="36" letter-spacing="0em"><tspan x="0.25" y="33.3047">54</tspan></text>
</g>
<g name="2063">
<rect x="0.500749" y="0.499999" width="79" height="110" transform="matrix(1 -2.02954e-10 0.0014987 0.999999 2767 1365)" fill="#46E488"/>
<rect x="0.500749" y="0.499999" width="79" height="110" transform="matrix(1 -2.02954e-10 0.0014987 0.999999 2767 1365)" stroke="black" fill="none"/>
<text transform="matrix(1 -2.02953e-10 0.0014987 0.999999 2786.55 1399.5)" fill="black" xml:space="preserve" style="white-space: pre" font-family="Arial" font-size="36" letter-spacing="0em"><tspan x="0.25" y="33.3047">55</tspan></text>
</g>
<g name="2064">
<rect x="0.500749" y="0.499999" width="84" height="117" transform="matrix(1 -2.02954e-10 0.0014987 0.999999 2767 1247)" fill="#46E488"/>
<rect x="0.500749" y="0.499999" width="84" height="117" transform="matrix(1 -2.02954e-10 0.0014987 0.999999 2767 1247)" stroke="black" fill="none"/>
<text transform="matrix(1 -2.02953e-10 0.0014987 0.999999 2789.06 1285)" fill="black" xml:space="preserve" style="white-space: pre" font-family="Arial" font-size="36" letter-spacing="0em"><tspan x="0.25" y="33.3047">56</tspan></text>
</g>
<g name="2065">
<rect x="0.500749" y="0.499999" width="78" height="108" transform="matrix(1 -2.02954e-10 0.0014987 0.999999 2767 1138)" fill="#46E488"/>
<rect x="0.500749" y="0.499999" width="78" height="108" transform="matrix(1 -2.02954e-10 0.0014987 0.999999 2767 1138)" stroke="black" fill="none"/>
<text transform="matrix(1 -2.02953e-10 0.0014987 0.999999 2786.05 1171.5)" fill="black" xml:space="preserve" style="white-space: pre" font-family="Arial" font-size="36" letter-spacing="0em"><tspan x="0.25" y="33.3047">57</tspan></text>
</g>
<!-- Block 1 - End -->
<!-- Block 2 - Start -->
<g name="2066">
<rect x="0.495834" y="0.504876" width="45" height="78.8001" transform="matrix(0.999952 0.00978588 -0.00828349 0.999966 1950.88 1873.95)" fill="#FFFF00"/>
<rect x="0.495834" y="0.504876" width="45" height="78.8001" transform="matrix(0.999952 0.00978588 -0.00828349 0.999966 1950.88 1873.95)" stroke="black" fill="none"/>
<text transform="matrix(0.999952 0.00978588 -0.00828349 0.999966 1966.66 1900.01)" fill="black" xml:space="preserve" style="white-space: pre" font-family="Arial" font-size="24" letter-spacing="0em"><tspan x="0.25" y="22.2031">1</tspan></text>
</g>
<g name="2067">
<rect x="0.495834" y="0.504876" width="45" height="78.8001" transform="matrix(0.999952 0.00978588 -0.00828349 0.999966 1951.66 1794.16)" fill="#FFFF00"/>
<rect x="0.495834" y="0.504876" width="45" height="78.8001" transform="matrix(0.999952 0.00978588 -0.00828349 0.999966 1951.66 1794.16)" stroke="black" fill="none"/>
<text transform="matrix(0.999952 0.00978588 -0.00828349 0.999966 1967.44 1820.22)" fill="black" xml:space="preserve" style="white-space: pre" font-family="Arial" font-size="24" letter-spacing="0em"><tspan x="0.25" y="22.2031">2</tspan></text>
</g>
<g name="2068">
<rect x="0.495834" y="0.504876" width="45" height="78.8001" transform="matrix(0.999952 0.00978588 -0.00828349 0.999966 1952.44 1714.36)" fill="#FFFF00"/>
<rect x="0.495834" y="0.504876" width="45" height="78.8001" transform="matrix(0.999952 0.00978588 -0.00828349 0.999966 1952.44 1714.36)" stroke="black" fill="none"/>
<text transform="matrix(0.999952 0.00978588 -0.00828349 0.999966 1968.22 1740.42)" fill="black" xml:space="preserve" style="white-space: pre" font-family="Arial" font-size="24" letter-spacing="0em"><tspan x="0.25" y="22.2031">3</tspan></text>
</g>
<g name="2069">
<rect x="0.495834" y="0.504876" width="45" height="78.8001" transform="matrix(0.999952 0.00978588 -0.00828349 0.999966 1953.22 1634.57)" fill="#FFFF00"/>
<rect x="0.495834" y="0.504876" width="45" height="78.8001" transform="matrix(0.999952 0.00978588 -0.00828349 0.999966 1953.22 1634.57)" stroke="black" fill="none"/>
<text transform="matrix(0.999952 0.00978588 -0.00828349 0.999966 1969 1660.63)" fill="black" xml:space="preserve" style="white-space: pre" font-family="Arial" font-size="24" letter-spacing="0em"><tspan x="0.25" y="22.2031">4</tspan></text>
</g>
<g name="2070">
<rect x="0.495834" y="0.504876" width="45" height="78.8001" transform="matrix(0.999952 0.00978588 -0.00828349 0.999966 1954 1554.77)" fill="#FFFF00"/>
<rect x="0.495834" y="0.504876" width="45" height="78.8001" transform="matrix(0.999952 0.00978588 -0.00828349 0.999966 1954 1554.77)" stroke="black" fill="none"/>
<text transform="matrix(0.999952 0.00978588 -0.00828349 0.999966 1969.79 1580.83)" fill="black" xml:space="preserve" style="white-space: pre" font-family="Arial" font-size="24" letter-spacing="0em"><tspan x="0.25" y="22.2031">5</tspan></text>
</g>
<g name="2071">
<rect x="0.495834" y="0.504876" width="45" height="78.8001" transform="matrix(0.999952 0.00978588 -0.00828349 0.999966 1954.79 1474.97)" fill="#FFFF00"/>
<rect x="0.495834" y="0.504876" width="45" height="78.8001" transform="matrix(0.999952 0.00978588 -0.00828349 0.999966 1954.79 1474.97)" stroke="black" fill="none"/>
<text transform="matrix(0.999952 0.00978588 -0.00828349 0.999966 1970.57 1501.03)" fill="black" xml:space="preserve" style="white-space: pre" font-family="Arial" font-size="24" letter-spacing="0em"><tspan x="0.25" y="22.2031">6</tspan></text>
</g>
<g name="2072">
<rect x="0.495834" y="0.504876" width="45" height="78.8001" transform="matrix(0.999952 0.00978588 -0.00828349 0.999966 1955.57 1395.18)" fill="#FFFF00"/>
<rect x="0.495834" y="0.504876" width="45" height="78.8001" transform="matrix(0.999952 0.00978588 -0.00828349 0.999966 1955.57 1395.18)" stroke="black" fill="none"/>
<text transform="matrix(0.999952 0.00978588 -0.00828349 0.999966 1971.35 1421.24)" fill="black" xml:space="preserve" style="white-space: pre" font-family="Arial" font-size="24" letter-spacing="0em"><tspan x="0.25" y="22.2031">7</tspan></text>
</g>
<g name="2073">
<rect x="0.495834" y="0.504876" width="45" height="78.8001" transform="matrix(0.999952 0.00978588 -0.00828349 0.999966 1956.35 1315.38)" fill="#FFFF00"/>
<rect x="0.495834" y="0.504876" width="45" height="78.8001" transform="matrix(0.999952 0.00978588 -0.00828349 0.999966 1956.35 1315.38)" stroke="black" fill="none"/>
<text transform="matrix(0.999952 0.00978588 -0.00828349 0.999966 1972.13 1341.44)" fill="black" xml:space="preserve" style="white-space: pre" font-family="Arial" font-size="24" letter-spacing="0em"><tspan x="0.25" y="22.2031">8</tspan></text>
</g>
<g name="2074">
<rect x="0.495834" y="0.504876" width="45" height="78.8001" transform="matrix(0.999952 0.00978588 -0.00828349 0.999966 1957.13 1235.59)" fill="#FFFF00"/>
<rect x="0.495834" y="0.504876" width="45" height="78.8001" transform="matrix(0.999952 0.00978588 -0.00828349 0.999966 1957.13 1235.59)" stroke="black" fill="none"/>
<text transform="matrix(0.999952 0.00978588 -0.00828349 0.999966 1972.91 1261.65)" fill="black" xml:space="preserve" style="white-space: pre" font-family="Arial" font-size="24" letter-spacing="0em"><tspan x="0.25" y="22.2031">9</tspan></text>
</g>
<g name="2075">
<rect x="0.495832" y="0.504876" width="45" height="78.8001" transform="matrix(0.999952 0.00978588 -0.00828724 0.999966 1957.91 1155.79)" fill="#FFFF00"/>
<rect x="0.495832" y="0.504876" width="45" height="78.8001" transform="matrix(0.999952 0.00978588 -0.00828724 0.999966 1957.91 1155.79)" stroke="black" fill="none"/>
<text transform="matrix(0.999952 0.00978588 -0.00828724 0.999966 1967.19 1181.79)" fill="black" xml:space="preserve" style="white-space: pre" font-family="Arial" font-size="24" letter-spacing="0em"><tspan x="0" y="22.2031">10</tspan></text>
</g>
<g name="2076">
<rect x="0.496943" y="0.503783" width="45" height="78.8001" transform="matrix(0.999971 0.00758368 -0.00608502 0.999981 2182.03 1155.83)" fill="#FFFF00"/>
<rect x="0.496943" y="0.503783" width="45" height="78.8001" transform="matrix(0.999971 0.00758368 -0.00608502 0.999981 2182.03 1155.83)" stroke="black" fill="none"/>
<text transform="matrix(0.999971 0.00758368 -0.00608502 0.999981 2191.37 1181.81)" fill="black" xml:space="preserve" style="white-space: pre" font-family="Arial" font-size="24" letter-spacing="0em"><tspan x="0" y="22.2031">11</tspan></text>
</g>
<g name="2077">
<rect x="0.496945" y="0.503783" width="45" height="78.8001" transform="matrix(0.999971 0.00758368 -0.00608126 0.999981 2181.42 1235.63)" fill="#FFFF00"/>
<rect x="0.496945" y="0.503783" width="45" height="78.8001" transform="matrix(0.999971 0.00758368 -0.00608126 0.999981 2181.42 1235.63)" stroke="black" fill="none"/>
<text transform="matrix(0.999971 0.00758368 -0.00608126 0.999981 2190.76 1261.61)" fill="black" xml:space="preserve" style="white-space: pre" font-family="Arial" font-size="24" letter-spacing="0em"><tspan x="0" y="22.2031">12</tspan></text>
</g>
<g name="2078">
<rect x="0.496945" y="0.503783" width="45" height="78.8001" transform="matrix(0.999971 0.00758368 -0.00608126 0.999981 2180.82 1315.43)" fill="#FFFF00"/>
<rect x="0.496945" y="0.503783" width="45" height="78.8001" transform="matrix(0.999971 0.00758368 -0.00608126 0.999981 2180.82 1315.43)" stroke="black" fill="none"/>
<text transform="matrix(0.999971 0.00758368 -0.00608126 0.999981 2190.16 1341.4)" fill="black" xml:space="preserve" style="white-space: pre" font-family="Arial" font-size="24" letter-spacing="0em"><tspan x="0" y="22.2031">13</tspan></text>
</g>
<g name="2079">
<rect x="0.496945" y="0.503783" width="45" height="78.8001" transform="matrix(0.999971 0.00758368 -0.00608126 0.999981 2180.21 1395.23)" fill="#FFFF00"/>
<rect x="0.496945" y="0.503783" width="45" height="78.8001" transform="matrix(0.999971 0.00758368 -0.00608126 0.999981 2180.21 1395.23)" stroke="black" fill="none"/>
<text transform="matrix(0.999971 0.00758368 -0.00608126 0.999981 2189.55 1421.2)" fill="black" xml:space="preserve" style="white-space: pre" font-family="Arial" font-size="24" letter-spacing="0em"><tspan x="0" y="22.2031">14</tspan></text>
</g>
<g name="2080">
<rect x="0.496945" y="0.503783" width="45" height="78.8001" transform="matrix(0.999971 0.00758368 -0.00608126 0.999981 2179.61 1475.02)" fill="#FFFF00"/>
<rect x="0.496945" y="0.503783" width="45" height="78.8001" transform="matrix(0.999971 0.00758368 -0.00608126 0.999981 2179.61 1475.02)" stroke="black" fill="none"/>
<text transform="matrix(0.999971 0.00758368 -0.00608126 0.999981 2188.95 1501)" fill="black" xml:space="preserve" style="white-space: pre" font-family="Arial" font-size="24" letter-spacing="0em"><tspan x="0" y="22.2031">15</tspan></text>
</g>
<g name="2081">
<rect x="0.496945" y="0.503783" width="45" height="78.8001" transform="matrix(0.999971 0.00758368 -0.00608126 0.999981 2179 1554.82)" fill="#FFFF00"/>
<rect x="0.496945" y="0.503783" width="45" height="78.8001" transform="matrix(0.999971 0.00758368 -0.00608126 0.999981 2179 1554.82)" stroke="black" fill="none"/>
<text transform="matrix(0.999971 0.00758368 -0.00608126 0.999981 2188.34 1580.8)" fill="black" xml:space="preserve" style="white-space: pre" font-family="Arial" font-size="24" letter-spacing="0em"><tspan x="0" y="22.2031">16</tspan></text>
</g>
<g name="2082">
<rect x="0.496945" y="0.503783" width="45" height="78.8001" transform="matrix(0.999971 0.00758368 -0.00608126 0.999981 2178.4 1634.62)" fill="#FFFF00"/>
<rect x="0.496945" y="0.503783" width="45" height="78.8001" transform="matrix(0.999971 0.00758368 -0.00608126 0.999981 2178.4 1634.62)" stroke="black" fill="none"/>
<text transform="matrix(0.999971 0.00758368 -0.00608126 0.999981 2187.74 1660.59)" fill="black" xml:space="preserve" style="white-space: pre" font-family="Arial" font-size="24" letter-spacing="0em"><tspan x="0" y="22.2031">17</tspan></text>
</g>
<g name="2083">
<rect x="0.496945" y="0.503783" width="45" height="78.8001" transform="matrix(0.999971 0.00758368 -0.00608126 0.999981 2177.79 1714.42)" fill="#FFFF00"/>
<rect x="0.496945" y="0.503783" width="45" height="78.8001" transform="matrix(0.999971 0.00758368 -0.00608126 0.999981 2177.79 1714.42)" stroke="black" fill="none"/>
<text transform="matrix(0.999971 0.00758368 -0.00608126 0.999981 2187.13 1740.39)" fill="black" xml:space="preserve" style="white-space: pre" font-family="Arial" font-size="24" letter-spacing="0em"><tspan x="0" y="22.2031">18</tspan></text>
</g>
<g name="2084">
<rect x="0.496945" y="0.503783" width="45" height="78.8001" transform="matrix(0.999971 0.00758368 -0.00608126 0.999981 2177.19 1794.21)" fill="#FFFF00"/>
<rect x="0.496945" y="0.503783" width="45" height="78.8001" transform="matrix(0.999971 0.00758368 -0.00608126 0.999981 2177.19 1794.21)" stroke="black" fill="none"/>
<text transform="matrix(0.999971 0.00758368 -0.00608126 0.999981 2186.53 1820.19)" fill="black" xml:space="preserve" style="white-space: pre" font-family="Arial" font-size="24" letter-spacing="0em"><tspan x="0" y="22.2031">19</tspan></text>
</g>
<g name="2085">
<rect x="0.496945" y="0.503783" width="45" height="78.8001" transform="matrix(0.999971 0.00758368 -0.00608126 0.999981 2176.58 1874.01)" fill="#FFFF00"/>
<rect x="0.496945" y="0.503783" width="45" height="78.8001" transform="matrix(0.999971 0.00758368 -0.00608126 0.999981 2176.58 1874.01)" stroke="black" fill="none"/>
<text transform="matrix(0.999971 0.00758368 -0.00608126 0.999981 2185.92 1899.99)" fill="black" xml:space="preserve" style="white-space: pre" font-family="Arial" font-size="24" letter-spacing="0em"><tspan x="0" y="22.2031">20</tspan></text>
</g>
<g name="2086">
<rect x="0.500749" y="0.499999" width="124" height="87" transform="matrix(1 -2.02954e-10 0.0014987 0.999999 2227 2334)" fill="#FFFF00"/>
<rect x="0.500749" y="0.499999" width="124" height="87" transform="matrix(1 -2.02954e-10 0.0014987 0.999999 2227 2334)" stroke="black" fill="none"/>
<text transform="matrix(1 -2.02953e-10 0.0014987 0.999999 2269.03 2357)" fill="black" xml:space="preserve" style="white-space: pre" font-family="Arial" font-size="36" letter-spacing="0em"><tspan x="0.25" y="33.3047">21</tspan></text>
</g>
<g name="2087">
<rect x="0.500749" y="0.499999" width="124" height="95" transform="matrix(1 -2.02954e-10 0.0014987 0.999999 2227 2238)" fill="#FFFF00"/>
<rect x="0.500749" y="0.499999" width="124" height="95" transform="matrix(1 -2.02954e-10 0.0014987 0.999999 2227 2238)" stroke="black" fill="none"/>
<text transform="matrix(1 -2.02953e-10 0.0014987 0.999999 2269.04 2265)" fill="black" xml:space="preserve" style="white-space: pre" font-family="Arial" font-size="36" letter-spacing="0em"><tspan x="0.25" y="33.3047">22</tspan></text>
</g>
<g name="2088">
<rect x="0.500749" y="0.499999" width="85" height="87" transform="matrix(1 -2.02954e-10 0.0014987 0.999999 2141 2334)" fill="#FFFF00"/>
<rect x="0.500749" y="0.499999" width="85" height="87" transform="matrix(1 -2.02954e-10 0.0014987 0.999999 2141 2334)" stroke="black" fill="none"/>
<text transform="matrix(1 -2.02953e-10 0.0014987 0.999999 2163.53 2357)" fill="black" xml:space="preserve" style="white-space: pre" font-family="Arial" font-size="36" letter-spacing="0em"><tspan x="0.25" y="33.3047">23</tspan></text>
</g>
<g name="2089">
<rect x="0.500749" y="0.499999" width="85" height="95" transform="matrix(1 -2.02954e-10 0.0014987 0.999999 2141 2238)" fill="#FFFF00"/>
<rect x="0.500749" y="0.499999" width="85" height="95" transform="matrix(1 -2.02954e-10 0.0014987 0.999999 2141 2238)" stroke="black" fill="none"/>
<text transform="matrix(1 -2.02953e-10 0.0014987 0.999999 2163.54 2265)" fill="black" xml:space="preserve" style="white-space: pre" font-family="Arial" font-size="36" letter-spacing="0em"><tspan x="0.25" y="33.3047">24</tspan></text>
</g>
<g name="2090">
<rect x="0.500749" y="0.499999" width="149" height="183" transform="matrix(1 -2.02954e-10 0.0014987 0.999999 1991 2238)" fill="#FFFF00"/>
<rect x="0.500749" y="0.499999" width="149" height="183" transform="matrix(1 -2.02954e-10 0.0014987 0.999999 1991 2238)" stroke="black" fill="none"/>
<text transform="matrix(1 -2.02953e-10 0.0014987 0.999999 2045.61 2309)" fill="black" xml:space="preserve" style="white-space: pre" font-family="Arial" font-size="36" letter-spacing="0em"><tspan x="0.25" y="33.3047">25</tspan></text>
</g>
<g name="2091">
<rect x="0.500749" y="0.499999" width="149" height="183" transform="matrix(1 -2.02954e-10 0.0014987 0.999999 1841 2238)" fill="#FFFF00"/>
<rect x="0.500749" y="0.499999" width="149" height="183" transform="matrix(1 -2.02954e-10 0.0014987 0.999999 1841 2238)" stroke="black" fill="none"/>
<text transform="matrix(1 -2.02953e-10 0.0014987 0.999999 1895.61 2309)" fill="black" xml:space="preserve" style="white-space: pre" font-family="Arial" font-size="36" letter-spacing="0em"><tspan x="0.25" y="33.3047">26</tspan></text>
</g>
<g name="2092">
<rect x="0.500749" y="0.499999" width="85" height="96" transform="matrix(1 -2.02954e-10 0.0014987 0.999999 1755 2325)" fill="#FFFF00"/>
<rect x="0.500749" y="0.499999" width="85" height="96" transform="matrix(1 -2.02954e-10 0.0014987 0.999999 1755 2325)" stroke="black" fill="none"/>
<text transform="matrix(1 -2.02953e-10 0.0014987 0.999999 1777.54 2352.5)" fill="black" xml:space="preserve" style="white-space: pre" font-family="Arial" font-size="36" letter-spacing="0em"><tspan x="0.25" y="33.3047">27</tspan></text>
</g>
<g name="2093">
<rect x="0.500749" y="0.499999" width="85" height="86" transform="matrix(1 -2.02954e-10 0.0014987 0.999999 1755 2238)" fill="#FFFF00"/>
<rect x="0.500749" y="0.499999" width="85" height="86" transform="matrix(1 -2.02954e-10 0.0014987 0.999999 1755 2238)" stroke="black" fill="none"/>
<text transform="matrix(1 -2.02953e-10 0.0014987 0.999999 1777.53 2260.5)" fill="black" xml:space="preserve" style="white-space: pre" font-family="Arial" font-size="36" letter-spacing="0em"><tspan x="0.25" y="33.3047">28</tspan></text>
</g>
<g name="2094">
<rect x="0.500749" y="0.499999" width="129" height="91" transform="matrix(1 -2.02954e-10 0.0014987 0.999999 1625 2330)" fill="#FFFF00"/>
<rect x="0.500749" y="0.499999" width="129" height="91" transform="matrix(1 -2.02954e-10 0.0014987 0.999999 1625 2330)" stroke="black" fill="none"/>
<text transform="matrix(1 -2.02953e-10 0.0014987 0.999999 1669.54 2355)" fill="black" xml:space="preserve" style="white-space: pre" font-family="Arial" font-size="36" letter-spacing="0em"><tspan x="0.25" y="33.3047">29</tspan></text>
</g>
<g name="2095">
<rect x="0.500749" y="0.499999" width="129" height="91" transform="matrix(1 -2.02954e-10 0.0014987 0.999999 1625 2238)" fill="#FFFF00"/>
<rect x="0.500749" y="0.499999" width="129" height="91" transform="matrix(1 -2.02954e-10 0.0014987 0.999999 1625 2238)" stroke="black" fill="none"/>
<text transform="matrix(1 -2.02953e-10 0.0014987 0.999999 1669.54 2263)" fill="black" xml:space="preserve" style="white-space: pre" font-family="Arial" font-size="36" letter-spacing="0em"><tspan x="0.25" y="33.3047">30</tspan></text>
</g>
</svg>
