<svg width="3731" height="6024" viewBox="0 0 3731 6024" fill="none" xmlns="http://www.w3.org/2000/svg">
<rect width="6023.94" height="3730.23" transform="matrix(0 -1 1 0 0 6023.95)" fill="white"/>
<!-- Infra - Start -->
<g name="2842">
<rect x="1.2255" y="-1.22645" width="345.912" height="263.679" transform="matrix(0 -1 1 -0.000772174 2812.47 5178.48)" stroke="black" stroke-width="2.45101" fill="#46E488"/>
<text transform="matrix(1 -4.71211e-08 0.000772126 1 2931.56 4981.19)" fill="black" xml:space="preserve" style="white-space: pre" font-family="Arial" font-size="39.2161" letter-spacing="0em"><tspan x="0.470471" y="36.4039">1</tspan></text>
</g>
<g name="2843">
<rect x="1.2255" y="-1.22645" width="255.886" height="760.715" transform="matrix(0 -1 1 -0.000772174 1544.44 5601.21)" stroke="black" stroke-width="2.45101" fill="#FFFF00"/>
<text transform="matrix(1 -4.70047e-08 0.000772126 1 1912.05 5448.75)" fill="black" xml:space="preserve" style="white-space: pre" font-family="Arial" font-size="39.2161" letter-spacing="0em"><tspan x="0.470471" y="36.4039">2</tspan></text>
</g>
<g name="2844">
<rect x="1.2255" y="-1.22645" width="255.886" height="244.11" transform="matrix(0 -1 1 -0.000772174 1297.88 5601.21)" stroke="black" stroke-width="2.45101" fill="#46E488"/>
<text transform="matrix(1 -4.70047e-08 0.000772126 1 1407.19 5448.95)" fill="black" xml:space="preserve" style="white-space: pre" font-family="Arial" font-size="39.2161" letter-spacing="0em"><tspan x="0.470471" y="36.4039">3</tspan></text>
</g>
<g name="2845">
<rect x="1.2255" y="-1.22645" width="255.886" height="514.154" transform="matrix(0 -1 1 -0.000772174 781.274 5601.21)" stroke="black" stroke-width="2.45101" fill="#46E488"/>
<text transform="matrix(1 -4.70047e-08 0.000772126 1 1025.61 5448.84)" fill="black" xml:space="preserve" style="white-space: pre" font-family="Arial" font-size="39.2161" letter-spacing="0em"><tspan x="0.470471" y="36.4039">4</tspan></text>
</g>
<g name="2846">
<rect x="1.2255" y="-1.22645" width="424.196" height="514.154" transform="matrix(0 -1 1 -0.000772174 264.665 5601.21)" stroke="black" stroke-width="2.45101" fill="#46E488"/>
<text transform="matrix(1 -4.70047e-08 0.000772126 1 508.998 5364.69)" fill="black" xml:space="preserve" style="white-space: pre" font-family="Arial" font-size="39.2161" letter-spacing="0em"><tspan x="0.470471" y="36.4039">4A</tspan></text>
</g>
<g name="2847">
<rect x="1.2255" y="-1.22645" width="310.685" height="263.679" transform="matrix(0 -1 1 -0.000772174 2812.47 1553.93)" stroke="black" stroke-width="2.45101" fill="#46E488"/>
<text transform="matrix(1 -4.70047e-08 0.000772126 1 2931.56 1374.27)" fill="black" xml:space="preserve" style="white-space: pre" font-family="Arial" font-size="39.2161" letter-spacing="0em"><tspan x="0.470471" y="36.4039">5</tspan></text>
</g>
<g name="2847">
<rect x="1.2255" y="-1.22645" width="396.797" height="263.679" transform="matrix(0 -1 1 -0.000772174 2812.47 1240.8)" stroke="black" stroke-width="2.45101" fill="#46E488"/>
<text transform="matrix(1 -4.70047e-08 0.000772126 1 2931.56 1018.07)" fill="black" xml:space="preserve" style="white-space: pre" font-family="Arial" font-size="39.2161" letter-spacing="0em"><tspan x="0.470471" y="36.4039">5</tspan></text>
</g>
<g name="2847">
<rect x="1.2255" y="-1.22645" width="261.339" height="201.649" transform="matrix(0 -1 1 -0.000772174 3212.8 1098.43)" stroke="black" stroke-width="2.45101" fill="#FFFF00"/>
<text transform="matrix(1 -4.70047e-08 0.000772126 1 3300.88 943.455)" fill="black" xml:space="preserve" style="white-space: pre" font-family="Arial" font-size="39.2161" letter-spacing="0em"><tspan x="0.470471" y="36.4039">5</tspan></text>
</g>
<g name="2849">
<rect x="1.2255" y="-1.22645" width="177.602" height="1402.75" transform="matrix(0 -1 1 -0.000772174 1031.55 603.666)" stroke="black" stroke-width="2.45101" fill="#46E488"/>
<text transform="matrix(1 -4.70047e-08 0.000772126 1 1627.67 467.1)" fill="black" xml:space="preserve" style="white-space: pre" font-family="Arial" font-size="39.2161" letter-spacing="0em"><tspan x="81.9409" y="36.4039">66&#10;</tspan><tspan x="0.157753" y="82.4039">&#xab;&#x411;&#x430;&#x439;&#x442;&#x435;&#x440;&#x435;&#x43a;&#xbb;</tspan></text>
</g>


<!-- Infra - End -->





<rect x="1.2255" y="-1.22645" width="255.886" height="251.938" transform="matrix(0 -1 1 -0.000772174 2307.6 5601.21)" stroke="black" stroke-width="2.45101" fill="#AEAEAE"/>
<rect x="1.2255" y="-1.22645" width="255.886" height="381.089" transform="matrix(0 -1 1 -0.000772174 2816.38 5601.21)" stroke="black" stroke-width="2.45101" fill="#AEAEAE"/>
<rect x="1.2255" y="-1.22645" width="255.886" height="267.593" transform="matrix(0 -1 1 -0.000772174 3199.92 5601.21)" stroke="black" stroke-width="2.45101" fill="#AEAEAE"/>
<rect x="1.2255" y="-1.22645" width="177.602" height="263.679" transform="matrix(0 -1 1 -0.000772174 3203.83 602.785)" stroke="black" stroke-width="2.45101" fill="#AEAEAE"/>
<rect x="1.2255" y="-1.22645" width="4736.56" height="50.2975" transform="matrix(0 -1 1 -0.000772174 3416.55 5341.45)" stroke="black" stroke-width="2.45101" fill="#000000"/>
<rect x="1.2255" y="-1.22645" width="2302.09" height="50.2975" transform="matrix(0 -1 1 -0.000772174 1022.68 4320.71)" stroke="black" stroke-width="2.45101" fill="#000000"/>
<rect x="1.11222" y="1.11136" width="2.22272" height="606.841" transform="matrix(1 0 0.00077208 1 1073.37 4565.75)" stroke="black" stroke-width="2.22272" fill="#000000"/>
<rect x="1.11213" y="1.11136" width="2.22272" height="606.841" transform="matrix(1 0 0.000692502 1 1284.73 840.238)" stroke="black" stroke-width="2.22272" fill="#000000"/>
<rect x="-1.11143" y="1.11229" width="2.22286" height="2000.45" transform="matrix(0 1 -1 0.000772174 3078.47 5181.48)" stroke="black" stroke-width="2.22286" fill="#000000"/>
<rect x="-1.11143" y="-1.11057" width="2.22286" height="1795.96" transform="matrix(0 -1 -1 0.000772174 3080.69 837.5)" stroke="black" stroke-width="2.22286" fill="#000000"/>
<rect x="1.11222" y="1.11136" width="2.22272" height="611.286" transform="matrix(1 0 0.00077208 1 3076.25 4565.75)" stroke="black" stroke-width="2.22272" fill="#000000"/>
<rect x="1.11213" y="1.11136" width="2.22272" height="611.286" transform="matrix(1 0 0.000692502 1 3081.17 840.238)" stroke="black" stroke-width="2.22272" fill="#000000"/>
<rect x="1.22645" y="1.2255" width="755.971" height="50.3007" transform="matrix(1 0 0.00077208 1 262.282 2016.13)" stroke="black" stroke-width="2.45101" fill="#000000"/>
<rect x="1.22645" y="1.2255" width="754.391" height="50.3007" transform="matrix(1 0 0.00077208 1 262.282 4267.89)" stroke="black" stroke-width="2.45101" fill="#000000"/>
<rect x="1.2255" y="-1.22645" width="177.602" height="255.852" transform="matrix(0 -1 1 -0.000772174 2945.53 602.775)" stroke="black" stroke-width="2.45101" fill="#AEAEAE"/>
<rect x="1.2255" y="-1.22645" width="177.602" height="251.938" transform="matrix(0 -1 1 -0.000772174 2691.14 602.775)" stroke="black" stroke-width="2.45101" fill="#AEAEAE"/>
<rect x="1.2255" y="-1.22645" width="177.602" height="251.938" transform="matrix(0 -1 1 -0.000772174 2436.75 602.775)" stroke="black" stroke-width="2.45101" fill="#AEAEAE"/>

<rect x="1.2255" y="-1.22645" width="177.602" height="251.938" transform="matrix(0 -1 1 -0.000772174 777.358 602.775)" stroke="black" stroke-width="2.45101" fill="#46E488"/>
<rect x="1.2255" y="-1.22645" width="177.602" height="127.037" transform="matrix(0 -1 1 -0.000772174 647.87 602.68)" stroke="black" stroke-width="2.45101" fill="#46E488"/>
<rect x="1.2255" y="-1.22645" width="263.714" height="381.089" transform="matrix(0 -1 1 -0.000772174 264.665 689.096)" stroke="black" stroke-width="2.45101" fill="#46E488"/>
<rect x="1.2255" y="-1.22645" width="772.559" height="514.154" transform="matrix(0 -1 1 -0.000772174 264.665 2015.81)" stroke="black" stroke-width="2.45101" fill="#46E488"/>
<rect x="1.2255" y="-1.22645" width="271.543" height="514.154" transform="matrix(0 -1 1 -0.000772174 264.665 1240.8)" stroke="black" stroke-width="2.45101" fill="#46E488"/>
<rect x="1.2255" y="-1.22645" width="275.457" height="380.936" transform="matrix(0 -1 1 -0.000772174 264.665 966.805)" stroke="black" stroke-width="2.45101" fill="#46E488"/>
<rect x="1.2255" y="-1.22645" width="365.483" height="381.089" transform="matrix(0 -1 1 -0.000772174 648.21 970.818)" stroke="black" stroke-width="2.45101" fill="#46E488"/>
<rect x="1.2255" y="-1.22645" width="424.196" height="514.154" transform="matrix(0 -1 1 -0.000772174 264.665 5174.56)" stroke="black" stroke-width="2.45101" fill="#FFFF00"/>
<rect x="1.2255" y="-1.22645" width="424.196" height="514.154" transform="matrix(0 -1 1 -0.000772174 264.665 4747.92)" stroke="black" stroke-width="2.45101" fill="#FFFF00"/>
<rect x="1.2255" y="-1.22645" width="255.886" height="251.938" transform="matrix(0 -1 1 -0.000772174 2561.99 5601.21)" stroke="black" stroke-width="2.45101" fill="#AEAEAE"/>
<!-- Stairs - Start -->
<rect x="1073.24" y="1365.35" width="301.474" height="153.944" rx="27.2609" transform="rotate(-90 1073.24 1365.35)" fill="#1A73E8"/>
<path d="M1163.32 1247.18V1264.29H1146.21V1281.39H1129.11V1298.5H1112V1311.33H1141.94V1294.22H1159.04V1277.12H1176.15V1260.01H1193.25V1247.18H1163.32Z" fill="white"/>
<path d="M1155.63 1139.63H1168.46L1149.22 1120.38L1129.97 1139.63H1142.8V1171.7H1155.63V1139.63Z" fill="white"/>
<rect x="3169.39" y="1453.13" width="301.474" height="153.944" rx="27.2609" transform="rotate(-90 3169.39 1453.13)" fill="#1A73E8"/>
<path d="M3259.48 1334.96V1352.07H3242.37V1369.17H3225.27V1386.28H3208.16V1399.1H3238.1V1382H3255.2V1364.89H3272.31V1347.79H3289.41V1334.96H3259.48Z" fill="white"/>
<path d="M3251.79 1227.4H3264.61L3245.37 1208.16L3226.13 1227.4H3238.96V1259.47H3251.79V1227.4Z" fill="white"/>
<rect x="1018.85" y="4635.88" width="301.474" height="153.944" rx="27.2609" transform="rotate(90 1018.85 4635.88)" fill="#1A73E8"/>
<path d="M948.11 4689.28V4706.38H931.005V4723.49H913.9V4740.59H896.795V4753.42H926.728V4736.32H943.833V4719.21H960.938V4702.11H978.043V4689.28H948.11Z" fill="white"/>
<path d="M936.458 4861.59H923.629L942.872 4880.84L962.115 4861.59H949.287V4829.52H936.458V4861.59Z" fill="white"/>
<rect x="3331.53" y="4528.2" width="301.474" height="153.944" rx="27.2609" transform="rotate(90 3331.53 4528.2)" fill="#1A73E8"/>
<path d="M3260.78 4581.61V4598.71H3243.68V4615.82H3226.57V4632.92H3209.47V4645.75H3239.4V4628.64H3256.51V4611.54H3273.61V4594.43H3290.72V4581.61H3260.78Z" fill="white"/>
<path d="M3249.13 4753.92H3236.3L3255.55 4773.16L3274.79 4753.92H3261.96V4721.85H3249.13V4753.92Z" fill="white"/>
<!-- Stairs - End -->
</svg>
