<svg width="5147" height="4272" viewBox="0 0 5147 4272" fill="none" xmlns="http://www.w3.org/2000/svg">
<rect width="5147" height="4272" fill="white"/>

<!-- Block 3 Container - Start -->
<rect x="1693" y="1764" width="928" height="1399" stroke="#185C61" stroke-opacity="0.5" fill="#46D9E4" fill-opacity="0.2"/>
<text transform="matrix(1 0 0.000993592 0.999999 2377 3039)" fill="#576768" xml:space="preserve" style="white-space: pre" font-family="Arial" font-size="60" font-weight="300" letter-spacing="0em"><tspan x="0.419922" y="55.5078">&#x411;&#x43b;&#x43e;&#x43a; 3</tspan></text>
<!-- Block 3 Container - End -->
<rect x="0.500497" y="0.5" width="759" height="368.205" transform="matrix(1 0 0.000993592 0.999999 1728.96 2333.79)" stroke="black" fill="#8DA5D3"/>
<text transform="matrix(1 0 0.000993592 0.999999 1965.62 2494.9)" fill="black" xml:space="preserve" style="white-space: pre" font-family="Arial" font-size="40" letter-spacing="0em"><tspan x="0.492188" y="37.1719">&#x422;&#x430;&#x437;&#x430; &#x437;&#x430;&#x43a;&#x440;&#x44b;&#x442;&#x44b;&#x439;</tspan></text>
<rect x="0.500497" y="0.5" width="695.669" height="459.186" transform="matrix(1 0 0.000993592 0.999999 1768.68 1873.62)" stroke="black" fill="#8DA5D3"/>
<text transform="matrix(1 0 0.000993592 0.999999 1973.72 2080.21)" fill="black" xml:space="preserve" style="white-space: pre" font-family="Arial" font-size="40" letter-spacing="0em"><tspan x="0.375" y="37.1719">&#x413;&#x43e;&#x43d;&#x435; &#x437;&#x430;&#x43a;&#x440;&#x44b;&#x442;&#x44b;&#x439;</tspan></text>
<rect x="0.500386" y="0.5" width="627.427" height="204.248" transform="matrix(1 0 0.00077207 1 1722 2904)" stroke="black" fill="#9BF4C0"/>
<text transform="matrix(1 0 0.000772069 1 1732.06 2978.62)" fill="black" xml:space="preserve" style="white-space: pre" font-family="Arial" font-size="48" letter-spacing="0em"><tspan x="246.815" y="44.4062">&#x410;&#x442;&#x44b;&#x437;</tspan></text>

<g name="b_34">
<path d="M2538.5 2740H1722V2787.5H2583L2584 2548H2539.5L2538.5 2740Z" fill="#46D9E4" stroke="black"/>
<text transform="matrix(1 0 0.000562372 1 2135 2751)" fill="black" xml:space="preserve" style="white-space: pre" font-family="Arial" font-size="16" letter-spacing="0em"><tspan x="0.078125" y="14.9688">&#x424;&#x430;&#x441;&#x430;&#x434; &#x2014; 135</tspan></text>
</g>

<g name="b_57">
<rect x="0.500281" y="0.5" width="44.6542" height="673.664" transform="matrix(1 0 0.000562373 1 2537.86 1873.72)" stroke="black" fill="#46D9E4"/>
<text transform="matrix(-4.37651e-08 -1 1 -0.000562415 2551.37 2272.56)" fill="black" xml:space="preserve" style="white-space: pre" font-family="Arial" font-size="16" letter-spacing="0em"><tspan x="0.0625" y="14.9688">&#x420;&#x430;&#x448;&#x438;&#x434;&#x43e;&#x432; &#x2014; 20</tspan></text>
</g>
<!-- Blocks - Start -->
<g name="3104">
<rect x="0.500497" y="0.5" width="36" height="49" transform="matrix(1 0 0.000993592 0.999999 1732 1824)" stroke="black" fill="#46E488"/>
<text transform="matrix(1 0 0.000993592 0.999999 1746.02 1839.5)" fill="black" xml:space="preserve" style="white-space: pre" font-family="Arial" font-size="16" letter-spacing="0em"><tspan x="0" y="14.9688">1</tspan></text>
</g>
<g name="3105">
<rect x="0.500497" y="0.5" width="36" height="28" transform="matrix(1 0 0.000993592 0.999999 1732 1874)" stroke="black" fill="#46E488"/>
<text transform="matrix(1 0 0.000993592 0.999999 1746 1879)" fill="black" xml:space="preserve" style="white-space: pre" font-family="Arial" font-size="16" letter-spacing="0em"><tspan x="0" y="14.9688">2</tspan></text>
</g>
<g name="3106">
<rect x="0.500497" y="0.5" width="36" height="28" transform="matrix(1 0 0.000993592 0.999999 1732 1903)" stroke="black" fill="#46E488"/>
<text transform="matrix(1 0 0.000993592 0.999999 1746 1908)" fill="black" xml:space="preserve" style="white-space: pre" font-family="Arial" font-size="16" letter-spacing="0em"><tspan x="0" y="14.9688">3</tspan></text>
</g>
<g name="3107">
<rect x="0.500497" y="0.5" width="36" height="28" transform="matrix(1 0 0.000993592 0.999999 1732 1932)" stroke="black" fill="#46E488"/>
<text transform="matrix(1 0 0.000993592 0.999999 1746 1937)" fill="black" xml:space="preserve" style="white-space: pre" font-family="Arial" font-size="16" letter-spacing="0em"><tspan x="0" y="14.9688">4</tspan></text>
</g>
<g name="3108">
<rect x="0.500497" y="0.5" width="36" height="28" transform="matrix(1 0 0.000993592 0.999999 1732 1961)" stroke="black" fill="#46E488"/>
<text transform="matrix(1 0 0.000993592 0.999999 1737 1966)" fill="black" xml:space="preserve" style="white-space: pre" font-family="Arial" font-size="16" letter-spacing="0em"><tspan x="0.476562" y="14.9688">4/A</tspan></text>
</g>
<g name="3109">
<rect x="0.500497" y="0.5" width="36" height="28" transform="matrix(1 0 0.000993592 0.999999 1732 1990)" stroke="black" fill="#46E488"/>
<text transform="matrix(1 0 0.000993592 0.999999 1746 1995)" fill="black" xml:space="preserve" style="white-space: pre" font-family="Arial" font-size="16" letter-spacing="0em"><tspan x="0" y="14.9688">5</tspan></text>
</g>
<g name="3110">
<rect x="0.500497" y="0.5" width="36" height="28" transform="matrix(1 0 0.000993592 0.999999 1732 2019)" stroke="black" fill="#46E488"/>
<text transform="matrix(1 0 0.000993592 0.999999 1746 2024)" fill="black" xml:space="preserve" style="white-space: pre" font-family="Arial" font-size="16" letter-spacing="0em"><tspan x="0" y="14.9688">6</tspan></text>
</g>
<g name="3111">
<rect x="0.500497" y="0.5" width="36" height="28" transform="matrix(1 0 0.000993592 0.999999 1732 2048)" stroke="black" fill="#46E488"/>
<text transform="matrix(1 0 0.000993592 0.999999 1746 2053)" fill="black" xml:space="preserve" style="white-space: pre" font-family="Arial" font-size="16" letter-spacing="0em"><tspan x="0" y="14.9688">7</tspan></text>
</g>
<g name="3112">
<rect x="0.500497" y="0.5" width="36" height="28" transform="matrix(1 0 0.000993592 0.999999 1732 2077)" stroke="black" fill="#46E488"/>
<text transform="matrix(1 0 0.000993592 0.999999 1746 2082)" fill="black" xml:space="preserve" style="white-space: pre" font-family="Arial" font-size="16" letter-spacing="0em"><tspan x="0" y="14.9688">8</tspan></text>
</g>
<g name="3113">
<rect x="0.500497" y="0.5" width="36" height="28" transform="matrix(1 0 0.000993592 0.999999 1732 2106)" stroke="black" fill="#46E488"/>
<text transform="matrix(1 0 0.000993592 0.999999 1746 2111)" fill="black" xml:space="preserve" style="white-space: pre" font-family="Arial" font-size="16" letter-spacing="0em"><tspan x="0" y="14.9688">9</tspan></text>
</g>
<g name="3114">
<rect x="0.500497" y="0.5" width="36" height="28" transform="matrix(1 0 0.000993592 0.999999 1732 2135)" stroke="black" fill="#46E488"/>
<text transform="matrix(1 0 0.000993592 0.999999 1741.5 2140)" fill="black" xml:space="preserve" style="white-space: pre" font-family="Arial" font-size="16" letter-spacing="0em"><tspan x="0" y="14.9688">10</tspan></text>
</g>
<g name="3115">
<rect x="0.500497" y="0.5" width="36" height="28" transform="matrix(1 0 0.000993592 0.999999 1732 2164)" stroke="black" fill="#46E488"/>
<text transform="matrix(1 0 0.000993592 0.999999 1741.5 2169)" fill="black" xml:space="preserve" style="white-space: pre" font-family="Arial" font-size="16" letter-spacing="0em"><tspan x="0" y="14.9688">11</tspan></text>
</g>
<g name="3116">
<rect x="0.500497" y="0.5" width="36" height="28" transform="matrix(1 0 0.000993592 0.999999 1732 2193)" stroke="black" fill="#46E488"/>
<text transform="matrix(1 0 0.000993592 0.999999 1741.5 2198)" fill="black" xml:space="preserve" style="white-space: pre" font-family="Arial" font-size="16" letter-spacing="0em"><tspan x="0" y="14.9688">12</tspan></text>
</g>
<g name="3117">
<rect x="0.500497" y="0.5" width="36" height="28" transform="matrix(1 0 0.000993592 0.999999 1732 2222)" stroke="black" fill="#46E488"/>
<text transform="matrix(1 0 0.000993592 0.999999 1732.5 2227)" fill="black" xml:space="preserve" style="white-space: pre" font-family="Arial" font-size="16" letter-spacing="0em"><tspan x="0.476562" y="14.9688">12/A</tspan></text>
</g>
<g name="3118">
<rect x="0.500497" y="0.5" width="36" height="28" transform="matrix(1 0 0.000993592 0.999999 1732 2251)" stroke="black" fill="#46E488"/>
<text transform="matrix(1 0 0.000993592 0.999999 1741.5 2256)" fill="black" xml:space="preserve" style="white-space: pre" font-family="Arial" font-size="16" letter-spacing="0em"><tspan x="0" y="14.9688">13</tspan></text>
</g>
<g name="3119">
<rect x="0.500497" y="0.5" width="36" height="28" transform="matrix(1 0 0.000993592 0.999999 1732 2280)" stroke="black" fill="#46E488"/>
<text transform="matrix(1 0 0.000993592 0.999999 1741.5 2285)" fill="black" xml:space="preserve" style="white-space: pre" font-family="Arial" font-size="16" letter-spacing="0em"><tspan x="0" y="14.9688">14</tspan></text>
</g>
<g name="3120">
<rect x="0.500497" y="0.5" width="36" height="24.002" transform="matrix(1 0 0.000993592 0.999999 1732 2309)" stroke="black" fill="#46E488"/>
<text transform="matrix(1 0 0.000993592 0.999999 1741.5 2312)" fill="black" xml:space="preserve" style="white-space: pre" font-family="Arial" font-size="16" letter-spacing="0em"><tspan x="0" y="14.9688">15</tspan></text>
</g>
<g name="3419">
<rect x="0.250213" y="0.25" width="25.7627" height="23.5" transform="matrix(1 0 0.000851099 1 2287 1957)" stroke="black" fill="#FFAF69"/>
<text transform="matrix(1 0 0.000851098 1 2292.01 1964.5)" fill="black" xml:space="preserve" style="white-space: pre" font-family="Arial" font-size="8" letter-spacing="0em"><tspan x="1.38133" y="7.23438">205</tspan></text>
</g>
<g name="3420">
<rect x="0.250213" y="0.25" width="25.7627" height="23.5" transform="matrix(1 0 0.000851099 1 2169 2633)" stroke="black" fill="#FFAF69"/>
<text transform="matrix(1 0 0.000851098 1 2174.01 2640.5)" fill="black" xml:space="preserve" style="white-space: pre" font-family="Arial" font-size="8" letter-spacing="0em"><tspan x="1.38133" y="7.23438">199</tspan></text>
</g>
<g name="3421">
<rect x="0.250213" y="0.25" width="25.7627" height="23.5" transform="matrix(1 0 0.000851099 1 2240 2633)" stroke="black" fill="#FFAF69"/>
<text transform="matrix(1 0 0.000851098 1 2245.01 2640.5)" fill="black" xml:space="preserve" style="white-space: pre" font-family="Arial" font-size="8" letter-spacing="0em"><tspan x="1.38133" y="7.23438">204</tspan></text>
</g>
<g name="3422">
<rect x="0.250213" y="0.25" width="25.7627" height="23.5" transform="matrix(1 0 0.000851099 1 2306 2633)" stroke="black" fill="#FFAF69"/>
<text transform="matrix(1 0 0.000851098 1 2311.01 2640.5)" fill="black" xml:space="preserve" style="white-space: pre" font-family="Arial" font-size="8" letter-spacing="0em"><tspan x="1.38133" y="7.23438">211</tspan></text>
</g>
<g name="3423">
<rect x="0.250213" y="0.25" width="25.7627" height="23.5" transform="matrix(1 0 0.000851099 1 2169 2805)" stroke="black" fill="#FFAF69"/>
<text transform="matrix(1 0 0.000851098 1 2174.01 2812.5)" fill="black" xml:space="preserve" style="white-space: pre" font-family="Arial" font-size="8" letter-spacing="0em"><tspan x="1.38133" y="7.23438">198</tspan></text>
</g>
<g name="3424">
<rect x="0.250213" y="0.25" width="25.7627" height="23.5" transform="matrix(1 0 0.000851099 1 2280 2805)" stroke="black" fill="#FFAF69"/>
<text transform="matrix(1 0 0.000851098 1 2285.01 2812.5)" fill="black" xml:space="preserve" style="white-space: pre" font-family="Arial" font-size="8" letter-spacing="0em"><tspan x="1.38133" y="7.23438">206</tspan></text>
</g>
<g name="3694">
<rect x="0.500497" y="0.5" width="36" height="49" transform="matrix(1 0 0.000993592 0.999999 1843 1824)" stroke="black" fill="#46E488"/>
<text transform="matrix(1 0 0.000993592 0.999999 1848.02 1839.5)" fill="black" xml:space="preserve" style="white-space: pre" font-family="Arial" font-size="16" letter-spacing="0em"><tspan x="0" y="14.9688">244</tspan></text>
</g>
<g name="3694">
<rect x="0.500497" y="0.5" width="36" height="49" transform="matrix(1 0 0.000993592 0.999999 1806 1824)" stroke="black" fill="#46E488"/>
<text transform="matrix(1 0 0.000993592 0.999999 1811.02 1839.5)" fill="black" xml:space="preserve" style="white-space: pre" font-family="Arial" font-size="16" letter-spacing="0em"><tspan x="0" y="14.9688">244</tspan></text>
</g>
<g name="3694">
<rect x="0.500497" y="0.5" width="36" height="49" transform="matrix(1 0 0.000993592 0.999999 1769 1824)" stroke="black" fill="#46E488"/>
<text transform="matrix(1 0 0.000993592 0.999999 1774.02 1839.5)" fill="black" xml:space="preserve" style="white-space: pre" font-family="Arial" font-size="16" letter-spacing="0em"><tspan x="0" y="14.9688">244</tspan></text>
</g>
<g name="3695">
<rect x="0.500497" y="0.5" width="36" height="49" transform="matrix(1 0 0.000993592 0.999999 1917 1824)" stroke="black" fill="#46E488"/>
<text transform="matrix(1 0 0.000993592 0.999999 1922.02 1839.5)" fill="black" xml:space="preserve" style="white-space: pre" font-family="Arial" font-size="16" letter-spacing="0em"><tspan x="0" y="14.9688">243</tspan></text>
</g>
<g name="3696">
<rect x="0.500497" y="0.5" width="36" height="49" transform="matrix(1 0 0.000993592 0.999999 1991 1824)" stroke="black" fill="#46E488"/>
<text transform="matrix(1 0 0.000993592 0.999999 1996.02 1839.5)" fill="black" xml:space="preserve" style="white-space: pre" font-family="Arial" font-size="16" letter-spacing="0em"><tspan x="0" y="14.9688">242</tspan></text>
</g>
<g name="3696">
<rect x="0.500497" y="0.5" width="36" height="49" transform="matrix(1 0 0.000993592 0.999999 1954 1824)" stroke="black" fill="#46E488"/>
<text transform="matrix(1 0 0.000993592 0.999999 1959.02 1839.5)" fill="black" xml:space="preserve" style="white-space: pre" font-family="Arial" font-size="16" letter-spacing="0em"><tspan x="0" y="14.9688">242</tspan></text>
</g>
<g name="3697">
<rect x="0.500497" y="0.5" width="36" height="49" transform="matrix(1 0 0.000993592 0.999999 2028 1824)" stroke="black" fill="#46E488"/>
<text transform="matrix(1 0 0.000993592 0.999999 2033.02 1839.5)" fill="black" xml:space="preserve" style="white-space: pre" font-family="Arial" font-size="16" letter-spacing="0em"><tspan x="0" y="14.9688">241</tspan></text>
</g>
<g name="3698">
<rect x="0.500497" y="0.5" width="36" height="49" transform="matrix(1 0 0.000993592 0.999999 2065 1824)" stroke="black" fill="#46E488"/>
<text transform="matrix(1 0 0.000993592 0.999999 2070.02 1839.5)" fill="black" xml:space="preserve" style="white-space: pre" font-family="Arial" font-size="16" letter-spacing="0em"><tspan x="0" y="14.9688">240</tspan></text>
</g>
<g name="3699">
<rect x="0.500497" y="0.5" width="36" height="49" transform="matrix(1 0 0.000993592 0.999999 2139 1824)" stroke="black" fill="#46E488"/>
<text transform="matrix(1 0 0.000993592 0.999999 2144.02 1839.5)" fill="black" xml:space="preserve" style="white-space: pre" font-family="Arial" font-size="16" letter-spacing="0em"><tspan x="0" y="14.9688">239</tspan></text>
</g>
<g name="3699">
<rect x="0.500497" y="0.5" width="36" height="49" transform="matrix(1 0 0.000993592 0.999999 2102 1824)" stroke="black" fill="#46E488"/>
<text transform="matrix(1 0 0.000993592 0.999999 2107.02 1839.5)" fill="black" xml:space="preserve" style="white-space: pre" font-family="Arial" font-size="16" letter-spacing="0em"><tspan x="0" y="14.9688">239</tspan></text>
</g>
<g name="3700">
<rect x="0.500497" y="0.5" width="36" height="49" transform="matrix(1 0 0.000993592 0.999999 2213 1824)" stroke="black" fill="#46E488"/>
<text transform="matrix(1 0 0.000993592 0.999999 2218.02 1839.5)" fill="black" xml:space="preserve" style="white-space: pre" font-family="Arial" font-size="16" letter-spacing="0em"><tspan x="0" y="14.9688">238</tspan></text>
</g>
<g name="3700">
<rect x="0.500497" y="0.5" width="36" height="49" transform="matrix(1 0 0.000993592 0.999999 2176 1824)" stroke="black" fill="#46E488"/>
<text transform="matrix(1 0 0.000993592 0.999999 2181.02 1839.5)" fill="black" xml:space="preserve" style="white-space: pre" font-family="Arial" font-size="16" letter-spacing="0em"><tspan x="0" y="14.9688">238</tspan></text>
</g>
<g name="3701">
<rect x="0.500497" y="0.5" width="36" height="49" transform="matrix(1 0 0.000993592 0.999999 2287 1824)" stroke="black" fill="#46E488"/>
<text transform="matrix(1 0 0.000993592 0.999999 2292.02 1839.5)" fill="black" xml:space="preserve" style="white-space: pre" font-family="Arial" font-size="16" letter-spacing="0em"><tspan x="0" y="14.9688">237</tspan></text>
</g>
<g name="3701">
<rect x="0.500497" y="0.5" width="36" height="49" transform="matrix(1 0 0.000993592 0.999999 2250 1824)" stroke="black" fill="#46E488"/>
<text transform="matrix(1 0 0.000993592 0.999999 2255.02 1839.5)" fill="black" xml:space="preserve" style="white-space: pre" font-family="Arial" font-size="16" letter-spacing="0em"><tspan x="0" y="14.9688">237</tspan></text>
</g>
<g name="3702">
<rect x="0.500497" y="0.5" width="36" height="49" transform="matrix(1 0 0.000993592 0.999999 2398 1824)" stroke="black" fill="#46E488"/>
<text transform="matrix(1 0 0.000993592 0.999999 2403.02 1839.5)" fill="black" xml:space="preserve" style="white-space: pre" font-family="Arial" font-size="16" letter-spacing="0em"><tspan x="0" y="14.9688">236</tspan></text>
</g>
<g name="3702">
<rect x="0.500497" y="0.5" width="36" height="49" transform="matrix(1 0 0.000993592 0.999999 2361 1824)" stroke="black" fill="#46E488"/>
<text transform="matrix(1 0 0.000993592 0.999999 2366.02 1839.5)" fill="black" xml:space="preserve" style="white-space: pre" font-family="Arial" font-size="16" letter-spacing="0em"><tspan x="0" y="14.9688">236</tspan></text>
</g>
<g name="3703">
<rect x="0.500497" y="0.5" width="42" height="49" transform="matrix(1 0 0.000993592 0.999999 2472 1824)" stroke="black" fill="#46E488"/>
<text transform="matrix(1 0 0.000993592 0.999999 2480.02 1839.5)" fill="black" xml:space="preserve" style="white-space: pre" font-family="Arial" font-size="16" letter-spacing="0em"><tspan x="0" y="14.9688">235</tspan></text>
</g>
<g name="3703">
<rect x="0.500497" y="0.5" width="36" height="49" transform="matrix(1 0 0.000993592 0.999999 2435 1824)" stroke="black" fill="#46E488"/>
<text transform="matrix(1 0 0.000993592 0.999999 2440.02 1839.5)" fill="black" xml:space="preserve" style="white-space: pre" font-family="Arial" font-size="16" letter-spacing="0em"><tspan x="0" y="14.9688">235</tspan></text>
</g>
<g name="3704">
<rect x="0.500497" y="0.5" width="49" height="31" transform="matrix(1 0 0.000993592 0.999999 2465 1873.96)" stroke="black" fill="#46E488"/>
<text transform="matrix(1 0 0.000993592 0.999999 2476.51 1880.46)" fill="black" xml:space="preserve" style="white-space: pre" font-family="Arial" font-size="16" letter-spacing="0em"><tspan x="0" y="14.9688">253</tspan></text>
</g>
<g name="3705">
<rect x="0.500497" y="0.5" width="49" height="31" transform="matrix(1 0 0.000993592 0.999999 2465 1938.04)" stroke="black" fill="#46E488"/>
<text transform="matrix(1 0 0.000993592 0.999999 2476.51 1944.54)" fill="black" xml:space="preserve" style="white-space: pre" font-family="Arial" font-size="16" letter-spacing="0em"><tspan x="0" y="14.9688">252</tspan></text>
</g>
<g name="3705">
<rect x="0.500497" y="0.5" width="49" height="31" transform="matrix(1 0 0.000993592 0.999999 2465 1906)" stroke="black" fill="#46E488"/>
<text transform="matrix(1 0 0.000993592 0.999999 2476.51 1912.5)" fill="black" xml:space="preserve" style="white-space: pre" font-family="Arial" font-size="16" letter-spacing="0em"><tspan x="0" y="14.9688">252</tspan></text>
</g>
<g name="3706">
<rect x="0.500497" y="0.5" width="49" height="31" transform="matrix(1 0 0.000993592 0.999999 2465 1970.09)" stroke="black" fill="#46E488"/>
<text transform="matrix(1 0 0.000993592 0.999999 2476.51 1976.59)" fill="black" xml:space="preserve" style="white-space: pre" font-family="Arial" font-size="16" letter-spacing="0em"><tspan x="0" y="14.9688">251</tspan></text>
</g>
<g name="3707">
<rect x="0.500497" y="0.5" width="49" height="31" transform="matrix(1 0 0.000993592 0.999999 2465 2002.13)" stroke="black" fill="#46E488"/>
<text transform="matrix(1 0 0.000993592 0.999999 2476.51 2008.63)" fill="black" xml:space="preserve" style="white-space: pre" font-family="Arial" font-size="16" letter-spacing="0em"><tspan x="0" y="14.9688">250</tspan></text>
</g>
<g name="3708">
<rect x="0.500497" y="0.5" width="49" height="31" transform="matrix(1 0 0.000993592 0.999999 2465 2034.17)" stroke="black" fill="#46E488"/>
<text transform="matrix(1 0 0.000993592 0.999999 2476.51 2040.67)" fill="black" xml:space="preserve" style="white-space: pre" font-family="Arial" font-size="16" letter-spacing="0em"><tspan x="0" y="14.9688">249</tspan></text>
</g>
<g name="3708">
<rect x="0.500497" y="0.5" width="49" height="31" transform="matrix(1 0 0.000993592 0.999999 2465 2066.21)" stroke="black" fill="#46E488"/>
<text transform="matrix(1 0 0.000993592 0.999999 2476.51 2072.71)" fill="black" xml:space="preserve" style="white-space: pre" font-family="Arial" font-size="16" letter-spacing="0em"><tspan x="0" y="14.9688">249</tspan></text>
</g>
<g name="3709">
<rect x="0.500497" y="0.5" width="49" height="31" transform="matrix(1 0 0.000993592 0.999999 2465 2098.26)" stroke="black" fill="#46E488"/>
<text transform="matrix(1 0 0.000993592 0.999999 2476.51 2104.76)" fill="black" xml:space="preserve" style="white-space: pre" font-family="Arial" font-size="16" letter-spacing="0em"><tspan x="0" y="14.9688">248</tspan></text>
</g>
<g name="3710">
<rect x="0.500497" y="0.5" width="49" height="31" transform="matrix(1 0 0.000993592 0.999999 2465 2162.34)" stroke="black" fill="#46E488"/>
<text transform="matrix(1 0 0.000993592 0.999999 2476.51 2168.84)" fill="black" xml:space="preserve" style="white-space: pre" font-family="Arial" font-size="16" letter-spacing="0em"><tspan x="0" y="14.9688">247</tspan></text>
</g>
<g name="3710">
<rect x="0.500497" y="0.5" width="49" height="31" transform="matrix(1 0 0.000993592 0.999999 2465 2130.3)" stroke="black" fill="#46E488"/>
<text transform="matrix(1 0 0.000993592 0.999999 2476.51 2136.8)" fill="black" xml:space="preserve" style="white-space: pre" font-family="Arial" font-size="16" letter-spacing="0em"><tspan x="0" y="14.9688">247</tspan></text>
</g>
<g name="3711">
<rect x="0.500497" y="0.5" width="49" height="31" transform="matrix(1 0 0.000993592 0.999999 2465 2194.39)" stroke="black" fill="#46E488"/>
<text transform="matrix(1 0 0.000993592 0.999999 2476.51 2200.89)" fill="black" xml:space="preserve" style="white-space: pre" font-family="Arial" font-size="16" letter-spacing="0em"><tspan x="0" y="14.9688">246</tspan></text>
</g>
<g name="3712">
<rect x="0.500497" y="0.5" width="49" height="31" transform="matrix(1 0 0.000993592 0.999999 2465 2258.47)" stroke="black" fill="#46E488"/>
<text transform="matrix(1 0 0.000993592 0.999999 2476.51 2264.97)" fill="black" xml:space="preserve" style="white-space: pre" font-family="Arial" font-size="16" letter-spacing="0em"><tspan x="0" y="14.9688">245</tspan></text>
</g>
<g name="3712">
<rect x="0.500497" y="0.5" width="49" height="31" transform="matrix(1 0 0.000993592 0.999999 2465 2226.43)" stroke="black" fill="#46E488"/>
<text transform="matrix(1 0 0.000993592 0.999999 2476.51 2232.93)" fill="black" xml:space="preserve" style="white-space: pre" font-family="Arial" font-size="16" letter-spacing="0em"><tspan x="0" y="14.9688">245</tspan></text>
</g>
<g name="3713">
<rect x="0.250213" y="0.25" width="36.5326" height="23.5" transform="matrix(1 0 0.000851099 1 1732 1800)" stroke="black" stroke-width="0.5" fill="#FFFF00"/>
<text transform="matrix(1 0 0.000851098 1 1737.01 1807.5)" fill="black" xml:space="preserve" style="white-space: pre" font-family="Arial" font-size="8" letter-spacing="0em"><tspan x="8.65693" y="7.23438">1A</tspan></text>
</g>
<g name="3714">
<rect x="0.250175" y="0.25" width="23.5041" height="28.502" transform="matrix(1 0 0.000700664 1 1708 1874)" stroke="black" stroke-width="0.5" fill="#FFFF00"/>
<text transform="matrix(1 0 0.000700663 1 1708.01 1884)" fill="black" xml:space="preserve" style="white-space: pre" font-family="Arial" font-size="8" letter-spacing="0em"><tspan x="9.75203" y="7.23438">2</tspan></text>
</g>
<g name="3715">
<rect x="0.250175" y="0.25" width="23.5041" height="28.502" transform="matrix(1 0 0.000700664 1 1708 1903)" stroke="black" stroke-width="0.5" fill="#FFFF00"/>
<text transform="matrix(1 0 0.000700663 1 1708.01 1913)" fill="black" xml:space="preserve" style="white-space: pre" font-family="Arial" font-size="8" letter-spacing="0em"><tspan x="9.75203" y="7.23438">3</tspan></text>
</g>
<g name="3716">
<rect x="0.250175" y="0.25" width="23.5041" height="28.502" transform="matrix(1 0 0.000700664 1 1708 1932)" stroke="black" stroke-width="0.5" fill="#FFFF00"/>
<text transform="matrix(1 0 0.000700663 1 1708.01 1942)" fill="black" xml:space="preserve" style="white-space: pre" font-family="Arial" font-size="8" letter-spacing="0em"><tspan x="9.75203" y="7.23438">4</tspan></text>
</g>
<g name="3717">
<rect x="0.250175" y="0.25" width="23.5041" height="28.502" transform="matrix(1 0 0.000700664 1 1708 1961)" stroke="black" stroke-width="0.5" fill="#FFFF00"/>
<text transform="matrix(1 0 0.000700663 1 1708.01 1971)" fill="black" xml:space="preserve" style="white-space: pre" font-family="Arial" font-size="8" letter-spacing="0em"><tspan x="5.49031" y="7.23438">4/A</tspan></text>
</g>
<g name="3718">
<rect x="0.250175" y="0.25" width="23.5041" height="28.502" transform="matrix(1 0 0.000700664 1 1708 1990)" stroke="black" stroke-width="0.5" fill="#FFFF00"/>
<text transform="matrix(1 0 0.000700663 1 1708.01 2000)" fill="black" xml:space="preserve" style="white-space: pre" font-family="Arial" font-size="8" letter-spacing="0em"><tspan x="9.75203" y="7.23438">5</tspan></text>
</g>
<g name="3719">
<rect x="0.250175" y="0.25" width="23.5041" height="28.502" transform="matrix(1 0 0.000700664 1 1708 2019)" stroke="black" stroke-width="0.5" fill="#FFFF00"/>
<text transform="matrix(1 0 0.000700663 1 1708.01 2029)" fill="black" xml:space="preserve" style="white-space: pre" font-family="Arial" font-size="8" letter-spacing="0em"><tspan x="9.75203" y="7.23438">6</tspan></text>
</g>
<g name="3720">
<rect x="0.250175" y="0.25" width="23.5041" height="28.502" transform="matrix(1 0 0.000700664 1 1708 2048)" stroke="black" stroke-width="0.5" fill="#FFFF00"/>
<text transform="matrix(1 0 0.000700663 1 1708.01 2058)" fill="black" xml:space="preserve" style="white-space: pre" font-family="Arial" font-size="8" letter-spacing="0em"><tspan x="9.75203" y="7.23438">7</tspan></text>
</g>
<g name="3721">
<rect x="0.250175" y="0.25" width="23.5041" height="28.502" transform="matrix(1 0 0.000700664 1 1708 2077)" stroke="black" stroke-width="0.5" fill="#FFFF00"/>
<text transform="matrix(1 0 0.000700663 1 1708.01 2087)" fill="black" xml:space="preserve" style="white-space: pre" font-family="Arial" font-size="8" letter-spacing="0em"><tspan x="9.75203" y="7.23438">8</tspan></text>
</g>
<g name="3722">
<rect x="0.250175" y="0.25" width="23.5041" height="28.502" transform="matrix(1 0 0.000700664 1 1708 2106)" stroke="black" stroke-width="0.5" fill="#FFFF00"/>
<text transform="matrix(1 0 0.000700663 1 1708.01 2116)" fill="black" xml:space="preserve" style="white-space: pre" font-family="Arial" font-size="8" letter-spacing="0em"><tspan x="9.75203" y="7.23438">9</tspan></text>
</g>
<g name="3723">
<rect x="0.250175" y="0.25" width="23.5041" height="28.502" transform="matrix(1 0 0.000700664 1 1708 2135)" stroke="black" stroke-width="0.5" fill="#FFFF00"/>
<text transform="matrix(1 0 0.000700663 1 1708.01 2145)" fill="black" xml:space="preserve" style="white-space: pre" font-family="Arial" font-size="8" letter-spacing="0em"><tspan x="7.50203" y="7.23438">10</tspan></text>
</g>
<g name="3724">
<rect x="0.250175" y="0.25" width="23.5041" height="28.502" transform="matrix(1 0 0.000700664 1 1708 2164)" stroke="black" stroke-width="0.5" fill="#FFFF00"/>
<text transform="matrix(1 0 0.000700663 1 1708.01 2174)" fill="black" xml:space="preserve" style="white-space: pre" font-family="Arial" font-size="8" letter-spacing="0em"><tspan x="7.50203" y="7.23438">11</tspan></text>
</g>
<g name="3725">
<rect x="0.250175" y="0.25" width="23.5041" height="28.502" transform="matrix(1 0 0.000700664 1 1708 2193)" stroke="black" stroke-width="0.5" fill="#FFFF00"/>
<text transform="matrix(1 0 0.000700663 1 1708.01 2203)" fill="black" xml:space="preserve" style="white-space: pre" font-family="Arial" font-size="8" letter-spacing="0em"><tspan x="7.50203" y="7.23438">12</tspan></text>
</g>
<g name="3726">
<rect x="0.250175" y="0.25" width="23.5041" height="28.502" transform="matrix(1 0 0.000700664 1 1708 2222)" stroke="black" stroke-width="0.5" fill="#FFFF00"/>
<text transform="matrix(1 0 0.000700663 1 1708.01 2232)" fill="black" xml:space="preserve" style="white-space: pre" font-family="Arial" font-size="8" letter-spacing="0em"><tspan x="7.50203" y="7.23438">12/A</tspan></text>
</g>
<g name="3727">
<rect x="0.250175" y="0.25" width="23.5041" height="28.502" transform="matrix(1 0 0.000700664 1 1708 2251)" stroke="black" stroke-width="0.5" fill="#FFFF00"/>
<text transform="matrix(1 0 0.000700663 1 1708.01 2261)" fill="black" xml:space="preserve" style="white-space: pre" font-family="Arial" font-size="8" letter-spacing="0em"><tspan x="7.50203" y="7.23438">13</tspan></text>
</g>
<g name="3728">
<rect x="0.250175" y="0.25" width="23.5041" height="28.502" transform="matrix(1 0 0.000700664 1 1708 2280)" stroke="black" stroke-width="0.5" fill="#FFFF00"/>
<text transform="matrix(1 0 0.000700663 1 1708.01 2290)" fill="black" xml:space="preserve" style="white-space: pre" font-family="Arial" font-size="8" letter-spacing="0em"><tspan x="7.50203" y="7.23438">14</tspan></text>
</g>
<g name="3729">
<rect x="0.250175" y="0.25" width="23.5041" height="24.5039" transform="matrix(1 0 0.000700664 1 1708 2309)" stroke="black" stroke-width="0.5" fill="#FFFF00"/>
<text transform="matrix(1 0 0.000700663 1 1708.01 2317)" fill="black" xml:space="preserve" style="white-space: pre" font-family="Arial" font-size="8" letter-spacing="0em"><tspan x="7.50203" y="7.23438">15</tspan></text>
</g>
<g name="3730">
<rect x="0.250213" y="0.25" width="36.5326" height="23.5" transform="matrix(1 0 0.000851099 1 1769 1800)" stroke="black" stroke-width="0.5" fill="#FFFF00"/>
<text transform="matrix(1 0 0.000851098 1 1774.01 1807.5)" fill="black" xml:space="preserve" style="white-space: pre" font-family="Arial" font-size="8" letter-spacing="0em"><tspan x="6.76631" y="7.23438">244</tspan></text>
</g>
<g name="3731">
<rect x="0.250213" y="0.25" width="36.5326" height="23.5" transform="matrix(1 0 0.000851099 1 1806 1800)" stroke="black" stroke-width="0.5" fill="#FFFF00"/>
<text transform="matrix(1 0 0.000851098 1 1811.01 1807.5)" fill="black" xml:space="preserve" style="white-space: pre" font-family="Arial" font-size="8" letter-spacing="0em"><tspan x="4.15693" y="7.23438">244A</tspan></text>
</g>
<g name="3732">
<rect x="0.250213" y="0.25" width="36.5326" height="23.5" transform="matrix(1 0 0.000851099 1 1843 1800)" stroke="black" stroke-width="0.5" fill="#FFFF00"/>
<text transform="matrix(1 0 0.000851098 1 1848.01 1807.5)" fill="black" xml:space="preserve" style="white-space: pre" font-family="Arial" font-size="8" letter-spacing="0em"><tspan x="4.27412" y="7.23438">244B</tspan></text>
</g>
<g name="3733">
<rect x="0.250213" y="0.25" width="36.5326" height="23.5" transform="matrix(1 0 0.000851099 1 1917 1800)" stroke="black" stroke-width="0.5" fill="#FFFF00"/>
<text transform="matrix(1 0 0.000851098 1 1922.01 1807.5)" fill="black" xml:space="preserve" style="white-space: pre" font-family="Arial" font-size="8" letter-spacing="0em"><tspan x="6.76631" y="7.23438">243</tspan></text>
</g>
<g name="3734">
<rect x="0.250213" y="0.25" width="36.5326" height="23.5" transform="matrix(1 0 0.000851099 1 1954 1800)" stroke="black" stroke-width="0.5" fill="#FFFF00"/>
<text transform="matrix(1 0 0.000851098 1 1959.01 1807.5)" fill="black" xml:space="preserve" style="white-space: pre" font-family="Arial" font-size="8" letter-spacing="0em"><tspan x="6.76631" y="7.23438">242</tspan></text>
</g>
<g name="3735">
<rect x="0.250213" y="0.25" width="36.5326" height="23.5" transform="matrix(1 0 0.000851099 1 1991 1800)" stroke="black" stroke-width="0.5" fill="#FFFF00"/>
<text transform="matrix(1 0 0.000851098 1 1996.01 1807.5)" fill="black" xml:space="preserve" style="white-space: pre" font-family="Arial" font-size="8" letter-spacing="0em"><tspan x="4.15693" y="7.23438">242A</tspan></text>
</g>
<g name="3736">
<rect x="0.250213" y="0.25" width="36.5326" height="23.5" transform="matrix(1 0 0.000851099 1 2028 1800)" stroke="black" stroke-width="0.5" fill="#FFFF00"/>
<text transform="matrix(1 0 0.000851098 1 2033.01 1807.5)" fill="black" xml:space="preserve" style="white-space: pre" font-family="Arial" font-size="8" letter-spacing="0em"><tspan x="6.76631" y="7.23438">241</tspan></text>
</g>
<g name="3737">
<rect x="0.250213" y="0.25" width="36.5326" height="23.5" transform="matrix(1 0 0.000851099 1 2065 1800)" stroke="black" stroke-width="0.5" fill="#FFFF00"/>
<text transform="matrix(1 0 0.000851098 1 2070.01 1807.5)" fill="black" xml:space="preserve" style="white-space: pre" font-family="Arial" font-size="8" letter-spacing="0em"><tspan x="6.76631" y="7.23438">240</tspan></text>
</g>
<g name="3738">
<rect x="0.250213" y="0.25" width="36.5326" height="23.5" transform="matrix(1 0 0.000851099 1 2102 1800)" stroke="black" stroke-width="0.5" fill="#FFFF00"/>
<text transform="matrix(1 0 0.000851098 1 2107.01 1807.5)" fill="black" xml:space="preserve" style="white-space: pre" font-family="Arial" font-size="8" letter-spacing="0em"><tspan x="6.76631" y="7.23438">239</tspan></text>
</g>
<g name="3739">
<rect x="0.250213" y="0.25" width="36.5326" height="23.5" transform="matrix(1 0 0.000851099 1 2139 1800)" stroke="black" stroke-width="0.5" fill="#FFFF00"/>
<text transform="matrix(1 0 0.000851098 1 2144.01 1807.5)" fill="black" xml:space="preserve" style="white-space: pre" font-family="Arial" font-size="8" letter-spacing="0em"><tspan x="4.15693" y="7.23438">239A</tspan></text>
</g>
<g name="3740">
<rect x="0.250213" y="0.25" width="36.5326" height="23.5" transform="matrix(1 0 0.000851099 1 2176 1800)" stroke="black" stroke-width="0.5" fill="#FFFF00"/>
<text transform="matrix(1 0 0.000851098 1 2181.01 1807.5)" fill="black" xml:space="preserve" style="white-space: pre" font-family="Arial" font-size="8" letter-spacing="0em"><tspan x="6.76631" y="7.23438">238</tspan></text>
</g>
<g name="3741">
<rect x="0.250213" y="0.25" width="36.5326" height="23.5" transform="matrix(1 0 0.000851099 1 2213 1800)" stroke="black" stroke-width="0.5" fill="#FFFF00"/>
<text transform="matrix(1 0 0.000851098 1 2218.01 1807.5)" fill="black" xml:space="preserve" style="white-space: pre" font-family="Arial" font-size="8" letter-spacing="0em"><tspan x="4.15693" y="7.23438">238A</tspan></text>
</g>
<g name="3742">
<rect x="0.250213" y="0.25" width="36.5326" height="23.5" transform="matrix(1 0 0.000851099 1 2250 1800)" stroke="black" stroke-width="0.5" fill="#FFFF00"/>
<text transform="matrix(1 0 0.000851098 1 2255.01 1807.5)" fill="black" xml:space="preserve" style="white-space: pre" font-family="Arial" font-size="8" letter-spacing="0em"><tspan x="6.76631" y="7.23438">237</tspan></text>
</g>
<g name="3743">
<rect x="0.250213" y="0.25" width="36.5326" height="23.5" transform="matrix(1 0 0.000851099 1 2287 1800)" stroke="black" stroke-width="0.5" fill="#FFFF00"/>
<text transform="matrix(1 0 0.000851098 1 2292.01 1807.5)" fill="black" xml:space="preserve" style="white-space: pre" font-family="Arial" font-size="8" letter-spacing="0em"><tspan x="4.15693" y="7.23438">237A</tspan></text>
</g>
<g name="3744">
<rect x="0.250213" y="0.25" width="36.5326" height="23.5" transform="matrix(1 0 0.000851099 1 2361 1800)" stroke="black" stroke-width="0.5" fill="#FFFF00"/>
<text transform="matrix(1 0 0.000851098 1 2366.01 1807.5)" fill="black" xml:space="preserve" style="white-space: pre" font-family="Arial" font-size="8" letter-spacing="0em"><tspan x="6.76631" y="7.23438">236</tspan></text>
</g>
<g name="3745">
<rect x="0.250213" y="0.25" width="36.5326" height="23.5" transform="matrix(1 0 0.000851099 1 2398 1800)" stroke="black" stroke-width="0.5" fill="#FFFF00"/>
<text transform="matrix(1 0 0.000851098 1 2403.01 1807.5)" fill="black" xml:space="preserve" style="white-space: pre" font-family="Arial" font-size="8" letter-spacing="0em"><tspan x="4.15693" y="7.23438">236A</tspan></text>
</g>
<g name="3746">
<rect x="0.250213" y="0.25" width="36.5326" height="23.5" transform="matrix(1 0 0.000851099 1 2435 1800)" stroke="black" stroke-width="0.5" fill="#FFFF00"/>
<text transform="matrix(1 0 0.000851098 1 2440.01 1807.5)" fill="black" xml:space="preserve" style="white-space: pre" font-family="Arial" font-size="8" letter-spacing="0em"><tspan x="6.76631" y="7.23438">235</tspan></text>
</g>
<g name="3747">
<rect x="0.250213" y="0.25" width="42.5877" height="23.5" transform="matrix(1 0 0.000851099 1 2472 1800)" stroke="black" stroke-width="0.5" fill="#FFFF00"/>
<text transform="matrix(1 0 0.000851098 1 2477.01 1807.5)" fill="black" xml:space="preserve" style="white-space: pre" font-family="Arial" font-size="8" letter-spacing="0em"><tspan x="7.1845" y="7.23438">235A</tspan></text>
</g>
<!-- Blocks - End -->
</svg>
