<svg width="7461" height="4272" viewBox="0 0 7461 4272" fill="none" xmlns="http://www.w3.org/2000/svg">
<rect width="7461" height="4272" fill="white"/>
<!-- Block Jayma Filial Container - Start -->
<path d="M6581.5 1266.5V2399.5H5350.5V1266.5H6581.5Z" fill="#46D9E4" fill-opacity="0.2" stroke="#185C61"/>
<text transform="matrix(1 0 0.00161987 0.999999 5441 2268)" fill="#576768" xml:space="preserve" style="white-space: pre" font-family="Arial" font-size="60" font-weight="300" letter-spacing="0em"><tspan x="17.6231" y="55.5078">&#x416;&#x430;&#x439;&#x43c;&#x430; &#x444;&#x438;&#x43b;&#x438;&#x430;&#x43b;&#x43b;&#x430;&#x440;</tspan></text>
<!-- Block Jayma Filial Container - End -->

<!-- Block Jayma Filial - Start -->
<g name="b_79">
<rect x="0.500281" y="0.5" width="999" height="99" transform="matrix(1 0 0.000562373 1 5466 1376)" stroke="black" fill="#46D9E4"/>
<text transform="matrix(1 0 0.000562372 1 5762.51 1398)" fill="black" xml:space="preserve" style="white-space: pre" font-family="Arial" font-size="48" letter-spacing="0em"><tspan x="0.15625" y="44.4062">&#x413;&#x4e9;&#x43d;&#x435; &#x49b;&#x430;&#x43b;&#x430; &#x444;&#x438;&#x43b;&#x438;&#x430;&#x43b;</tspan></text>
</g>
<g name="b_80">
<rect x="0.500281" y="0.5" width="999" height="99" transform="matrix(1 0 0.000562373 1 5466 1543)" stroke="black" fill="#46D9E4"/>
<text transform="matrix(1 0 0.000562372 1 5720.51 1565)" fill="black" xml:space="preserve" style="white-space: pre" font-family="Arial" font-size="48" letter-spacing="0em"><tspan x="0.179688" y="44.4062">&#x41e;&#x43f;&#x442;&#x43e;&#x43c; &#x43a;&#x430;&#x442;&#x435;&#x43a;&#x441; &#x444;&#x438;&#x43b;&#x438;&#x430;&#x43b;</tspan></text>
</g>
<g name="b_81">
<rect x="0.500281" y="0.5" width="999" height="99" transform="matrix(1 0 0.000562373 1 5466 1710)" stroke="black" fill="#46D9E4"/>
<text transform="matrix(1 0 0.000562372 1 5718.01 1732)" fill="black" xml:space="preserve" style="white-space: pre" font-family="Arial" font-size="48" letter-spacing="0em"><tspan x="0.148438" y="44.4062">&#x413;&#x435;&#x440;&#x431;&#x438;&#x448; &#x437;&#x430;&#x432;&#x43e;&#x434; &#x444;&#x438;&#x43b;&#x438;&#x430;&#x43b;</tspan></text>
</g>
<g name="b_82">
<rect x="0.500281" y="0.5" width="999" height="99" transform="matrix(1 0 0.000562373 1 5466 1877)" stroke="black" fill="#46D9E4"/>
<text transform="matrix(1 0 0.000562372 1 5747.51 1899)" fill="black" xml:space="preserve" style="white-space: pre" font-family="Arial" font-size="48" letter-spacing="0em"><tspan x="0.109375" y="44.4062">&#x41e;&#x440;&#x430;&#x49b; &#x431;&#x430;&#x43b;&#x493;&#x430; &#x444;&#x438;&#x43b;&#x438;&#x430;&#x43b;</tspan></text>
</g>
<g name="b_87">
<rect x="0.500281" y="0.5" width="999" height="99" transform="matrix(1 0 0.000562373 1 5466 2046)" stroke="black" fill="#46D9E4"/>
<text transform="matrix(1 0 0.000562372 1 5699.01 2068)" fill="black" xml:space="preserve" style="white-space: pre" font-family="Arial" font-size="48" letter-spacing="0em"><tspan x="0.421875" y="44.4062">&#x414;&#x43e;&#x43c;&#x430;&#x43b;&#x430;&#x49b; &#x431;&#x430;&#x437;&#x430;&#x440; &#x444;&#x438;&#x43b;&#x438;&#x430;&#x43b;</tspan></text>
</g>
<!-- Block Jayma Filial - End -->
</svg>
