<svg width="5147" height="4272" viewBox="0 0 5147 4272" fill="none" xmlns="http://www.w3.org/2000/svg">
<rect width="5147" height="4272" fill="white"/>

<!-- Block 6 Container - Start -->
<rect x="3775" y="1764" width="1218" height="1747" stroke="#185C61" stroke-opacity="0.5" fill="#46D9E4" fill-opacity="0.2"/>
<text transform="matrix(1 0 0.000843244 1 3853 3356.15)" fill="#576768" xml:space="preserve" style="white-space: pre" font-family="Arial" font-size="60" font-weight="300" letter-spacing="0em"><tspan x="5.95068" y="55.5078">&#x411;&#x43b;&#x43e;&#x43a; 6</tspan></text>
<!-- Block 6 Container - End -->
<g name="b_36">
<rect x="0.500281" y="0.5" width="217.301" height="71.98" transform="matrix(1 0 0.000562373 1 3833.01 1885)" stroke="black" fill="#46D9E4"/>
<text transform="matrix(1 0 0.000562372 1 3843.02 1911.99)" fill="black" xml:space="preserve" style="white-space: pre" font-family="Arial" font-size="16" letter-spacing="0em"><tspan x="23.6742" y="14.9688">&#x41a;&#x43e;&#x43c;&#x43f;&#x43b;&#x435;&#x43a;&#x441; 2 &#x2014; 125</tspan></text>
</g>

<g name="b_39">
<rect x="0.500281" y="0.5" width="217.301" height="71.98" transform="matrix(1 0 0.000562373 1 3833.01 1812.04)" stroke="black" fill="#46D9E4"/>
<text transform="matrix(1 0 0.000562372 1 3843.02 1839.03)" fill="black" xml:space="preserve" style="white-space: pre" font-family="Arial" font-size="16" letter-spacing="0em"><tspan x="13.9711" y="14.9688">&#x413;&#x4af;&#x440;&#x438;&#x448; &#x431;&#x430;&#x437;&#x430;&#x440; 2 &#x2014; 125</tspan></text>
</g>

<g name="b_55">
<rect x="0.500281" y="0.5" width="784.267" height="40" transform="matrix(1 0 0.000562373 1 4068.26 1812)" stroke="black" fill="#46D9E4"/>
<text transform="matrix(1 0 0.000562372 1 4078.27 1823)" fill="black" xml:space="preserve" style="white-space: pre" font-family="Arial" font-size="16" letter-spacing="0em"><tspan x="298.423" y="14.9688">&#x4e8;&#x440;&#x43d;&#x435;&#x43a; &#x431;&#x430;&#x437;&#x430;&#x440; 1 - 237</tspan></text>
</g>

<rect x="0.500386" y="0.5" width="136.984" height="59" transform="matrix(1 0 0.000772071 1 4169 2009)" stroke="black" fill="#AEAEAE"/>

<rect x="0.500386" y="0.5" width="166.022" height="298" transform="matrix(1 0 0.000772074 1 3850.07 2102.83)" stroke="black" fill="#8DA5D3"/>
<text transform="matrix(1 0 0.000772074 1 3860.17 2224.33)" fill="black" xml:space="preserve" style="white-space: pre" font-family="Arial" font-size="24" letter-spacing="0em"><tspan x="23.0266" y="22.2031">&#x410;&#x436;&#x438;&#x43d;&#x438;&#x44f;&#x437; </tspan><tspan x="6.10477" y="50.2031">&#x41a;&#x430;&#x440;&#x430;&#x43a;&#x430;&#x43b;&#x43f;&#x430;&#x43a;</tspan></text>
<rect x="0.500386" y="0.5" width="96.4283" height="59" transform="matrix(1 0 0.000772071 1 4307 2009)" stroke="black" fill="#AEAEAE"/>
<rect x="0.500386" y="0.5" width="73.2551" height="46" transform="matrix(1 0 0.000772071 1 4337 2073)" stroke="black" fill="#AEAEAE"/>

<rect x="0.500386" y="0.5" width="723" height="465.852" transform="matrix(1 0 0.000772071 1 4210 2139)" stroke="black" fill="#8DA5D3"/>
<text transform="matrix(1 0 0.00077207 1 4220.16 2344.43)" fill="black" xml:space="preserve" style="white-space: pre" font-family="Arial" font-size="48" letter-spacing="0em"><tspan x="256.797" y="44.4062">&#x41a;&#x43e;&#x440;&#x437;&#x438;&#x43d;&#x430;</tspan></text>

<rect x="0.500386" y="0.5" width="885.478" height="581" transform="matrix(1 0 0.00077207 1 4004.76 2644.22)" stroke="black" fill="#C0CEC6"/>
<text transform="matrix(1 0 0.000772069 1 4014.96 2907.22)" fill="black" xml:space="preserve" style="white-space: pre" font-family="Arial" font-size="48" letter-spacing="0em"><tspan x="238.637" y="44.4062">&#x41a;&#x43e;&#x440;&#x437;&#x438;&#x43d;&#x430; &#x421;&#x442;&#x43e;&#x44f;&#x43d;&#x43a;&#x430;</tspan></text>

<rect x="0.500386" y="0.5" width="73.2551" height="498" transform="matrix(1 0 0.000772071 1 4085 2107)" stroke="black" fill="#AEAEAE"/>

<!-- Rent Dukan - Start -->
<g name="4126">
<rect x="0.25021" y="0.25" width="29.5" height="55.2637" transform="matrix(1 0 0.00084066 1 3790 1890)" stroke="black" fill="#FFAF69"/>
<text transform="matrix(1 0 0.000840659 1 3795.02 1913.38)" fill="black" xml:space="preserve" style="white-space: pre" font-family="Arial" font-size="8" letter-spacing="0em"><tspan x="3.25" y="7.23438">162</tspan></text>
</g>
<g name="4127">
<rect x="0.25021" y="0.25" width="29.5" height="55.2637" transform="matrix(1 0 0.00084066 1 3790 1834)" stroke="black" fill="#FFAF69"/>
<text transform="matrix(1 0 0.000840659 1 3795.02 1857.38)" fill="black" xml:space="preserve" style="white-space: pre" font-family="Arial" font-size="8" letter-spacing="0em"><tspan x="3.25" y="7.23438">163</tspan></text>
</g>
<g name="4128">
<rect x="0.250213" y="0.25" width="38.0896" height="23.5" transform="matrix(1 0 0.000851099 1 3803 1965)" stroke="black" fill="#FFAF69"/>
<text transform="matrix(1 0 0.000851098 1 3808.01 1972.5)" fill="black" xml:space="preserve" style="white-space: pre" font-family="Arial" font-size="8" letter-spacing="0em"><tspan x="7.5448" y="7.23438">181</tspan></text>
</g>
<g name="4129">
<rect x="0.250213" y="0.25" width="38.0896" height="23.5" transform="matrix(1 0 0.000851099 1 3841.61 1965)" stroke="black" fill="#FFAF69"/>
<text transform="matrix(1 0 0.000851098 1 3846.62 1972.5)" fill="black" xml:space="preserve" style="white-space: pre" font-family="Arial" font-size="8" letter-spacing="0em"><tspan x="7.5448" y="7.23438">182</tspan></text>
</g>
<g name="4130">
<rect x="0.250213" y="0.25" width="38.0896" height="23.5" transform="matrix(1 0 0.000851099 1 3880.22 1965)" stroke="black" fill="#FFAF69"/>
<text transform="matrix(1 0 0.000851098 1 3885.23 1972.5)" fill="black" xml:space="preserve" style="white-space: pre" font-family="Arial" font-size="8" letter-spacing="0em"><tspan x="7.5448" y="7.23438">185</tspan></text>
</g>
<g name="4131">
<rect x="0.250213" y="0.25" width="38.0896" height="23.5" transform="matrix(1 0 0.000851099 1 3918.83 1965)" stroke="black" fill="#FFAF69"/>
<text transform="matrix(1 0 0.000851098 1 3923.84 1972.5)" fill="black" xml:space="preserve" style="white-space: pre" font-family="Arial" font-size="8" letter-spacing="0em"><tspan x="7.5448" y="7.23438">183</tspan></text>
</g>
<g name="4132">
<rect x="0.250213" y="0.25" width="38.0896" height="23.5" transform="matrix(1 0 0.000851099 1 3857 2432)" stroke="black" fill="#FFAF69"/>
<text transform="matrix(1 0 0.000851098 1 3862.01 2439.5)" fill="black" xml:space="preserve" style="white-space: pre" font-family="Arial" font-size="8" letter-spacing="0em"><tspan x="7.5448" y="7.23438">166</tspan></text>
</g>
<g name="4133">
<rect x="0.250213" y="0.25" width="38.0896" height="23.5" transform="matrix(1 0 0.000851099 1 3923 2432)" stroke="black" fill="#FFAF69"/>
<text transform="matrix(1 0 0.000851098 1 3928.01 2439.5)" fill="black" xml:space="preserve" style="white-space: pre" font-family="Arial" font-size="8" letter-spacing="0em"><tspan x="7.5448" y="7.23438">200</tspan></text>
</g>
<g name="4134">
<rect x="0.250213" y="0.25" width="38.0896" height="23.5" transform="matrix(1 0 0.000851099 1 3989 2432)" stroke="black" fill="#FFAF69"/>
<text transform="matrix(1 0 0.000851098 1 3994.01 2439.5)" fill="black" xml:space="preserve" style="white-space: pre" font-family="Arial" font-size="8" letter-spacing="0em"><tspan x="7.5448" y="7.23438">195</tspan></text>
</g>
<g name="4135">
<rect x="0.250213" y="0.25" width="38.0896" height="23.5" transform="matrix(1 0 0.000851099 1 3857 2472)" stroke="black" fill="#FFAF69"/>
<text transform="matrix(1 0 0.000851098 1 3862.01 2479.5)" fill="black" xml:space="preserve" style="white-space: pre" font-family="Arial" font-size="8" letter-spacing="0em"><tspan x="7.5448" y="7.23438">201</tspan></text>
</g>
<g name="4136">
<rect x="0.250213" y="0.25" width="38.0896" height="42.5" transform="matrix(1 0 0.000851099 1 3989 2472)" stroke="black" fill="#FFAF69"/>
<text transform="matrix(1 0 0.000851098 1 3994.01 2489)" fill="black" xml:space="preserve" style="white-space: pre" font-family="Arial" font-size="8" letter-spacing="0em"><tspan x="7.5448" y="7.23438">203</tspan></text>
</g>
<!-- Rent Dukan - End -->
<!-- Camera - Start -->
<g name="c_4">
<rect width="65.6667" height="33.5319" rx="5.93794" transform="matrix(-1 0 0 1 4117.67 1815)" fill="#1A73E8"/>
</g>
<path d="M4100.9 1833.16V1835.96L4105.09 1831.77L4100.9 1827.57V1830.37H4093.91V1833.16H4100.9Z" fill="white"/>
<g clip-path="url(#clip4_214_243)">
<path d="M4059.68 1832.46C4059.87 1832.46 4060.05 1832.54 4060.18 1832.67C4060.31 1832.8 4060.38 1832.98 4060.38 1833.16V1834.56H4064.28L4065.88 1832.96L4061.49 1828.56C4061.22 1828.3 4061.08 1827.94 4061.08 1827.57C4061.08 1827.2 4061.22 1826.85 4061.49 1826.59L4064.78 1823.3L4066.38 1821.7C4066.51 1821.57 4066.66 1821.46 4066.83 1821.39C4067 1821.32 4067.18 1821.29 4067.37 1821.29C4067.55 1821.29 4067.73 1821.32 4067.9 1821.39C4068.07 1821.46 4068.23 1821.57 4068.35 1821.7L4081.08 1834.47C4081.2 1834.59 4081.29 1834.75 4081.32 1834.91C4081.35 1835.08 4081.34 1835.26 4081.27 1835.42C4081.21 1835.58 4081.09 1835.71 4080.95 1835.81C4080.81 1835.91 4080.64 1835.96 4080.46 1835.96H4077.03L4073.94 1839.04C4073.68 1839.3 4073.33 1839.45 4072.96 1839.45C4072.58 1839.45 4072.23 1839.3 4071.97 1839.04L4066.87 1833.95L4065.27 1835.55C4065.14 1835.68 4064.99 1835.78 4064.82 1835.85C4064.65 1835.92 4064.47 1835.96 4064.28 1835.96H4060.38V1837.35C4060.38 1837.54 4060.31 1837.72 4060.18 1837.85C4060.05 1837.98 4059.87 1838.05 4059.68 1838.05C4059.5 1838.05 4059.32 1837.98 4059.19 1837.85C4059.06 1837.72 4058.98 1837.54 4058.98 1837.35V1833.16C4058.98 1832.98 4059.06 1832.8 4059.19 1832.67C4059.32 1832.54 4059.5 1832.46 4059.68 1832.46ZM4067.37 1822.68L4066.26 1823.79L4077.03 1834.56H4079.2L4067.37 1822.68Z" fill="white"/>
</g>
<g name="c_3">
<rect width="65.6667" height="33.5319" rx="5.93794" transform="matrix(-1 0 0 1 3879.67 1868)" fill="#1A73E8"/>
</g>
<path d="M3862.9 1886.16V1888.96L3867.09 1884.77L3862.9 1880.57V1883.37H3855.91V1886.16H3862.9Z" fill="white"/>
<g clip-path="url(#clip3_214_243)">
<path d="M3821.68 1885.46C3821.87 1885.46 3822.05 1885.54 3822.18 1885.67C3822.31 1885.8 3822.38 1885.98 3822.38 1886.16V1887.56H3826.28L3827.88 1885.96L3823.49 1881.56C3823.23 1881.3 3823.08 1880.94 3823.08 1880.57C3823.08 1880.2 3823.23 1879.85 3823.49 1879.59L3826.78 1876.3L3828.38 1874.7C3828.51 1874.57 3828.66 1874.46 3828.83 1874.39C3829 1874.32 3829.18 1874.29 3829.37 1874.29C3829.55 1874.29 3829.73 1874.32 3829.9 1874.39C3830.07 1874.46 3830.23 1874.57 3830.36 1874.7L3843.08 1887.47C3843.21 1887.59 3843.29 1887.75 3843.32 1887.91C3843.36 1888.08 3843.34 1888.26 3843.27 1888.42C3843.21 1888.58 3843.09 1888.71 3842.95 1888.81C3842.81 1888.91 3842.64 1888.96 3842.47 1888.96H3839.03L3835.94 1892.04C3835.68 1892.3 3835.33 1892.45 3834.96 1892.45C3834.59 1892.45 3834.23 1892.3 3833.97 1892.04L3828.87 1886.95L3827.27 1888.55C3827.14 1888.68 3826.99 1888.78 3826.82 1888.85C3826.65 1888.92 3826.47 1888.96 3826.28 1888.96H3822.38V1890.35C3822.38 1890.54 3822.31 1890.72 3822.18 1890.85C3822.05 1890.98 3821.87 1891.05 3821.68 1891.05C3821.5 1891.05 3821.32 1890.98 3821.19 1890.85C3821.06 1890.72 3820.98 1890.54 3820.98 1890.35V1886.16C3820.98 1885.98 3821.06 1885.8 3821.19 1885.67C3821.32 1885.54 3821.5 1885.46 3821.68 1885.46ZM3829.37 1875.68L3828.26 1876.79L3839.03 1887.56H3841.2L3829.37 1875.68Z" fill="white"/>
</g>
<g name="c_5">
<rect x="4854" y="1815" width="65.6667" height="33.5319" rx="5.93794" fill="#1A73E8"/>
</g>
<path d="M4870.77 1833.16V1835.96L4866.57 1831.77L4870.77 1827.57V1830.37H4877.75V1833.16H4870.77Z" fill="white"/>
<g clip-path="url(#clip1_214_243)">
<path d="M4911.98 1832.46C4911.8 1832.46 4911.62 1832.54 4911.49 1832.67C4911.36 1832.8 4911.29 1832.98 4911.29 1833.16V1834.56H4907.38L4905.78 1832.96L4910.18 1828.56C4910.44 1828.3 4910.59 1827.94 4910.59 1827.57C4910.59 1827.2 4910.44 1826.85 4910.18 1826.59L4906.89 1823.3L4905.29 1821.7C4905.16 1821.57 4905 1821.46 4904.83 1821.39C4904.66 1821.32 4904.48 1821.29 4904.3 1821.29C4904.12 1821.29 4903.93 1821.32 4903.76 1821.39C4903.59 1821.46 4903.44 1821.57 4903.31 1821.7L4890.58 1834.47C4890.46 1834.59 4890.38 1834.75 4890.34 1834.91C4890.31 1835.08 4890.33 1835.26 4890.39 1835.42C4890.46 1835.58 4890.57 1835.71 4890.72 1835.81C4890.86 1835.91 4891.03 1835.96 4891.2 1835.96H4894.64L4897.72 1839.04C4897.99 1839.3 4898.34 1839.45 4898.71 1839.45C4899.08 1839.45 4899.44 1839.3 4899.7 1839.04L4904.79 1833.95L4906.4 1835.55C4906.52 1835.68 4906.68 1835.78 4906.85 1835.85C4907.02 1835.92 4907.2 1835.96 4907.38 1835.96H4911.29V1837.35C4911.29 1837.54 4911.36 1837.72 4911.49 1837.85C4911.62 1837.98 4911.8 1838.05 4911.98 1838.05C4912.17 1838.05 4912.35 1837.98 4912.48 1837.85C4912.61 1837.72 4912.68 1837.54 4912.68 1837.35V1833.16C4912.68 1832.98 4912.61 1832.8 4912.48 1832.67C4912.35 1832.54 4912.17 1832.46 4911.98 1832.46ZM4904.3 1822.68L4905.41 1823.79L4894.64 1834.56H4892.46L4904.3 1822.68Z" fill="white"/>
</g>

<defs>
<clipPath id="clip4_214_243">
<rect width="22.3546" height="22.3546" fill="white" transform="matrix(-1 0 0 1 4081.34 1820.59)"/>
</clipPath>
<clipPath id="clip3_214_243">
<rect width="22.3546" height="22.3546" fill="white" transform="matrix(-1 0 0 1 3843.34 1873.59)"/>
</clipPath>
<clipPath id="clip1_214_243">
<rect width="22.3546" height="22.3546" fill="white" transform="translate(4890.33 1820.59)"/>
</clipPath>
</defs>
<!-- Camera - End -->
</svg>
